<svg xmlns="http://www.w3.org/2000/svg" width="31.03" height="32" viewBox="0 0 31.03 32">
  <g id="Group_6537" data-name="Group 6537" transform="translate(-461 -3932)">
    <path id="Path_230253" data-name="Path 230253" d="M15.515,0A15.763,15.763,0,0,1,31.03,16,15.763,15.763,0,0,1,15.515,32,15.763,15.763,0,0,1,0,16,15.763,15.763,0,0,1,15.515,0Z" transform="translate(461 3932)" fill="#fff" opacity="0.04"/>
    <g id="apple" transform="translate(421.544 3940)">
      <path id="Path_229554" data-name="Path 229554" d="M61.374,135.115a.333.333,0,0,0-.235-.149,2.318,2.318,0,0,1-.39-4.511.333.333,0,0,0,.179-.5A3.89,3.89,0,0,0,58.123,128a5.491,5.491,0,0,0-1.746.374,4.215,4.215,0,0,1-1.254.293,4.215,4.215,0,0,1-1.254-.293A5.491,5.491,0,0,0,52.123,128c-1.245,0-3.667,1.765-3.667,5,0,3.075,2.243,7,4,7a4.254,4.254,0,0,0,1.933-.445,1.325,1.325,0,0,1,1.467,0,4.254,4.254,0,0,0,1.933.445c1.393,0,2.966-2.392,3.625-4.609A.334.334,0,0,0,61.374,135.115Z" transform="translate(0 -123.999)" fill="#e3e3e3"/>
      <path id="Path_229555" data-name="Path 229555" d="M240.788,4A3.671,3.671,0,0,0,244.455.333.333.333,0,0,0,244.122,0a3.671,3.671,0,0,0-3.667,3.667A.333.333,0,0,0,240.788,4Z" transform="translate(-185.999)" fill="#e3e3e3"/>
    </g>
  </g>
</svg>
