<svg xmlns="http://www.w3.org/2000/svg" xmlns:xlink="http://www.w3.org/1999/xlink" width="211" height="207" viewBox="0 0 211 207">
  <defs>
    <clipPath id="clip-path">
      <ellipse id="Ellipse_75" data-name="Ellipse 75" cx="105.5" cy="103.5" rx="105.5" ry="103.5" transform="translate(254 928)" fill="#fff" stroke="#707070" stroke-width="1"/>
    </clipPath>
  </defs>
  <g id="Mask_Group_4" data-name="Mask Group 4" transform="translate(-254 -928)" clip-path="url(#clip-path)">
    <g id="Group_2975" data-name="Group 2975" transform="translate(-179.09 -792.115)">
      <rect id="Rectangle_147" data-name="Rectangle 147" width="210.91" height="219.546" transform="translate(433.09 1708.115)" fill="#6fd1ee"/>
      <g id="Group_2927" data-name="Group 2927" transform="translate(443.548 1731.666)">
        <path id="Path_227039" data-name="Path 227039" d="M334.978,249.037s-17.009-.393-12.822-12.43c3.271-9.289,16.355-5.1,16.355-5.1s-15.046-3.925-8.9-14.654c5.626-9.813,17.663-1.57,17.663-1.57s-13.738-10.86-.785-18.971c10.467-6.673,18.186.131,15.177,14,0,0,6.8-11.121,14.392-1.7,5.888,7.458-7.719,14.261-7.719,14.261s9.813-5.626,12.3,3.271c1.963,7.065-6.411,10.205-6.411,10.205s7.85-1.832,10.336,4.318-5.626,8.374-12.953,8.374Z" transform="translate(-198.375 -53.042)" fill="#2e9a13"/>
        <path id="Path_227040" data-name="Path 227040" d="M360.671,247.743s9.42-.262,7.065-11.121c-1.832-8.374-9.159-4.579-9.159-4.579s8.374-3.533,4.972-13.215c-3.14-8.766-9.813-1.439-9.813-1.439s7.589-9.813.523-17.14c-5.757-6.019-10.075.131-8.5,12.56,0,0-3.794-9.944-7.981-1.57-3.271,6.673,4.318,12.822,4.318,12.822s-5.364-4.972-6.8,2.878c-1.178,6.411,3.533,9.159,3.533,9.159s-4.318-1.57-5.757,3.925,3.14,7.589,7.2,7.589C344.185,247.743,360.671,247.743,360.671,247.743Z" transform="translate(-194.89 -51.749)" fill="#2e811b"/>
        <path id="Path_227041" data-name="Path 227041" d="M344.5,245.93l2.355-42.13,2.224,42.13Z" transform="translate(-191.28 -49.935)" fill="#512413"/>
        <path id="Path_227042" data-name="Path 227042" d="M240.878,249.037s-17.009-.393-12.822-12.43c3.271-9.289,16.355-5.1,16.355-5.1s-15.046-3.925-8.9-14.654c5.626-9.813,17.663-1.57,17.663-1.57s-13.738-10.86-.785-18.971c10.467-6.673,18.186.131,15.177,14,0,0,6.8-11.121,14.392-1.7,5.888,7.458-7.719,14.261-7.719,14.261s9.813-5.626,12.3,3.271c1.963,7.065-6.411,10.205-6.411,10.205s7.85-1.832,10.336,4.318-5.626,8.374-12.953,8.374Z" transform="translate(-227.393 -53.042)" fill="#2e9a13"/>
        <path id="Path_227043" data-name="Path 227043" d="M246.854,247.743s-9.42-.262-7.065-11.121c1.832-8.374,9.159-4.579,9.159-4.579s-8.374-3.533-4.972-13.215c3.14-8.766,9.813-1.439,9.813-1.439s-7.589-9.813-.523-17.14c5.757-6.019,10.075.131,8.5,12.56,0,0,3.794-9.944,7.981-1.57,3.271,6.673-4.318,12.822-4.318,12.822s5.364-4.972,6.8,2.878c1.178,6.411-3.533,9.159-3.533,9.159s4.318-1.57,5.757,3.925-3.14,7.589-7.2,7.589C263.209,247.743,246.854,247.743,246.854,247.743Z" transform="translate(-223.687 -51.749)" fill="#2e811b"/>
        <path id="Path_227044" data-name="Path 227044" d="M250.4,245.93l2.355-42.13,2.224,42.13Z" transform="translate(-220.298 -49.935)" fill="#512413"/>
        <rect id="Rectangle_148" data-name="Rectangle 148" width="112.259" height="81.381" transform="translate(38.737 114.614)" fill="#ffc1a6"/>
        <rect id="Rectangle_149" data-name="Rectangle 149" width="112.259" height="13.476" transform="translate(38.737 114.614)" fill="#a9a69a"/>
        <path id="Path_227045" data-name="Path 227045" d="M380.222,187.994H250.3L266.916,154.5h96.689Z" transform="translate(-220.329 -65.138)" fill="#221825"/>
        <path id="Path_227046" data-name="Path 227046" d="M284.4,86.2s-26.3.916-26.3,27.476,26.3,46.84,26.3,46.84,26.3-20.28,26.3-46.84C310.7,86.985,284.4,86.2,284.4,86.2Zm0,36.373a11.383,11.383,0,1,1,11.383-11.383A11.391,11.391,0,0,1,284.4,122.573Z" transform="translate(-217.924 -86.2)" fill="#e90306"/>
        <rect id="Rectangle_150" data-name="Rectangle 150" width="24.074" height="34.672" transform="translate(82.829 161.323)" fill="#221825"/>
        <rect id="Rectangle_151" data-name="Rectangle 151" width="18.056" height="30.878" transform="translate(85.838 165.117)" fill="#4d454f"/>
        <rect id="Rectangle_152" data-name="Rectangle 152" width="5.495" height="8.766" transform="translate(88.193 169.958)" fill="#221825"/>
        <rect id="Rectangle_153" data-name="Rectangle 153" width="5.495" height="8.766" transform="translate(96.044 169.958)" fill="#221825"/>
        <rect id="Rectangle_154" data-name="Rectangle 154" width="5.495" height="8.766" transform="translate(88.193 182.649)" fill="#221825"/>
        <rect id="Rectangle_155" data-name="Rectangle 155" width="5.495" height="8.766" transform="translate(96.044 182.649)" fill="#221825"/>
        <g id="Group_2918" data-name="Group 2918" transform="translate(118.155 163.024)">
          <rect id="Rectangle_156" data-name="Rectangle 156" width="21.457" height="23.289" fill="#a45a55"/>
          <rect id="Rectangle_157" data-name="Rectangle 157" width="16.747" height="19.626" transform="translate(2.355 1.701)" fill="#54b9f2"/>
          <rect id="Rectangle_158" data-name="Rectangle 158" width="18.579" height="1.047" transform="translate(1.439 1.178)" fill="#a45a55"/>
          <rect id="Rectangle_159" data-name="Rectangle 159" width="18.579" height="1.047" transform="translate(1.439 8.504)" fill="#a45a55"/>
          <rect id="Rectangle_160" data-name="Rectangle 160" width="18.579" height="1.047" transform="translate(1.439 15.831)" fill="#a45a55"/>
          <rect id="Rectangle_161" data-name="Rectangle 161" width="1.439" height="21.588" transform="translate(10.074 0.916)" fill="#a45a55"/>
        </g>
        <g id="Group_2919" data-name="Group 2919" transform="translate(118.155 134.501)">
          <rect id="Rectangle_162" data-name="Rectangle 162" width="21.457" height="23.289" fill="#a45a55"/>
          <rect id="Rectangle_163" data-name="Rectangle 163" width="16.747" height="19.626" transform="translate(2.355 1.701)" fill="#54b9f2"/>
          <rect id="Rectangle_164" data-name="Rectangle 164" width="18.579" height="1.047" transform="translate(1.439 1.047)" fill="#a45a55"/>
          <rect id="Rectangle_165" data-name="Rectangle 165" width="18.579" height="1.047" transform="translate(1.439 8.504)" fill="#a45a55"/>
          <rect id="Rectangle_166" data-name="Rectangle 166" width="18.579" height="1.047" transform="translate(1.439 15.831)" fill="#a45a55"/>
          <rect id="Rectangle_167" data-name="Rectangle 167" width="1.439" height="21.588" transform="translate(10.074 0.785)" fill="#a45a55"/>
        </g>
        <g id="Group_2920" data-name="Group 2920" transform="translate(84.268 134.37)">
          <rect id="Rectangle_168" data-name="Rectangle 168" width="21.457" height="23.289" fill="#a45a55"/>
          <rect id="Rectangle_169" data-name="Rectangle 169" width="16.747" height="19.626" transform="translate(2.224 1.701)" fill="#54b9f2"/>
          <rect id="Rectangle_170" data-name="Rectangle 170" width="18.579" height="1.047" transform="translate(1.308 1.178)" fill="#a45a55"/>
          <rect id="Rectangle_171" data-name="Rectangle 171" width="18.579" height="1.047" transform="translate(1.308 8.504)" fill="#a45a55"/>
          <rect id="Rectangle_172" data-name="Rectangle 172" width="18.579" height="1.047" transform="translate(1.308 15.831)" fill="#a45a55"/>
          <rect id="Rectangle_173" data-name="Rectangle 173" width="1.439" height="21.588" transform="translate(9.944 0.785)" fill="#a45a55"/>
        </g>
        <g id="Group_2921" data-name="Group 2921" transform="translate(50.251 163.024)">
          <rect id="Rectangle_174" data-name="Rectangle 174" width="21.457" height="23.289" fill="#a45a55"/>
          <rect id="Rectangle_175" data-name="Rectangle 175" width="16.747" height="19.626" transform="translate(2.355 1.701)" fill="#54b9f2"/>
          <rect id="Rectangle_176" data-name="Rectangle 176" width="18.579" height="1.047" transform="translate(1.439 1.178)" fill="#a45a55"/>
          <rect id="Rectangle_177" data-name="Rectangle 177" width="18.579" height="1.047" transform="translate(1.439 8.504)" fill="#a45a55"/>
          <rect id="Rectangle_178" data-name="Rectangle 178" width="18.579" height="1.047" transform="translate(1.439 15.831)" fill="#a45a55"/>
          <rect id="Rectangle_179" data-name="Rectangle 179" width="1.439" height="21.588" transform="translate(9.944 0.916)" fill="#a45a55"/>
        </g>
        <g id="Group_2922" data-name="Group 2922" transform="translate(50.251 134.501)">
          <rect id="Rectangle_180" data-name="Rectangle 180" width="21.457" height="23.289" fill="#a45a55"/>
          <rect id="Rectangle_181" data-name="Rectangle 181" width="16.747" height="19.626" transform="translate(2.355 1.701)" fill="#54b9f2"/>
          <rect id="Rectangle_182" data-name="Rectangle 182" width="18.579" height="1.047" transform="translate(1.439 1.047)" fill="#a45a55"/>
          <rect id="Rectangle_183" data-name="Rectangle 183" width="18.579" height="1.047" transform="translate(1.439 8.504)" fill="#a45a55"/>
          <rect id="Rectangle_184" data-name="Rectangle 184" width="18.579" height="1.047" transform="translate(1.439 15.831)" fill="#a45a55"/>
          <rect id="Rectangle_185" data-name="Rectangle 185" width="1.439" height="21.588" transform="translate(9.944 0.785)" fill="#a45a55"/>
        </g>
        <g id="Group_2924" data-name="Group 2924" transform="translate(98.66 43.831)">
          <g id="Group_2923" data-name="Group 2923">
            <rect id="Rectangle_186" data-name="Rectangle 186" width="58.092" height="38.466" fill="#fac515"/>
            <circle id="Ellipse_71" data-name="Ellipse 71" cx="11.121" cy="11.121" r="11.121" transform="matrix(0.16, -0.987, 0.987, 0.16, 16.369, 28.401)" fill="#f3f4f2"/>
            <path id="Path_227047" data-name="Path 227047" d="M335.185,136.344a8.243,8.243,0,1,1-8.243-8.243A8.208,8.208,0,0,1,335.185,136.344Z" transform="translate(-297.897 -117.11)" fill="#caced4"/>
            <circle id="Ellipse_72" data-name="Ellipse 72" cx="7.196" cy="7.196" r="7.196" transform="translate(21.85 12.037)" fill="#f3f4f2"/>
            <path id="Path_227048" data-name="Path 227048" d="M316.327,132.088a11.587,11.587,0,0,0-1.439-5.888h-.523s.393,5.233-.131,6.019c-.654.785-1.178-6.019-1.178-6.019h-.785s-.654,6.8-1.178,6.019c-.654-.785-.131-6.019-.131-6.019h-.523A11.587,11.587,0,0,0,309,132.088c0,3.663,2.878,3.663,2.878,3.663s-.523,10.336-.523,11.906a1.439,1.439,0,1,0,2.878,0c0-1.57-.523-11.906-.523-11.906S316.327,135.751,316.327,132.088Z" transform="translate(-300.888 -117.696)" fill="#f3f4f2"/>
            <path id="Path_227049" data-name="Path 227049" d="M344.127,132.458a11.587,11.587,0,0,0-1.439-5.888,2.361,2.361,0,0,0-4.448,0,11.587,11.587,0,0,0-1.439,5.888c0,3.663,2.879,3.925,2.879,3.925s-.523,10.205-.523,11.775a1.439,1.439,0,0,0,2.878,0c0-1.57-.523-11.775-.523-11.775S344.127,136.121,344.127,132.458Z" transform="translate(-292.315 -118.066)" fill="#f3f4f2"/>
          </g>
          <path id="Path_227050" data-name="Path 227050" d="M336.509,146.1,303.8,206.678l41.345-59.4Z" transform="translate(-302.492 -111.559)" fill="#fac515"/>
        </g>
        <path id="Path_227051" data-name="Path 227051" d="M308.092,225.948h0a.418.418,0,0,1-.393-.393v-1.963a.418.418,0,0,1,.393-.393h0a.418.418,0,0,1,.392.393v1.963A.418.418,0,0,1,308.092,225.948Z" transform="translate(-202.628 -43.952)" fill="#fac515"/>
        <g id="Group_2925" data-name="Group 2925" transform="translate(37.443 123.496)">
          <path id="Path_227052" data-name="Path 227052" d="M257.043,185s4.187-.131,4.972.654,1.439,4.841-1.7,4.972-3.925.131-4.187-1.308C255.866,188.011,256,185.133,257.043,185Z" transform="translate(-256.011 -179.231)" fill="#221825"/>
          <path id="Path_227053" data-name="Path 227053" d="M257.233,196.3s3.925-.131,4.71.523c.654.654,1.308,4.448-1.57,4.579s-3.663.131-3.925-1.178C256.055,199.181,256.186,196.433,257.233,196.3Z" transform="translate(-255.939 -175.746)" fill="#221825"/>
          <path id="Path_227054" data-name="Path 227054" d="M257.243,219.6s4.187-.131,4.972.523,1.439,3.925-1.7,3.925c-3.14.131-3.925.131-4.187-1.047C256.066,222.088,256.2,219.733,257.243,219.6Z" transform="translate(-255.95 -168.561)" fill="#221825"/>
          <path id="Path_227055" data-name="Path 227055" d="M257.363,225.3s4.71-.131,5.626.523,1.57,4.318-1.832,4.449c-3.533.131-4.318.131-4.71-1.178C256.054,228.05,256.185,225.433,257.363,225.3Z" transform="translate(-255.938 -166.804)" fill="#221825"/>
          <path id="Path_227056" data-name="Path 227056" d="M257.243,208.7s4.187-.131,4.972.393,1.439,3.4-1.7,3.4-3.925.131-4.187-.916C256.066,210.928,256.2,208.834,257.243,208.7Z" transform="translate(-255.95 -171.924)" fill="#221825"/>
          <path id="Path_227057" data-name="Path 227057" d="M257.593,190.1s5.1-.131,6.019.654,1.7,5.1-1.963,5.234-4.579.262-5.1-1.308C256.153,193.373,256.284,190.233,257.593,190.1Z" transform="translate(-255.906 -177.658)" fill="#221825"/>
          <path id="Path_227058" data-name="Path 227058" d="M257.06,180.6s3.14-.131,3.663.393,1.047,3.271-1.177,3.4c-2.224,0-2.748.131-3.009-.916C256.275,182.7,256.275,180.6,257.06,180.6Z" transform="translate(-255.898 -180.589)" fill="#221825"/>
          <path id="Path_227059" data-name="Path 227059" d="M257.113,231.2s3.663-.131,4.318.523,1.177,4.056-1.439,4.187-3.271.131-3.663-1.047C256.066,233.819,256.2,231.333,257.113,231.2Z" transform="translate(-255.95 -164.984)" fill="#221825"/>
          <path id="Path_227060" data-name="Path 227060" d="M257.113,213.5s3.794-.131,4.579.523c.654.654,1.308,4.449-1.57,4.579s-3.533.131-3.794-1.178C256.066,216.25,256.2,213.633,257.113,213.5Z" transform="translate(-255.95 -170.442)" fill="#221825"/>
          <path id="Path_227061" data-name="Path 227061" d="M257.373,202.2s4.841-.131,5.757.523,1.7,4.579-1.963,4.579c-3.533.131-4.448.131-4.841-1.178C256.065,205.081,256.2,202.333,257.373,202.2Z" transform="translate(-255.949 -173.927)" fill="#221825"/>
        </g>
        <g id="Group_2926" data-name="Group 2926" transform="translate(143.819 123.496)">
          <path id="Path_227062" data-name="Path 227062" d="M344.325,185s-4.187-.131-4.972.654-1.439,4.841,1.7,4.972,3.925.131,4.187-1.308C345.5,188.011,345.371,185.133,344.325,185Z" transform="translate(-336.886 -179.231)" fill="#221825"/>
          <path id="Path_227063" data-name="Path 227063" d="M344.043,196.3s-3.925-.131-4.71.523c-.654.654-1.308,4.448,1.57,4.579s3.663.131,3.925-1.178C345.22,199.181,345.09,196.433,344.043,196.3Z" transform="translate(-336.866 -175.746)" fill="#221825"/>
          <path id="Path_227064" data-name="Path 227064" d="M344.237,219.4s-4.841-.131-5.757.523-1.7,4.056,1.963,4.187c3.533.131,4.448.131,4.841-1.047C345.546,222.019,345.415,219.533,344.237,219.4Z" transform="translate(-337.191 -168.623)" fill="#221825"/>
          <path id="Path_227065" data-name="Path 227065" d="M344.053,224.9s-3.663-.131-4.318.523-1.308,4.318,1.439,4.448,3.4.131,3.663-1.178C345.1,227.65,344.969,225.033,344.053,224.9Z" transform="translate(-336.745 -166.927)" fill="#221825"/>
          <path id="Path_227066" data-name="Path 227066" d="M343.984,208.7s-3.4-.131-4.056.393-1.177,3.4,1.308,3.4,3.14.131,3.4-.916C345.031,210.928,344.9,208.834,343.984,208.7Z" transform="translate(-336.676 -171.924)" fill="#221825"/>
          <path id="Path_227067" data-name="Path 227067" d="M344.1,230.1s-5.1-.131-6.019.654-1.7,5.1,1.963,5.234,4.579.262,5.1-1.308C345.538,233.373,345.407,230.364,344.1,230.1Z" transform="translate(-337.315 -165.323)" fill="#221825"/>
          <path id="Path_227068" data-name="Path 227068" d="M343.871,180.6s-3.14-.131-3.663.393-1.047,3.271,1.178,3.4c2.224,0,2.748.131,3.009-.916C344.656,182.7,344.656,180.6,343.871,180.6Z" transform="translate(-336.564 -180.589)" fill="#221825"/>
          <path id="Path_227069" data-name="Path 227069" d="M344.043,191.1s-3.663-.131-4.318.523-1.178,4.056,1.439,4.187,3.271.131,3.663-1.047C345.09,193.719,344.959,191.233,344.043,191.1Z" transform="translate(-336.736 -177.35)" fill="#221825"/>
          <path id="Path_227070" data-name="Path 227070" d="M344.112,213.5s-3.794-.131-4.579.523c-.654.654-1.308,4.449,1.57,4.579s3.533.131,3.794-1.178C345.159,216.25,345.028,213.633,344.112,213.5Z" transform="translate(-336.804 -170.442)" fill="#221825"/>
          <path id="Path_227071" data-name="Path 227071" d="M344.237,202.2s-4.841-.131-5.757.523-1.7,4.579,1.963,4.579c3.533.131,4.448.131,4.841-1.178C345.546,205.081,345.415,202.333,344.237,202.2Z" transform="translate(-337.191 -173.927)" fill="#221825"/>
        </g>
      </g>
      <circle id="Ellipse_73" data-name="Ellipse 73" cx="13.738" cy="13.738" r="13.738" transform="translate(456.117 1780.73)" fill="#fac515"/>
      <path id="Path_227094" data-name="Path 227094" d="M357.359,169.88c2.486.131,4.972.654,7.589.262a13.974,13.974,0,0,1,3.271.131c2.355.523,4.579,0,6.8-.262,1.439-.131,3.009.131,4.318-.916,2.486-1.963-1.047-2.878-2.224-2.617a6.919,6.919,0,0,1-5.5-1.178,7.429,7.429,0,0,0-2.878-.916c-.785-.131-2.224-.654-2.878-.131-.392.262-.523.785-.916,1.047a3.763,3.763,0,0,1-1.963.393c-1.178.131-2.224-.523-3.4-.654-.785-.131-6.673-1.439-6.934,0-.262,1.047,2.093.916,1.963,1.963-.131.654-2.617.654-3.14.785-.654.131-3.271,0-3.271,1.439a11.757,11.757,0,0,0,5.5,1.047h.262A7.4,7.4,0,0,1,357.359,169.88Z" transform="translate(253.408 1669.465)" fill="#c2f0ff"/>
      <path id="Path_227095" data-name="Path 227095" d="M240.343,165.126a37.975,37.975,0,0,0,6.673.262,10.635,10.635,0,0,1,2.878.131c2.093.523,4.056,0,6.019-.262,1.177-.131,2.748.131,3.925-.785,2.224-1.7-.916-2.486-1.963-2.355a5.768,5.768,0,0,1-4.841-1.047,4.624,4.624,0,0,0-2.486-.785c-.785-.131-1.963-.654-2.617-.131-.262.262-.393.785-.785.916-.523.393-1.178.262-1.832.393-1.047.131-1.963-.393-3.009-.523-.654-.131-5.888-1.308-6.28,0-.262.916,1.832.785,1.7,1.7-.131.654-2.355.654-2.748.654-.654.131-2.878,0-2.878,1.308a11.175,11.175,0,0,0,4.972.916h.262A5.828,5.828,0,0,1,240.343,165.126Z" transform="translate(217.606 1668.201)" fill="#c2f0ff"/>
      <path id="Path_227096" data-name="Path 227096" d="M327.879,103.536c4.972.262,9.944,1.178,15.046.393a17.7,17.7,0,0,1,6.411.393c4.71,1.047,9.028,0,13.476-.523,2.748-.393,6.019.131,8.635-1.7,5.1-3.663-2.093-5.364-4.318-5.1-3.925.523-7.458.262-10.99-2.355-1.832-1.308-3.663-1.308-5.626-1.57-1.57-.262-4.318-1.308-5.888-.262-.654.523-.916,1.57-1.832,2.093a10.662,10.662,0,0,1-4.056.785c-2.355.131-4.448-.916-6.8-1.178-1.57-.262-13.215-2.748-13.869,0-.392,1.963,4.187,1.832,3.794,3.794-.262,1.308-5.233,1.308-6.149,1.439-1.308.262-6.411,0-6.411,2.748,3.663,1.7,7.2,1.832,10.99,1.963h.523A21.876,21.876,0,0,1,327.879,103.536Z" transform="translate(241.413 1647.363)" fill="#c2f0ff"/>
    </g>
  </g>
</svg>
