<svg xmlns="http://www.w3.org/2000/svg" xmlns:xlink="http://www.w3.org/1999/xlink" width="211" height="207" viewBox="0 0 211 207">
  <defs>
    <clipPath id="clip-path">
      <ellipse id="Ellipse_76" data-name="Ellipse 76" cx="105.5" cy="103.5" rx="105.5" ry="103.5" transform="translate(695 980)" fill="#fff" stroke="#707070" stroke-width="1"/>
    </clipPath>
    <linearGradient id="linear-gradient" x1="-13.825" y1="7.001" x2="-13.281" y2="6.888" gradientUnits="objectBoundingBox">
      <stop offset="0.143" stop-color="#ec940e"/>
      <stop offset="1" stop-color="#f6ca7f"/>
    </linearGradient>
    <linearGradient id="linear-gradient-2" x1="0.233" y1="0.558" x2="0.809" y2="0.443" xlink:href="#linear-gradient"/>
    <radialGradient id="radial-gradient" cx="0.605" cy="0.328" r="0.558" gradientUnits="objectBoundingBox">
      <stop offset="0.062" stop-color="#f6ad09"/>
      <stop offset="1" stop-color="#db7009"/>
    </radialGradient>
    <radialGradient id="radial-gradient-2" cx="1.267" cy="-0.17" r="0.94" xlink:href="#radial-gradient"/>
    <radialGradient id="radial-gradient-3" cx="0.13" cy="-0.175" r="0.972" xlink:href="#radial-gradient"/>
    <linearGradient id="linear-gradient-3" x1="26.069" y1="12.589" x2="27.26" y2="12.589" gradientUnits="objectBoundingBox">
      <stop offset="0" stop-color="#30791a"/>
      <stop offset="1" stop-color="#54ae4f"/>
    </linearGradient>
    <linearGradient id="linear-gradient-4" x1="26.174" y1="12.414" x2="27.37" y2="12.414" xlink:href="#linear-gradient-3"/>
    <radialGradient id="radial-gradient-4" cx="0.334" cy="0.612" r="0.605" gradientUnits="objectBoundingBox">
      <stop offset="0" stop-color="#30791a"/>
      <stop offset="1" stop-color="#499e3f"/>
    </radialGradient>
    <radialGradient id="radial-gradient-5" cx="0.429" cy="0.562" r="0.543" xlink:href="#radial-gradient-4"/>
    <radialGradient id="radial-gradient-6" cx="0.399" cy="0.612" r="0.605" xlink:href="#radial-gradient-4"/>
    <radialGradient id="radial-gradient-7" cx="0.408" cy="0.565" r="0.543" xlink:href="#radial-gradient-4"/>
    <radialGradient id="radial-gradient-8" cx="0.718" cy="0.613" r="0.543" xlink:href="#radial-gradient-4"/>
    <radialGradient id="radial-gradient-9" cx="0.713" cy="0.604" r="0.605" xlink:href="#radial-gradient-4"/>
    <radialGradient id="radial-gradient-10" cx="0.63" cy="0.539" r="0.748" xlink:href="#radial-gradient-4"/>
    <radialGradient id="radial-gradient-11" cx="0.493" cy="0.451" r="0.543" xlink:href="#radial-gradient-4"/>
    <radialGradient id="radial-gradient-12" cx="0.682" cy="0.682" r="0.747" xlink:href="#radial-gradient-4"/>
    <radialGradient id="radial-gradient-13" cx="0.61" cy="0.668" r="0.747" xlink:href="#radial-gradient-4"/>
    <radialGradient id="radial-gradient-14" cx="0.451" cy="0.422" r="0.543" xlink:href="#radial-gradient-4"/>
    <radialGradient id="radial-gradient-15" cx="0.357" cy="0.718" r="0.747" xlink:href="#radial-gradient-4"/>
    <radialGradient id="radial-gradient-16" cx="0.706" cy="0.469" r="0.543" xlink:href="#radial-gradient-4"/>
    <radialGradient id="radial-gradient-17" cx="0.678" cy="0.563" r="0.543" xlink:href="#radial-gradient-4"/>
    <radialGradient id="radial-gradient-18" cx="0.435" cy="0.474" r="0.543" xlink:href="#radial-gradient-4"/>
    <radialGradient id="radial-gradient-19" cx="0.591" cy="0.539" r="0.748" xlink:href="#radial-gradient-4"/>
    <radialGradient id="radial-gradient-20" cx="0.691" cy="0.579" r="0.543" xlink:href="#radial-gradient-4"/>
    <radialGradient id="radial-gradient-21" cx="0.572" cy="0.609" r="0.605" xlink:href="#radial-gradient-4"/>
    <radialGradient id="radial-gradient-22" cx="0.529" cy="0.591" r="0.748" xlink:href="#radial-gradient-4"/>
    <radialGradient id="radial-gradient-23" cx="0.429" cy="0.618" r="0.747" xlink:href="#radial-gradient-4"/>
    <radialGradient id="radial-gradient-24" cx="0.425" cy="0.475" r="0.543" xlink:href="#radial-gradient-4"/>
    <linearGradient id="linear-gradient-5" x1="27.836" y1="12.761" x2="29.104" y2="12.761" xlink:href="#linear-gradient-3"/>
    <linearGradient id="linear-gradient-6" x1="26.139" y1="-0.791" x2="26.898" y2="-0.151" gradientUnits="objectBoundingBox">
      <stop offset="0" stop-color="#235717"/>
      <stop offset="0.511" stop-color="#1f773e"/>
      <stop offset="1" stop-color="#468e3c"/>
    </linearGradient>
    <radialGradient id="radial-gradient-25" cx="0.58" cy="0.508" r="0.412" gradientUnits="objectBoundingBox">
      <stop offset="0.489" stop-color="#bf0031"/>
      <stop offset="1" stop-color="#a90031"/>
    </radialGradient>
    <radialGradient id="radial-gradient-26" cx="0.595" cy="0.541" r="0.419" xlink:href="#radial-gradient-25"/>
    <radialGradient id="radial-gradient-27" cx="-1.489" cy="-0.44" r="1.547" gradientUnits="objectBoundingBox">
      <stop offset="0" stop-color="#1d8426"/>
      <stop offset="1" stop-color="#237918"/>
    </radialGradient>
    <radialGradient id="radial-gradient-28" cx="0.554" cy="0.431" r="0.615" xlink:href="#radial-gradient-27"/>
    <linearGradient id="linear-gradient-7" x1="0.493" y1="0.139" x2="0.46" y2="0.933" gradientUnits="objectBoundingBox">
      <stop offset="0.143" stop-color="#d6ab8b"/>
      <stop offset="1" stop-color="#c68454"/>
    </linearGradient>
    <linearGradient id="linear-gradient-8" x1="0.5" y1="0.118" x2="0.467" y2="1.092" gradientUnits="objectBoundingBox">
      <stop offset="0" stop-color="#cba489"/>
      <stop offset="0.992" stop-color="#b9835f"/>
    </linearGradient>
  </defs>
  <g id="Mask_Group_3" data-name="Mask Group 3" transform="translate(-695 -980)" clip-path="url(#clip-path)">
    <g id="Group_2982" data-name="Group 2982" transform="translate(48.851 -808.938)">
      <rect id="Rectangle_195" data-name="Rectangle 195" width="210.91" height="219.546" transform="translate(646.149 1776.392)" fill="#fadd95"/>
      <g id="Group_2979" data-name="Group 2979" transform="translate(646.149 1813.55)">
        <g id="Group_2869" data-name="Group 2869">
          <path id="Path_226742" data-name="Path 226742" d="M153.244,96.6H40.2v9.682H150.365A17.874,17.874,0,0,1,153.244,96.6Z" transform="translate(-40.2 -96.6)" fill="#fff"/>
          <path id="Path_226743" data-name="Path 226743" d="M223.5,135.863a39.629,39.629,0,0,1-6.28,5.1v84.129H40.2v9.682H226.644V132.2A27.389,27.389,0,0,1,223.5,135.863Z" transform="translate(-40.2 -85.622)" fill="#fff"/>
          <rect id="Rectangle_139" data-name="Rectangle 139" width="4.71" height="138.819" transform="translate(84.129 5.103)" fill="#fff"/>
          <rect id="Rectangle_140" data-name="Rectangle 140" width="183.173" height="4.71" transform="translate(0 72.222)" fill="#fff"/>
        </g>
      </g>
      <g id="Group_2981" data-name="Group 2981" transform="translate(646.149 1830.559)">
        <rect id="Rectangle_141" data-name="Rectangle 141" width="46.709" height="4.448" transform="translate(0 32.971)" fill="#fff"/>
        <rect id="Rectangle_142" data-name="Rectangle 142" width="5.495" height="32.84" transform="translate(9.944)" fill="#fff"/>
        <rect id="Rectangle_143" data-name="Rectangle 143" width="5.495" height="29.046" transform="translate(1.439 3.925)" fill="#fff"/>
        <rect id="Rectangle_144" data-name="Rectangle 144" width="5.495" height="29.046" transform="matrix(0.929, -0.371, 0.371, 0.929, 16.642, 5.344)" fill="#fff"/>
        <rect id="Rectangle_145" data-name="Rectangle 145" width="5.495" height="29.046" transform="matrix(0.929, -0.371, 0.371, 0.929, 24.102, 5.357)" fill="#fff"/>
      </g>
      <g id="Group_2980" data-name="Group 2980" transform="translate(657.369 1844.573)">
        <path id="Path_226833" data-name="Path 226833" d="M100.307,164.9s5.888,15.57,12.56,18.71c0,0-4.056,14.785-17.794,13.084-13.869-1.7-16.616-11.252-16.616-11.252s8.635-9.159,6.542-21.2c-1.963-12.168-14.13-14-13.084-25.252s29.569-8.766,34.41-4.056c5.5,5.5,15.57,23.289,11.383,28.915C113.26,169.477,104.1,167.777,100.307,164.9Z" transform="translate(-41.659 -117.026)" fill="#fca694"/>
        <path id="Path_226834" data-name="Path 226834" d="M87.5,153.6c3.14,1.57,7.981,4.318,7.981,4.318a67.437,67.437,0,0,0,3.14,7.2C91.294,161.712,87.5,153.6,87.5,153.6Z" transform="translate(-36.834 -110.045)" fill="#e96362"/>
        <path id="Path_226835" data-name="Path 226835" d="M74.615,131.549s-1.57-8.9,7.589-10.86,17.794,4.318,21.2,4.972c3.4.523,8.112-1.047,8.374-2.355,0,0,4.71,7.981.654,14.654-3.925,6.673-15.439,7.2-22.766,4.318,0,0,.916,8.766,1.308,10.729.262,1.308-.262,2.224-1.963.523a35.417,35.417,0,0,1-3.533-4.972c-1.439-1.963-3.925-1.047-4.841.916-.785,1.57,1.178,4.71,4.187,6.542s2.093,7.327,1.047,7.589-9.159-7.719-12.56-11.121-8.112-9.813-5.757-14.915C70.036,132.334,72,131.418,74.615,131.549Z" transform="translate(-43.182 -120.311)"/>
        <path id="Path_226836" data-name="Path 226836" d="M115.8,168.3s13.215,4.972,26.691,5.234,21.588,6.28,26.953,21.719,17.009,61.494,17.009,61.494H61.891s-13.869-35.457-13.084-45.532c.916-10.074,1.832-19.495,20.411-30.093l18.579-10.6s4.187,11.383,17.925,9.682S115.8,168.3,115.8,168.3Z" transform="translate(-48.775 -105.512)" fill="#760103"/>
        <path id="Path_226837" data-name="Path 226837" d="M66.509,192.193l.785-.393a119.23,119.23,0,0,1,11.252,4.579c9.682,4.841,19.364,8.766,30.485,6.542,7.589-1.57,14.261-5.626,20.28-11.121,1.047,1.832,2.224,3.663,3.4,5.626a43.3,43.3,0,0,0,5.1,6.934c-10.205,13.476-19.756,27.607-35.719,34.672-6.542,2.878-12.168,5.888-16.747,10.6H74.359a38.232,38.232,0,0,0-4.841-22.112c-4.187-7.065-9.289-12.56-10.729-20.934C57.481,199.389,59.444,194.678,66.509,192.193Z" transform="translate(-45.804 -98.265)" fill="#6c0002"/>
        <path id="Path_226838" data-name="Path 226838" d="M143.793,152.748l1.178,1.57-6.8,33.233s-9.813,3.009-14.392,3.271c-4.579.392-10.074-3.925-10.074-3.925l5.626-36.9Z" transform="translate(-28.754 -111.155)" fill="#a5aec2"/>
        <path id="Path_226839" data-name="Path 226839" d="M119.98,190.429a22.576,22.576,0,0,1-6.28-3.271L119.326,150a50.907,50.907,0,0,0,6.149,5.757C122.074,167.009,123.251,179.177,119.98,190.429Z" transform="translate(-28.754 -111.155)" fill="#54658b"/>
        <path id="Path_226840" data-name="Path 226840" d="M121.043,151.2l24.205,2.748-6.8,33.233s-9.813,3.009-14.392,3.271c-4.579.393-11.252-4.972-11.252-4.972l2.748-.785Z" transform="translate(-29.032 -110.785)"/>
        <path id="Path_226841" data-name="Path 226841" d="M143.808,163.6s6.28-.785,4.579,7.85a2.891,2.891,0,0,1,3.533,1.832,6.375,6.375,0,0,1-.654,6.28s1.963-.523,3.009,2.093-2.224,8.635-9.682,11.121c-7.589,2.486-8.243,7.327-8.243,7.327a162.232,162.232,0,0,1-15.831-5.626c-6.542-3.009-8.112-3.925-8.112-3.925a27.021,27.021,0,0,0-1.439-6.28c-1.047-2.486-3.533-8.9-1.832-13.084s7.458-4.579,8.766-4.972c0,0-.916,5.626-.131,7.719,1.178,3.009,4.318,7.2,7.458,7.458,3.14.131,13.084-3.4,14.654-4.579,1.57-1.308,1.7-1.7,1.7-1.7Z" transform="translate(-30.34 -106.966)" fill="#fca694"/>
        <path id="Path_226842" data-name="Path 226842" d="M120.914,186.313c6.934,3.009,12.168,3.925,18.971,4.579a8.456,8.456,0,0,0-3.794,5.234A162.236,162.236,0,0,1,120.26,190.5c-6.542-3.009-8.112-3.925-8.112-3.925a27.019,27.019,0,0,0-1.439-6.28A20.63,20.63,0,0,1,109.4,176.5C111.886,180.033,116.989,184.612,120.914,186.313Z" transform="translate(-30.08 -102.983)" fill="#e96362"/>
        <path id="Path_226843" data-name="Path 226843" d="M139.569,169.97a2.957,2.957,0,0,1,1.439-.131c-1.57,1.7-3.663,3.925-3.663,3.925-.785-.131,1.047-3.009,2.486-5.364C139.7,168.923,139.7,169.447,139.569,169.97Z" transform="translate(-21.521 -105.481)" fill="#e96362"/>
        <path id="Path_226844" data-name="Path 226844" d="M142.922,176.54c-1.832,1.439-4.187,3.4-4.187,3.4-.916-.262,2.617-4.448,4.448-6.542a6.863,6.863,0,0,1-1.178,3.14A1.78,1.78,0,0,1,142.922,176.54Z" transform="translate(-21.08 -103.939)" fill="#e96362"/>
        <path id="Path_226845" data-name="Path 226845" d="M99.9,144.5s4.579,5.1,5.1,6.019c.393,1.047-1.963,1.439-3.4,1.439,0,0,2.224-1.047,1.832-1.57S99.9,144.5,99.9,144.5Z" transform="translate(-33.01 -112.851)" fill="#e96362"/>
        <path id="Path_226846" data-name="Path 226846" d="M101.681,137.5c-1.439.131-2.878.654-2.355,2.093a1.911,1.911,0,0,0,1.832,1.308c.785,0,.523-.523,1.57-1.047C103.644,139.463,102.2,137.5,101.681,137.5Z" transform="translate(-33.221 -115.01)"/>
        <path id="Path_226847" data-name="Path 226847" d="M90.6,143.592c1.57-1.308,5.888-5.5,7.85-3.009a2.289,2.289,0,0,1,.262,2.224c-.393.523-1.57.523-2.224.523a8.91,8.91,0,0,0-4.318,2.093c-.654.523-1.57,1.047-1.963,0A2.271,2.271,0,0,1,90.6,143.592Z" transform="translate(-36.013 -114.298)"/>
        <path id="Path_226848" data-name="Path 226848" d="M97.4,151.2c1.178,2.617,4.579,7.065,7.719,4.056.785-.785.654-1.7.654-2.748h0a.481.481,0,0,0-.393.131,8.255,8.255,0,0,1-4.71-.131C99.755,152.116,98.578,151.723,97.4,151.2Z" transform="translate(-33.781 -110.785)" fill="#fff"/>
        <path id="Path_226849" data-name="Path 226849" d="M95.76,147.172c.785.916,1.832,1.308,2.486.785s.523-1.7-.262-2.617-1.832-1.308-2.486-.785S94.975,146.256,95.76,147.172Z" transform="translate(-34.496 -112.907)"/>
        <path id="Path_226850" data-name="Path 226850" d="M101.616,144.191c.654.916,1.57,1.308,2.224.916s.654-1.439,0-2.355-1.57-1.308-2.224-.916S100.961,143.275,101.616,144.191Z" transform="translate(-32.632 -113.72)"/>
        <path id="Path_226851" data-name="Path 226851" d="M129.673,244.7,123,207.8l10.205,36.9Z" transform="translate(-25.886 -93.331)" fill="#6c0002"/>
        <path id="Path_226852" data-name="Path 226852" d="M59.407,214.84s-11.775-14,1.963-22.373c12.691-7.719,20.018,10.205,28.13,15.962s12.822,12.822,19.887,4.448S127.7,182,127.7,182s10.729,7.327,28.784,10.729c0,0-21.2,45.662-42.653,53.251C94.6,252.652,79.033,240.746,59.407,214.84Z" transform="translate(-46.945 -101.287)" fill="#760103"/>
        <g id="Group_2884" data-name="Group 2884" transform="translate(17.303 90.918)">
          <path id="Path_226853" data-name="Path 226853" d="M103.476,246.06a33.47,33.47,0,0,0,6.149-.523c23.551-4.448,44.746-52.6,45.662-54.69l-2.355-1.047c-.262.523-21.457,48.933-43.7,53.12-24.728,4.71-45.008-23.682-45.139-23.943L62,220.416C62.654,221.594,80.056,246.06,103.476,246.06Z" transform="translate(-62 -189.8)" fill="#470203"/>
        </g>
        <g id="Group_2885" data-name="Group 2885" transform="translate(33.527 80.189)">
          <path id="Path_226854" data-name="Path 226854" d="M96.512,217.973a8.586,8.586,0,0,0,3.009-.523c11.645-4.318,22.9-33.625,23.289-34.934l-2.486-.916c-.131.262-11.252,29.569-21.85,33.364a4.853,4.853,0,0,1-4.448-.262c-12.168-6.542-17.4-14.915-17.4-15.046L74.4,200.964c.262.393,5.626,9.028,18.317,15.962A6.955,6.955,0,0,0,96.512,217.973Z" transform="translate(-74.4 -181.6)" fill="#470203"/>
        </g>
        <path id="Path_226855" data-name="Path 226855" d="M78.6,142.2a7.2,7.2,0,0,1,2.748,1.832c.916,1.047,1.57,2.486.262,3.14-1.178.654-2.224-.654-1.832-1.832C80.3,144.163,78.6,142.2,78.6,142.2Z" transform="translate(-39.578 -113.561)" fill="#e96362"/>
      </g>
      <g id="Group_2978" data-name="Group 2978" transform="translate(759.193 1793.008)">
        <g id="Group_2887" data-name="Group 2887">
          <ellipse id="Ellipse_70" data-name="Ellipse 70" cx="41.345" cy="38.335" rx="41.345" ry="38.335" fill="#fff"/>
          <path id="Path_226856" data-name="Path 226856" d="M130.4,152.321,141.521,127.2l17.794,10.6Z" transform="translate(-125.428 -66.622)" fill="#fff"/>
        </g>
        <g id="Group_2902" data-name="Group 2902" transform="translate(24.885 10.514)">
          <path id="Path_226857" data-name="Path 226857" d="M146.1,105.552s20.018-4.318,31.663,0c0,0-3.009,7.327-15.177,9.159C150.287,116.543,146.1,105.552,146.1,105.552Z" transform="translate(-145.471 -84.404)" fill="#ab3c28"/>
          <path id="Path_226858" data-name="Path 226858" d="M163.057,113.773c1.308-1.57,2.878-2.486,4.318-3.794a9.3,9.3,0,0,0,1.963-1.963c.523-.916-.523-1.047-.916-1.7a1.414,1.414,0,0,1,.916-1.832c.916-.523,1.57-1.047,2.355-1.57.785-.654,1.178-1.047.654-1.963s.131-1.047,1.047-1.439c.523-.262,1.963-1.178.916-1.57-.393-.131-.785.131-.916-.393,0-.393.393-.654.523-1.047.262-.785-.262-1.57-1.047-1.178-.785.523-.262,1.439-1.439,1.57-.785,0-1.439,0-1.439,1.047,0,.916.523,2.224-.916,2.093-.916-.131-1.7-.131-1.7,1.047,0,1.047.785,1.963-.523,2.486-.523.262-.916.262-1.178.785a2.5,2.5,0,0,0-.262,1.7,3.319,3.319,0,0,1,.262,1.57c-.131.916-.654,1.047-1.308,1.439-1.308.785-.785,1.963-1.439,3.14a11.967,11.967,0,0,0-.916,1.832c-.131.785,0,1.047.654.393C163.057,114.165,163.188,113.642,163.057,113.773Z" transform="translate(-140.579 -86.998)" fill="#2e9a13"/>
          <g id="Group_2888" data-name="Group 2888" transform="translate(18.007 5.349)">
            <path id="Path_226859" data-name="Path 226859" d="M159.536,110.394s2.486-8.766,6.8-13.869,6.149-3.663,6.673-1.7c.523,1.832-3.14,9.944-3.925,12.037a88.351,88.351,0,0,1-4.841,10.075C163.069,119.029,158.49,114.45,159.536,110.394Z" transform="translate(-159.382 -93.024)" fill="url(#linear-gradient)"/>
            <path id="Path_226860" data-name="Path 226860" d="M162.022,109.2c1.308-2.486,2.355-5.1,3.663-7.589,1.439-2.748,3.663-7.719,7.327-6.673v-.131c-.523-1.832-2.486-3.4-6.673,1.7s-6.8,13.869-6.8,13.869a6.2,6.2,0,0,0,.785,4.579A13.29,13.29,0,0,1,162.022,109.2Z" transform="translate(-159.382 -93.013)" fill="#e47917" opacity="0.5"/>
            <path id="Path_226861" data-name="Path 226861" d="M165.2,98.3a8.234,8.234,0,0,1,2.617.523c.654.262,1.439,1.439,1.439,1.439s-1.832.654-2.355.262A6.527,6.527,0,0,1,165.2,98.3Z" transform="translate(-157.588 -91.397)" fill="#b85b12"/>
            <path id="Path_226862" data-name="Path 226862" d="M164.1,100.3s2.093.393,2.617.523,1.57,1.57,1.57,1.57a2.413,2.413,0,0,1-2.486,0A4.371,4.371,0,0,1,164.1,100.3Z" transform="translate(-157.927 -90.781)" fill="#b85b12"/>
            <path id="Path_226863" data-name="Path 226863" d="M163,102.6a16.312,16.312,0,0,1,2.355.523,4.065,4.065,0,0,1,1.963,1.963,4.512,4.512,0,0,1-2.617-.131A6.147,6.147,0,0,1,163,102.6Z" transform="translate(-158.266 -90.071)" fill="#b85b12"/>
            <path id="Path_226864" data-name="Path 226864" d="M161.4,105.5a7.823,7.823,0,0,1,3.14.785,2.428,2.428,0,0,1,1.57,1.963,3.557,3.557,0,0,1-2.748-.523A5.259,5.259,0,0,1,161.4,105.5Z" transform="translate(-158.76 -89.177)" fill="#b85b12"/>
            <path id="Path_226865" data-name="Path 226865" d="M165.2,98.3s1.439,1.047,1.963,1.439a5.9,5.9,0,0,0,2.093.523s-1.832.654-2.355.262A6.527,6.527,0,0,1,165.2,98.3Z" transform="translate(-157.588 -91.397)" fill="#d57a11"/>
            <path id="Path_226866" data-name="Path 226866" d="M164.1,100.3a9.49,9.49,0,0,0,1.963,1.439c.523.131,2.355.785,2.355.785a2.413,2.413,0,0,1-2.486,0A4.784,4.784,0,0,1,164.1,100.3Z" transform="translate(-157.927 -90.781)" fill="#d57a11"/>
            <path id="Path_226867" data-name="Path 226867" d="M163,102.6a10.768,10.768,0,0,0,1.963,1.439c.654.262,1.963,0,2.355,1.047a4.512,4.512,0,0,1-2.617-.131A6.147,6.147,0,0,1,163,102.6Z" transform="translate(-158.266 -90.071)" fill="#d57a11"/>
            <path id="Path_226868" data-name="Path 226868" d="M161.4,105.5a9.184,9.184,0,0,0,2.224,1.439,20.308,20.308,0,0,1,2.486,1.439,3.558,3.558,0,0,1-2.748-.523A6.027,6.027,0,0,1,161.4,105.5Z" transform="translate(-158.76 -89.177)" fill="#d57a11"/>
          </g>
          <g id="Group_2889" data-name="Group 2889" transform="translate(2.81 1.977)">
            <path id="Path_226869" data-name="Path 226869" d="M152.627,111.45s-4.318-7.981-4.71-14.654c-.523-6.673,1.963-6.934,3.663-5.888,1.7.916,4.71,9.289,5.626,11.383a91.475,91.475,0,0,1,3.533,10.6C161.131,115.245,154.72,115.114,152.627,111.45Z" transform="translate(-147.742 -90.447)" fill="url(#linear-gradient-2)"/>
            <path id="Path_226870" data-name="Path 226870" d="M153.567,108.947c-.785-2.748-1.832-5.364-2.617-7.981-.916-3.009-2.748-8.112.654-9.944l-.131-.131c-1.7-.916-4.056-.654-3.663,5.888.523,6.673,4.71,14.654,4.71,14.654a6.17,6.17,0,0,0,3.794,2.748A14.308,14.308,0,0,1,153.567,108.947Z" transform="translate(-147.767 -90.43)" fill="#e47917" opacity="0.5"/>
            <path id="Path_226871" data-name="Path 226871" d="M150,97.2a14.608,14.608,0,0,1,2.224-1.57,5.331,5.331,0,0,1,2.093,0s-.785,1.7-1.57,1.832A3.523,3.523,0,0,1,150,97.2Z" transform="translate(-147.078 -88.886)" fill="#b85b12"/>
            <path id="Path_226872" data-name="Path 226872" d="M150.6,99.367s1.832-1.178,2.224-1.439a6.243,6.243,0,0,1,2.224,0,2.713,2.713,0,0,1-1.832,1.7A3.248,3.248,0,0,1,150.6,99.367Z" transform="translate(-146.893 -88.176)" fill="#b85b12"/>
            <path id="Path_226873" data-name="Path 226873" d="M151.4,101.767a9.878,9.878,0,0,1,2.093-1.308,3.951,3.951,0,0,1,2.748,0,5.339,5.339,0,0,1-1.963,1.7A5.075,5.075,0,0,1,151.4,101.767Z" transform="translate(-146.646 -87.436)" fill="#b85b12"/>
            <path id="Path_226874" data-name="Path 226874" d="M152.3,105.008a7.221,7.221,0,0,1,2.748-1.57,2.312,2.312,0,0,1,2.486.393,3.685,3.685,0,0,1-2.355,1.57A4.84,4.84,0,0,1,152.3,105.008Z" transform="translate(-146.369 -86.491)" fill="#b85b12"/>
            <path id="Path_226875" data-name="Path 226875" d="M150,97.17a12.06,12.06,0,0,0,2.355-.393,11.183,11.183,0,0,0,1.832-1.178s-.785,1.7-1.57,1.832A3.226,3.226,0,0,1,150,97.17Z" transform="translate(-147.078 -88.858)" fill="#d57a11"/>
            <path id="Path_226876" data-name="Path 226876" d="M150.6,99.308a21.25,21.25,0,0,0,2.355-.262c.393-.131,2.224-1.047,2.224-1.047a2.713,2.713,0,0,1-1.832,1.7A3.888,3.888,0,0,1,150.6,99.308Z" transform="translate(-146.893 -88.118)" fill="#d57a11"/>
            <path id="Path_226877" data-name="Path 226877" d="M151.4,101.729a14.628,14.628,0,0,0,2.486-.393c.654-.262,1.439-1.308,2.486-.916a5.339,5.339,0,0,1-1.963,1.7A5.355,5.355,0,0,1,151.4,101.729Z" transform="translate(-146.646 -87.399)" fill="#d57a11"/>
            <path id="Path_226878" data-name="Path 226878" d="M152.3,104.878a10,10,0,0,0,2.617-.523,17.988,17.988,0,0,1,2.748-.654,3.685,3.685,0,0,1-2.355,1.57A5.121,5.121,0,0,1,152.3,104.878Z" transform="translate(-146.369 -86.36)" fill="#d57a11"/>
          </g>
          <path id="Path_226879" data-name="Path 226879" d="M159.445,112.44c-.654-1.439.523-3.925,1.047-5.234a2.184,2.184,0,0,0-.131-2.355c-.523-.654-1.047-1.178-.262-1.832,1.832-1.308-.785-2.486-.785-4.056,0-1.047,1.047-.785,1.439-1.57s-.393-1.832.131-2.486c.393-.523.523,0,.916-.131a.984.984,0,0,0,.654-.916c.131-.916-.523-1.7-.523-2.617,0-1.047,1.178-1.047,1.439-.131.131.393.131,1.047.523,1.178.654.131.916-1.178.785-1.57,0-.654-.262-.916.131-1.439.393-.393.916-.523,1.308,0a2.567,2.567,0,0,1,.131,1.963c-.131.393-.916,1.439-.523,1.7.393.393.916-.393,1.439.262s.131,1.439-.393,1.963c-.393.393-1.047.785-.785,1.439s.916.393,1.047,1.178c.262,1.7-2.748,1.57-2.617,3.14,0,.654.916.785,1.178,1.439.262.785-.523,1.308-.916,1.832-.523.393-1.7,1.178-1.57,1.963,0,.654.523,1.178.523,1.832-.131,1.047-1.178,1.963-1.57,3.009-.393.785-.654,1.57-1.57,1.832C159.707,112.963,159.315,112.832,159.445,112.44Z" transform="translate(-141.415 -88.936)" fill="#00b122"/>
          <path id="Path_226880" data-name="Path 226880" d="M163.139,113.335a9.268,9.268,0,0,1-.131-1.963,2.3,2.3,0,0,1,1.178-1.7c.393-.262.916-.654.654-1.308-.131-.262-.523-.393-.654-.654a2.227,2.227,0,0,1-.131-.916c0-.262,0-.785.262-.916.262-.262.523-.131.785-.262.654-.262.654-1.178.785-1.7.131-.654.393-1.308,1.178-.916.654.262.523,1.178.392,1.7-.131.393-.785,1.57-.131,1.7s1.047-1.439,1.047-1.832c0-.785-.262-1.439-.262-2.093,0-.785.785-1.7,1.439-.785.392.393.131,1.963.523,2.093.654.262.785-1.7,1.57-1.832a.887.887,0,0,1,.785,1.439c-.262.523-2.093,1.439-1.832,2.093s1.439-.262,1.308.916-1.57,1.047-2.486,1.047c-.393,0-1.047.262-1.047.654-.131.523.393.131.523.393.916,1.047-1.7,1.178-2.093,1.308a2.16,2.16,0,0,0-1.308,1.308c.131,0,.392.131.523,0,.262.393.131.654-.131,1.047s-.654.523-.916.916c-.262.262-.393.785-.785,1.047C164.317,114.381,163.27,114.251,163.139,113.335Z" transform="translate(-140.268 -85.121)" fill="#00b122"/>
          <g id="Group_2890" data-name="Group 2890" transform="translate(9.264 2.016)">
            <path id="Path_226881" data-name="Path 226881" d="M157.752,96.395c0-1.308,0-4.972,1.308-5.757,1.963-1.178.523,4.448.131,5.234-.131.393-.393,1.178-1.047,1.178S157.36,96.395,157.752,96.395Z" transform="translate(-151.21 -90.477)" fill="#246314"/>
            <path id="Path_226882" data-name="Path 226882" d="M158.588,121.293c-1.832.131-3.533.393-4.71-1.178a7.341,7.341,0,0,1-1.178-4.448c.131-1.047.393-1.963.523-3.009.131-1.57.393-3.14.393-4.71.262-3.925-.654-8.374,1.57-11.906.916-1.57,2.617-3.271,4.448-3.533a5.708,5.708,0,0,1,5.888,3.14c1.832,3.14,1.57,6.673,1.439,10.075A31.926,31.926,0,0,1,165,115.536C163.821,118.676,161.989,120.9,158.588,121.293Z" transform="translate(-152.7 -89.861)" fill="url(#radial-gradient)"/>
            <path id="Path_226883" data-name="Path 226883" d="M154.21,116.605a82.942,82.942,0,0,1,.523-9.944,68.469,68.469,0,0,1,.785-7.458c.131-.916.131-2.486,1.047-2.878,1.57-.654,1.57,1.832,1.57,2.748a65.143,65.143,0,0,1-.523,13.345c-.262,1.439-.393,3.533-1.308,4.71-.262.393-1.178.916-1.57.785C153.948,117.39,154.21,116.082,154.21,116.605Z" transform="translate(-152.247 -88.706)" opacity="0.23" fill="url(#radial-gradient-2)"/>
            <path id="Path_226884" data-name="Path 226884" d="M157.862,116.742a1.106,1.106,0,0,1-.262-.785c0-1.178.916-2.355,1.047-3.533a28.836,28.836,0,0,0,.523-4.71c0-2.878-1.047-5.888-.523-8.766.523-2.486,3.271-4.318,4.056-.785.785,3.794-.393,8.243-1.047,12.037-.393,1.832-.523,5.364-2.093,6.673A1.094,1.094,0,0,1,157.862,116.742Z" transform="translate(-151.189 -88.712)" opacity="0.23" fill="url(#radial-gradient-3)"/>
          </g>
          <g id="Group_2892" data-name="Group 2892" transform="translate(7.072 16.177)">
            <path id="Path_226885" data-name="Path 226885" d="M161.723,102.623h0c0-.131.131-.131.262-.131h.131l-.131-.131h-.262a.481.481,0,0,0,.393-.131h-.523c.131,0,.131-.131.262-.131-.131,0-.262,0-.262.131l-.131.131a.128.128,0,0,0-.131.131l-.131.131a.128.128,0,0,0,.131.131h.262c-.131-.131,0-.131.131-.131Z" transform="translate(-147.887 -101.053)" fill="#cebd33"/>
            <path id="Path_226886" data-name="Path 226886" d="M160.02,107.792c.131-.131.262-.262.392-.262.654-.393,1.308-.916,1.963-1.308a8.76,8.76,0,0,0,2.093-1.57,1.936,1.936,0,0,0-.785-2.878,1.817,1.817,0,0,0-1.439-.262c-.393.131-.785-.131-1.178,0-.131,0-.262.131-.393.262-.393.262-.916.262-1.178.523,0,.131-.131.131-.262.262H159.1c-.393,0-.523.523-.785.523h-.262c-.262,0-.392.393-.654.523s-.393.131-.523.393l-.393.393-.393.393v.131c-.131.131-.393.131-.523.262-.262.131-.262.392-.393.654-.131.131-.393.131-.523.262s-.131.393-.262.523a.481.481,0,0,1-.393.131c-.262.262-.262.654-.523.916-.131.131-.392.262-.523.393v.262c-.131.262-.523.393-.523.654v.262a.128.128,0,0,1-.131.131l-.131.131c-.131.262-.131.523-.262.785a1.806,1.806,0,0,1-.393.523.787.787,0,0,1-.131.523c0,.262-.131.393-.262.654a1.816,1.816,0,0,0,0,1.178,1.486,1.486,0,0,0,.393,1.047,1.7,1.7,0,0,0,2.093.785,2.715,2.715,0,0,0,1.308-.785c.131-.131.131-.393.262-.523s.262-.131.393-.262c.262-.262.262-.523.393-.785s.393-.393.523-.654.131-.654.393-.916l.393-.393c.131-.131.131-.393.262-.523l.393-.393c.131-.131.131-.393.262-.523.262-.262.785-.393.916-.654a.481.481,0,0,0,.131-.393c.131-.262.523-.262.654-.393,0,.262.131.131.131,0a1.806,1.806,0,0,0,.523-.393c0-.131.131-.131.131-.262.131-.131.523-.131.654-.262s.262-.393.393-.523.393-.131.523-.262c.262-.131.523-.523.785-.785.131-.131.392-.131.523-.262l.393-.393Z" transform="translate(-151.025 -101.25)" fill="url(#linear-gradient-3)"/>
            <g id="Group_2891" data-name="Group 2891" transform="translate(0)">
              <path id="Path_226887" data-name="Path 226887" d="M162.244,101.562c-.393.131-.785-.131-1.178,0-.131,0-.262.131-.393.262-.393.262-.916.262-1.178.523,0,.131-.131.131-.262.262H159.1c-.393,0-.523.523-.785.523h-.262c-.262,0-.393.393-.654.523s-.393.131-.523.393l-.393.393-.393.393v.131c-.131.131-.393.131-.523.262-.262.131-.262.393-.393.654-.131.131-.393.131-.523.262s-.131.393-.262.523a.481.481,0,0,1-.393.131c-.262.262-.262.654-.523.916-.131.131-.393.262-.523.393v.262c-.131.262-.523.393-.523.654v.262a.128.128,0,0,1-.131.131l-.131.131c-.131.262-.131.523-.262.785a1.806,1.806,0,0,1-.392.523.787.787,0,0,1-.131.523c0,.262-.131.393-.262.654a1.816,1.816,0,0,0,0,1.178,1.486,1.486,0,0,0,.393,1.047,1.7,1.7,0,0,0,2.093.785,2.715,2.715,0,0,0,1.308-.785c.131-.131.131-.393.262-.523s.262-.131.392-.262c.262-.262.262-.523.393-.785s.392-.393.523-.654.131-.654.393-.916l.393-.393c.131-.131.131-.393.262-.523l.393-.393c.131-.131.131-.393.262-.523.262-.262.785-.393.916-.654a.481.481,0,0,0,.131-.393c.262-.262.523-.131.785-.393.131-.131.131-.393.262-.523.262-.131.523-.131.654-.262,0-.131,0-.131.131-.262.131-.262.523-.131.654-.262s.131-.393.392-.523c.131-.131.393,0,.523-.131.262-.131.262-.523.392-.523h.262c.131,0,.262-.262.393-.393s.262-.131.392-.262a1.821,1.821,0,0,0,.654-1.832,2.6,2.6,0,0,0-1.047-1.57C163.16,101.562,162.637,101.431,162.244,101.562Z" transform="translate(-151.025 -101.3)" fill="url(#linear-gradient-4)"/>
              <path id="Path_226888" data-name="Path 226888" d="M157.5,103.527v.131s.131.131.131,0a.128.128,0,0,0,.131-.131S157.5,103.266,157.5,103.527Z" transform="translate(-149.028 -100.649)" fill="url(#radial-gradient-4)"/>
              <path id="Path_226889" data-name="Path 226889" d="M157,104.836v.131s.131.131.131,0a.128.128,0,0,0,.131-.131C157.262,104.7,157,104.574,157,104.836Z" transform="translate(-149.182 -100.256)" fill="url(#radial-gradient-5)"/>
              <path id="Path_226890" data-name="Path 226890" d="M158.5,102.127v.131s.131.131.131,0a.128.128,0,0,0,.131-.131S158.5,101.866,158.5,102.127Z" transform="translate(-148.72 -101.081)" fill="url(#radial-gradient-6)"/>
              <path id="Path_226891" data-name="Path 226891" d="M156.4,103.536v.131s.131.131.131,0a.128.128,0,0,0,.131-.131C156.662,103.4,156.4,103.274,156.4,103.536Z" transform="translate(-149.368 -100.657)" fill="url(#radial-gradient-7)"/>
              <path id="Path_226892" data-name="Path 226892" d="M157.8,105.436v.131s.131.131.131,0a.128.128,0,0,0,.131-.131C158.193,105.3,157.931,105.174,157.8,105.436Z" transform="translate(-148.936 -100.071)" fill="url(#radial-gradient-8)"/>
              <path id="Path_226893" data-name="Path 226893" d="M155.7,106.927v.131s.131.131.131,0a.128.128,0,0,0,.131-.131C156.092,106.927,155.831,106.666,155.7,106.927Z" transform="translate(-149.583 -99.6)" fill="url(#radial-gradient-9)"/>
              <path id="Path_226894" data-name="Path 226894" d="M151.4,110.314v.131s.131.131.131,0a.128.128,0,0,0,.131-.131C151.793,110.314,151.531,110.183,151.4,110.314Z" transform="translate(-150.909 -98.538)" fill="url(#radial-gradient-10)"/>
              <path id="Path_226895" data-name="Path 226895" d="M159.3,102.336v.131s.131.131.131,0a.128.128,0,0,0,.131-.131C159.562,102.2,159.3,102.074,159.3,102.336Z" transform="translate(-148.473 -101.027)" fill="url(#radial-gradient-11)"/>
              <path id="Path_226896" data-name="Path 226896" d="M160.3,102.214v.131s.131.131.131,0a.128.128,0,0,0,.131-.131C160.693,102.214,160.431,102.083,160.3,102.214Z" transform="translate(-148.165 -101.036)" fill="url(#radial-gradient-12)"/>
              <path id="Path_226897" data-name="Path 226897" d="M159.2,103.414v.131s.131.131.131,0a.128.128,0,0,0,.131-.131C159.593,103.414,159.331,103.283,159.2,103.414Z" transform="translate(-148.504 -100.666)" fill="url(#radial-gradient-13)"/>
              <path id="Path_226898" data-name="Path 226898" d="M153.3,109.036v.131s.131.131.131,0a.128.128,0,0,0,.131-.131C153.562,108.9,153.3,108.774,153.3,109.036Z" transform="translate(-150.323 -98.961)" fill="url(#radial-gradient-14)"/>
              <path id="Path_226899" data-name="Path 226899" d="M154.9,108.014v.131s.131.131.131,0a.128.128,0,0,0,.131-.131S154.9,107.883,154.9,108.014Z" transform="translate(-149.83 -99.248)" fill="url(#radial-gradient-15)"/>
              <path id="Path_226900" data-name="Path 226900" d="M153,110.936v.131s.131.131.131,0a.128.128,0,0,0,.131-.131C153.392,110.8,153.131,110.674,153,110.936Z" transform="translate(-150.416 -98.375)" fill="url(#radial-gradient-16)"/>
              <path id="Path_226901" data-name="Path 226901" d="M155.5,104.536v.131s.131.131.131,0a.128.128,0,0,0,.131-.131C155.893,104.4,155.631,104.274,155.5,104.536Z" transform="translate(-149.645 -100.349)" fill="url(#radial-gradient-17)"/>
              <path id="Path_226902" data-name="Path 226902" d="M154.7,106.136v.131s.131.131.131,0a.128.128,0,0,0,.131-.131C154.962,106,154.7,105.874,154.7,106.136Z" transform="translate(-149.892 -99.855)" fill="url(#radial-gradient-18)"/>
              <path id="Path_226903" data-name="Path 226903" d="M160.8,103.314v.131s.131.131.131,0a.128.128,0,0,0,.131-.131C161.193,103.314,160.931,103.183,160.8,103.314Z" transform="translate(-148.011 -100.697)" fill="url(#radial-gradient-19)"/>
              <path id="Path_226904" data-name="Path 226904" d="M153.5,106.536v.131s.131.131.131,0a.128.128,0,0,0,.131-.131C153.893,106.4,153.631,106.274,153.5,106.536Z" transform="translate(-150.262 -99.732)" fill="url(#radial-gradient-20)"/>
              <path id="Path_226905" data-name="Path 226905" d="M156.5,105.527v.131s.131.131.131,0a.128.128,0,0,0,.131-.131S156.5,105.266,156.5,105.527Z" transform="translate(-149.337 -100.032)" fill="url(#radial-gradient-21)"/>
              <path id="Path_226906" data-name="Path 226906" d="M153.7,107.514v.131s.131.131.131,0a.128.128,0,0,0,.131-.131S153.7,107.383,153.7,107.514Z" transform="translate(-150.2 -99.402)" fill="url(#radial-gradient-22)"/>
              <path id="Path_226907" data-name="Path 226907" d="M152.3,107.914v.131s.131.131.131,0a.128.128,0,0,0,.131-.131S152.3,107.783,152.3,107.914Z" transform="translate(-150.632 -99.278)" fill="url(#radial-gradient-23)"/>
              <path id="Path_226908" data-name="Path 226908" d="M158.6,104.436v.131s.131.131.131,0a.128.128,0,0,0,.131-.131C158.862,104.3,158.6,104.174,158.6,104.436Z" transform="translate(-148.689 -100.38)" fill="url(#radial-gradient-24)"/>
              <path id="Path_226909" data-name="Path 226909" d="M162.244,101.512c-.393.131-.785-.131-1.178,0-.131,0-.262.131-.393.262-.393.262-.916.262-1.178.523,0,.131-.131.131-.262.262H159.1c-.393,0-.523.523-.785.523h-.262c-.262,0-.393.393-.654.523s-.393.131-.523.393l-.393.393-.393.393v.131c-.131.131-.393.131-.523.262-.262.131-.262.393-.393.654-.131.131-.393.131-.523.262s-.131.393-.262.523a.481.481,0,0,1-.393.131c-.262.262-.262.654-.523.916-.131.131-.393.262-.523.393v.262c-.131.262-.523.393-.523.654v.262a.128.128,0,0,1-.131.131l-.131.131c-.131.262-.131.523-.262.785a1.806,1.806,0,0,1-.392.523.787.787,0,0,1-.131.523c0,.262-.131.393-.262.654a1.816,1.816,0,0,0,0,1.178,1.486,1.486,0,0,0,.393,1.047,2.853,2.853,0,0,0,.523.654l-.393-.393a9.018,9.018,0,0,0-.393-1.047c0-.393-.131-.916,0-1.178s.262-.393.262-.654a.787.787,0,0,1,.131-.523,1.806,1.806,0,0,1,.393-.523c.131-.262,0-.523.262-.785l.131-.131.131-.131v-.262c0-.262.393-.393.523-.654v-.262c.131-.262.393-.262.523-.393.262-.262.262-.654.523-.916a.481.481,0,0,1,.393-.131c.131-.131.131-.393.262-.523s.393-.131.523-.262.262-.523.393-.654.393-.131.523-.262v-.131c0-.131.262-.262.393-.393l.393-.393c.131-.131.393-.262.523-.393.262-.131.393-.523.654-.523h.262c.393,0,.523-.523.785-.523h.131c.131,0,.131-.131.262-.262.262-.393.785-.393,1.178-.523.131-.131.262-.131.393-.262.393-.131.785.131,1.178,0,.523-.131.916.131,1.439.262l.131.131c-.131-.131-.262-.262-.393-.262A1.328,1.328,0,0,0,162.244,101.512Z" transform="translate(-151.025 -101.25)" opacity="0.65" fill="url(#linear-gradient-5)"/>
              <path id="Path_226910" data-name="Path 226910" d="M158.3,106Z" transform="translate(-148.782 -99.851)" fill="#fff"/>
            </g>
            <path id="Path_226911" data-name="Path 226911" d="M164.022,102.908c0,.131,0,.262-.131.262s-.262,0-.262.131l-.131.131a1.306,1.306,0,0,1-.523.654c-.131,0-.131,0-.262.131-.262.131-.262.523-.654.654h-.393c-.262.131-.262.523-.523.523h-.262c-.262,0-.393.393-.654.654s-.654.131-.916.393l-.393.393c-.262.131-.654.131-.785.262s-.131.262-.262.393-.523,0-.654.131-.131.262-.262.393-.393.262-.523.393-.131.393-.262.654c-.131.393-.654.523-.785.916-.131.262-.131.785-.523.916-.131,0-.131.131-.262.131-.262.131-.262.523-.393.785s-.523.393-.654.785c-.131.131-.131.392-.262.523a.68.68,0,0,1-.523.262c-.262.131-.392.523-.654.654-.262.262-.654,0-.916.262a2.1,2.1,0,0,0,1.963.523,2.715,2.715,0,0,0,1.308-.785c.131-.131.131-.393.262-.523s.262-.131.393-.262c.262-.262.262-.523.393-.785s.393-.393.523-.654.131-.654.393-.916l.393-.393c.131-.131.131-.393.262-.523l.393-.393c.131-.131.131-.393.262-.523.262-.262.785-.393.916-.654a.481.481,0,0,0,.131-.392c.262-.262.523-.131.785-.393.131-.131.131-.393.262-.523.262-.131.523-.131.654-.262,0-.131,0-.131.131-.262.131-.262.523-.131.654-.262s.131-.393.392-.523c.131-.131.393,0,.523-.131.262-.131.262-.523.393-.523h.262c.131,0,.262-.262.393-.393s.262-.131.392-.262a1.821,1.821,0,0,0,.654-1.832c0-.131-.131-.393-.131-.523a1.021,1.021,0,0,0-.523-.523c.262.785.262.916.392,1.308Z" transform="translate(-150.971 -101.207)" fill="#30791a" opacity="0.43"/>
          </g>
          <g id="Group_2894" data-name="Group 2894" transform="translate(0 14.214)">
            <g id="Group_2893" data-name="Group 2893">
              <path id="Path_226912" data-name="Path 226912" d="M148.734,99.931a3.469,3.469,0,0,1,.785.654c.393.393.785,1.047,1.178,1.439-.131.262-.523.262-.785.523a.68.68,0,0,1-.523.262c-.262,0-.523-.131-.654,0v-.916c0-.523-.131-1.308-.785-1.439h-.393a19.573,19.573,0,0,0-1.439,1.7c-.393-.393-.654-1.047-.393-1.178.131,0,1.7-1.178,1.832-1.178A3.622,3.622,0,0,1,148.734,99.931Z" transform="translate(-145.619 -99.8)" fill="url(#linear-gradient-6)"/>
              <path id="Path_226913" data-name="Path 226913" d="M148.471,102.292c-.131.131-.131.262-.262.393-.393.262-.785.131-1.178.393a1.244,1.244,0,0,0-.523,1.308,2.325,2.325,0,0,0,.523,1.308c.785,1.308,1.57,2.486,2.355,3.794a6.468,6.468,0,0,0,2.093,2.486,1.393,1.393,0,0,0,1.7.131c.131-.131.262-.393.393-.523l.785-1.178a5.686,5.686,0,0,0,.523-.916,2.229,2.229,0,0,0,0-1.308,21.194,21.194,0,0,0-1.178-4.972,4.959,4.959,0,0,0-.785-1.7,1.39,1.39,0,0,0-1.7-.262,1.68,1.68,0,0,1-1.308.523A1.307,1.307,0,0,0,148.471,102.292Z" transform="translate(-145.356 -99.414)" fill="url(#radial-gradient-25)"/>
            </g>
            <path id="Path_226914" data-name="Path 226914" d="M153.08,102.2a25.04,25.04,0,0,1,.785,5.364v.785a.281.281,0,0,1-.262.262c-.131,0-.262-.131-.393-.262-.916-1.178-1.439-2.748-2.355-3.925.393,1.178.916,2.355,1.308,3.533a1.179,1.179,0,0,1,.131.654c0,.262,0,.523-.262.654a.457.457,0,0,1-.262.131.128.128,0,0,1-.131-.131,3.469,3.469,0,0,1-.785-.654,12.072,12.072,0,0,1-.654-1.047.992.992,0,0,1-.262-.523c-.262-.262-.393-.654-.654-.916,0,.131.131.262.131.393.131.393.392.785.523,1.178a1.847,1.847,0,0,1,.131,1.178V109c0,.131-1.439-1.963-1.963-2.486a22.2,22.2,0,0,1-1.308-1.832c.654,1.047,1.832,3.009,2.486,3.925a3.978,3.978,0,0,0,.654.916,3.894,3.894,0,0,0,2.224,1.832h.523a1.2,1.2,0,0,0,.785-.523,4.84,4.84,0,0,0,1.178-3.533A21.091,21.091,0,0,0,153.08,102.2Z" transform="translate(-145.255 -99.06)" opacity="0.8" fill="url(#radial-gradient-26)"/>
            <path id="Path_226915" data-name="Path 226915" d="M147.616,103.126c-.262,0-.523-.131-.785.131a.787.787,0,0,0-.131.523.481.481,0,0,0,.131.393.405.405,0,0,0,.262.131,2.881,2.881,0,0,0,1.047-.131c.262-.131.393-.262.654-.262.131,0,.131,0,.262.131a.787.787,0,0,0,.523-.131c.131-.131.131-.262.262-.523a2.226,2.226,0,0,0-.131-.916C148.793,101.556,148.27,102.995,147.616,103.126Z" transform="translate(-145.286 -99.07)" fill="#e54133" opacity="0.65"/>
            <path id="Path_226916" data-name="Path 226916" d="M149.7,102.06a.549.549,0,0,0-.393.785.876.876,0,0,0,.523.916.787.787,0,0,0,.523-.131l.785-.393c.262-.131.654-.262.785-.523,0-.131.131-.262.131-.393.131-.654-.262-1.047-.916-.916A3.679,3.679,0,0,0,149.7,102.06Z" transform="translate(-144.496 -99.313)" fill="#e54133" opacity="0.65"/>
            <path id="Path_226917" data-name="Path 226917" d="M149.514,102.435h0c-.131.262,0,.262,0,.393a.128.128,0,0,0,.131.131h.262a2.108,2.108,0,0,0,.916-.523l.131-.131v-.131C150.56,101.519,149.775,102.042,149.514,102.435Z" transform="translate(-144.437 -99.164)" fill="#e54133" opacity="0.65"/>
          </g>
          <g id="Group_2896" data-name="Group 2896" transform="translate(16.166 18.139)">
            <path id="Path_226918" data-name="Path 226918" d="M162.054,102.8h-.262a.481.481,0,0,0-.393.131,4.3,4.3,0,0,1,.131,2.224c.131,0,.393.131.523.131a7.92,7.92,0,0,0,0-2.486Z" transform="translate(-156.919 -102.8)" fill="url(#radial-gradient-27)"/>
            <g id="Group_2895" data-name="Group 2895" transform="translate(0 0.131)">
              <path id="Path_226919" data-name="Path 226919" d="M160.07,104.258a3.188,3.188,0,0,0-1.963,2.617,3.642,3.642,0,0,0,.916,3.009,4.494,4.494,0,0,0,2.878,1.57,3.622,3.622,0,0,0,1.178.131,3.864,3.864,0,0,0,3.14-2.486,4.23,4.23,0,0,0,.393-2.224,2.544,2.544,0,0,0-1.178-1.832c-.785-.393-1.57-.393-2.355-.785A4.7,4.7,0,0,0,160.07,104.258Z" transform="translate(-157.945 -102.558)" fill="#b82601"/>
              <path id="Path_226920" data-name="Path 226920" d="M166.381,107.409h0a3.627,3.627,0,0,1-2.748,2.224h-.916a4.607,4.607,0,0,1-2.486-1.308,3.3,3.3,0,0,1-.785-2.617,3.918,3.918,0,0,1,.523-1.308h0a3.188,3.188,0,0,0-1.963,2.617,3.642,3.642,0,0,0,.916,3.009,4.494,4.494,0,0,0,2.878,1.57,3.623,3.623,0,0,0,1.178.131,3.864,3.864,0,0,0,3.14-2.486A12.19,12.19,0,0,0,166.381,107.409Z" transform="translate(-157.975 -102.437)" fill="#b82601"/>
              <path id="Path_226921" data-name="Path 226921" d="M162.317,104.6c-.262-.131-.392-.131-.523-.393-.131-.131-.131-.393-.262-.523a.128.128,0,0,1-.131-.131.68.68,0,0,1-.262-.523.481.481,0,0,1-.131.393.68.68,0,0,0,.262.523c.131.131.262.393.393.523a2.11,2.11,0,0,1-1.178.393,1.66,1.66,0,0,1-.785-.131,2.63,2.63,0,0,0,1.047.523,2.551,2.551,0,0,0,1.047-.131c.131,0,.393-.131.393-.262a2.11,2.11,0,0,0,.393,1.178,1.486,1.486,0,0,0,1.047.393,1.306,1.306,0,0,1-.523-.654c-.131-.262-.393-.654-.523-.916.131.131.262.262.392.262a2.426,2.426,0,0,0,.916.262.932.932,0,0,0,.785-.393,3.539,3.539,0,0,1-1.963-.393.867.867,0,0,0,.916-.262c.131-.131.131-.262.262-.523a2.226,2.226,0,0,0,.131-.916,1.807,1.807,0,0,1-.393.523,1.806,1.806,0,0,0-.393.523c0,.131,0,.131-.131.262s-.131.131-.262.131-.262.131-.523.131c-.131,0-.393,0-.393-.131Z" transform="translate(-157.444 -102.9)" fill="url(#radial-gradient-28)"/>
            </g>
            <path id="Path_226922" data-name="Path 226922" d="M161.8,105.754c-.262.131-.654.262-.785.523a.867.867,0,0,0,.262.916,1.131,1.131,0,0,0,.785.393,3.221,3.221,0,0,0,1.57.131c.523-.131,1.047-.523,1.047-1.047v-.262c-.131-.523-.523-1.308-1.178-1.308a1.86,1.86,0,0,0-.785.262C162.582,105.623,162.19,105.623,161.8,105.754Z" transform="translate(-157.055 -102.091)" fill="#e84133" opacity="0.44"/>
            <path id="Path_226923" data-name="Path 226923" d="M160.751,104.444a.575.575,0,0,0-.654-.131.281.281,0,0,0-.262.262,1,1,0,0,0,0,1.047.869.869,0,0,0,.654.523c.262,0,.654-.131.654-.393C161.144,105.229,161.144,104.705,160.751,104.444Z" transform="translate(-157.448 -102.35)" fill="#e84133" opacity="0.44"/>
          </g>
          <path id="Path_226924" data-name="Path 226924" d="M150.156,139.249c-2.617-.785-3.925-.785-3.663-7.981s.131-15.831,0-18.579-.393-7.589-.393-7.589,3.533.654,4.71,1.439,4.187,2.748,5.364,2.748,5.1-1.178,7.065-.916,4.71,2.093,6.934.785a6.453,6.453,0,0,1,3.925-1.439c1.047-.262,1.047-2.224,3.794-2.617,0,0-.785,9.42-.916,12.953s-.523,9.551-.523,12.822.262,6.149-2.486,7.589C171.09,139.772,159.445,142,150.156,139.249Z" transform="translate(-145.471 -83.952)" fill="url(#linear-gradient-7)"/>
          <path id="Path_226925" data-name="Path 226925" d="M171.76,108.024c-1.832,2.224-3.4,4.056-6.019,5.364-1.178.654-2.878,1.178-3.925,2.093-1.832,1.57.654,1.308,1.832,1.439,2.093.262,3.925,1.963,2.878,4.056a4.434,4.434,0,0,1-1.963,1.832c-.131.131-2.486,1.308-2.748,1.439,2.355.523,3.794,1.439,4.056,2.093a3.8,3.8,0,0,1-.262,3.14c-.916,1.7-3.009,2.748-4.71,3.794,0,.262.393.262,1.047.393a4.131,4.131,0,0,1,2.486.916,3.615,3.615,0,0,1,.393,4.841,18.687,18.687,0,0,0,4.448-1.308c2.748-1.439,2.486-4.318,2.486-7.589s.393-9.289.523-12.822c.131-2.878.654-9.42.916-11.906A9.311,9.311,0,0,1,171.76,108.024Z" transform="translate(-140.907 -83.736)" fill="#d6ab8b" opacity="0.55"/>
          <path id="Path_226926" data-name="Path 226926" d="M156.86,138.594a15.411,15.411,0,0,1,3.271-2.486c.523-.392.654-.654.654-.916a12.755,12.755,0,0,0-2.878-1.047,2.949,2.949,0,0,1-1.963-1.963,2.423,2.423,0,0,1,1.57-2.878c1.439-.523,8.374-.523,9.159-2.617-1.57-.523-3.925-.393-5.364-.523a8.246,8.246,0,0,1-3.925-.916,2.653,2.653,0,0,1-.393-4.187c1.047-1.047,2.748-1.047,4.056-1.308,1.832-.262.654-.654-.654-1.178a19.574,19.574,0,0,0-3.794-.785c-1.963-.262-3.925-.654-5.364-2.093a10.957,10.957,0,0,1-2.617-6.019c-.262-1.963-1.57-3.009-2.355-4.579H146s.262,4.841.393,7.589.262,11.383,0,18.579,1.047,7.2,3.663,7.981a27.123,27.123,0,0,0,5.5,1.047C156.075,139.772,156.336,139.118,156.86,138.594Z" transform="translate(-145.502 -83.952)" fill="#d6ab8b" opacity="0.55"/>
          <path id="Path_226927" data-name="Path 226927" d="M177.27,106.77c-1.047,1.439-3.009,2.878-3.533,4.579-.393,1.7,0,3.663.131,5.364a11.275,11.275,0,0,1-.785,5.5c-.785,1.7-2.093,2.617-2.093,4.579a12.77,12.77,0,0,1-.262,4.972,9.744,9.744,0,0,1-7.458,6.542c-3.14.523-7.327.131-9.682-2.224-2.486-2.486-2.093-6.019-2.224-9.159a21.913,21.913,0,0,0-1.57-6.411c-.523-1.832,0-3.533,0-5.364,0-3.663-1.57-6.934-3.533-9.944H146s.262,4.841.393,7.589.262,11.383,0,18.579,1.047,7.2,3.663,7.981c9.29,2.748,20.934.523,23.682-.785,2.748-1.439,2.486-4.318,2.486-7.589s.393-9.289.523-12.822c.131-2.878.654-9.42.916-11.906A2.44,2.44,0,0,0,177.27,106.77Z" transform="translate(-145.502 -83.921)" opacity="0.32" fill="url(#linear-gradient-8)"/>
          <g id="Group_2898" data-name="Group 2898" transform="translate(8.479 36.195)">
            <g id="Group_2897" data-name="Group 2897">
              <path id="Path_226928" data-name="Path 226928" d="M155.24,116.8v.785h-2.093v1.047h1.963v.785h-1.963v1.7H152.1V116.8Z" transform="translate(-152.1 -116.538)" fill="#fac515"/>
              <path id="Path_226929" data-name="Path 226929" d="M158.363,119.2a1.837,1.837,0,1,1-1.832-1.7A1.685,1.685,0,0,1,158.363,119.2Zm-2.617,0a.875.875,0,0,0,.785.916c.523,0,.785-.393.785-.916a.875.875,0,0,0-.785-.916C156.008,118.285,155.747,118.678,155.747,119.2Z" transform="translate(-151.298 -116.322)" fill="#fac515"/>
              <path id="Path_226930" data-name="Path 226930" d="M161.363,119.2a1.837,1.837,0,1,1-1.832-1.7A1.685,1.685,0,0,1,161.363,119.2Zm-2.617,0a.875.875,0,0,0,.785.916c.523,0,.785-.393.785-.916a.875.875,0,0,0-.785-.916C159.008,118.285,158.747,118.678,158.747,119.2Z" transform="translate(-150.373 -116.322)" fill="#fac515"/>
              <path id="Path_226931" data-name="Path 226931" d="M164.333,116.6v4.579h-.916v-.523a1.19,1.19,0,0,1-1.047.523,1.706,1.706,0,0,1,0-3.4,1.062,1.062,0,0,1,1.047.523v-1.7Zm-.916,2.878a.875.875,0,0,0-.785-.916c-.523,0-.785.393-.785.916a.794.794,0,1,0,1.57,0Z" transform="translate(-149.417 -116.6)" fill="#fac515"/>
            </g>
          </g>
          <g id="Group_2899" data-name="Group 2899" transform="translate(0.76 20.756)">
            <path id="Path_226932" data-name="Path 226932" d="M167.919,110.3a5.377,5.377,0,0,1-3.009-.916c-1.7-.916-5.1-.262-7.065.262a1.945,1.945,0,0,1-.785.131c-1.832.393-4.71-1.7-6.28-2.748-.262-.131-.393-.262-.654-.393a14.571,14.571,0,0,0-3.925-1.047l.131-.785a13.375,13.375,0,0,1,4.318,1.178,2.86,2.86,0,0,0,.654.393c1.308.916,4.187,2.878,5.757,2.617.262,0,.523-.131.785-.131,2.224-.523,5.626-1.178,7.589-.131s3.794,1.047,5.233-.131a4.919,4.919,0,0,1,2.355-.916c.393,0,.654,0,.785-.131a9.992,9.992,0,0,0,1.178-1.178l.523-.523a4.033,4.033,0,0,1,2.355-.916v.785a2.977,2.977,0,0,0-1.832.785c-.131,0-.262.262-.393.393a12.336,12.336,0,0,1-1.308,1.308,3.84,3.84,0,0,1-1.308.393,2.686,2.686,0,0,0-1.963.654A5.324,5.324,0,0,1,167.919,110.3Z" transform="translate(-146.2 -104.8)" fill="#835545"/>
          </g>
          <g id="Group_2900" data-name="Group 2900" transform="translate(9.75 4.401)">
            <path id="Path_226933" data-name="Path 226933" d="M153.894,109.44h-.785v-2.224c-.131-5.364-.262-13.476,6.149-14.916l.131.785c-5.757,1.439-5.626,8.766-5.5,14.13Z" transform="translate(-153.072 -92.3)" fill="#835545"/>
          </g>
          <g id="Group_2901" data-name="Group 2901" transform="translate(23.002 11.074)">
            <path id="Path_226934" data-name="Path 226934" d="M163.985,106.951l-.785-.131a27.339,27.339,0,0,0,0-9.289l.785-.131A29.131,29.131,0,0,1,163.985,106.951Z" transform="translate(-163.2 -97.4)" fill="#835545"/>
          </g>
        </g>
      </g>
    </g>
  </g>
</svg>
