<svg xmlns="http://www.w3.org/2000/svg" width="16" height="15.984" viewBox="0 0 16 15.984">
  <path id="clock_2_" data-name="clock (2)" d="M8,16.234A8,8,0,1,1,13.657,2.577,8.013,8.013,0,0,1,8,16.234ZM8,1.484a6.75,6.75,0,1,0,6.75,6.75A6.758,6.758,0,0,0,8,1.484Zm2.911,8.777L8.936,8.286a.938.938,0,0,0-.311-.751c0-.007,0-.013,0-.02V3.859a.625.625,0,0,0-1.25,0V7.515c0,.007,0,.013,0,.02A.939.939,0,0,0,8.052,9.17l1.975,1.975a.625.625,0,0,0,.884-.884Z" transform="translate(0 -0.25)" fill="#fff"/>
</svg>
