<svg xmlns="http://www.w3.org/2000/svg" xmlns:xlink="http://www.w3.org/1999/xlink" width="211" height="207" viewBox="0 0 211 207">
  <defs>
    <clipPath id="clip-path">
      <ellipse id="Ellipse_77" data-name="Ellipse 77" cx="105.5" cy="103.5" rx="105.5" ry="103.5" transform="translate(1136 928)" fill="#fff" stroke="#707070" stroke-width="1"/>
    </clipPath>
    <linearGradient id="linear-gradient" x1="-6.862" y1="-2.422" x2="-6.32" y2="-2.535" gradientUnits="objectBoundingBox">
      <stop offset="0.143" stop-color="#ec940e"/>
      <stop offset="1" stop-color="#f6ca7f"/>
    </linearGradient>
    <linearGradient id="linear-gradient-2" x1="0.236" y1="0.556" x2="0.815" y2="0.44" xlink:href="#linear-gradient"/>
    <radialGradient id="radial-gradient" cx="0.604" cy="0.328" r="0.56" gradientUnits="objectBoundingBox">
      <stop offset="0.062" stop-color="#f6ad09"/>
      <stop offset="1" stop-color="#db7009"/>
    </radialGradient>
    <radialGradient id="radial-gradient-2" cx="1.281" cy="-0.168" r="0.945" xlink:href="#radial-gradient"/>
    <radialGradient id="radial-gradient-3" cx="0.128" cy="-0.175" r="0.973" xlink:href="#radial-gradient"/>
    <linearGradient id="linear-gradient-3" x1="-1.143" y1="14.77" x2="0.045" y2="14.77" gradientUnits="objectBoundingBox">
      <stop offset="0" stop-color="#30791a"/>
      <stop offset="1" stop-color="#54ae4f"/>
    </linearGradient>
    <linearGradient id="linear-gradient-4" x1="-1.146" y1="14.77" x2="0.037" y2="14.77" xlink:href="#linear-gradient-3"/>
    <radialGradient id="radial-gradient-4" cx="0.407" cy="0.52" r="0.566" gradientUnits="objectBoundingBox">
      <stop offset="0" stop-color="#30791a"/>
      <stop offset="1" stop-color="#499e3f"/>
    </radialGradient>
    <radialGradient id="radial-gradient-5" cx="0.485" cy="0.473" r="0.542" xlink:href="#radial-gradient-4"/>
    <radialGradient id="radial-gradient-6" cx="0.45" cy="0.454" r="0.542" xlink:href="#radial-gradient-4"/>
    <radialGradient id="radial-gradient-7" cx="0.403" cy="0.454" r="0.542" xlink:href="#radial-gradient-4"/>
    <radialGradient id="radial-gradient-8" cx="0.487" cy="0.567" r="0.566" xlink:href="#radial-gradient-4"/>
    <radialGradient id="radial-gradient-9" cx="0.431" cy="0.554" r="0.612" xlink:href="#radial-gradient-4"/>
    <radialGradient id="radial-gradient-10" cx="0.521" cy="0.514" r="0.566" xlink:href="#radial-gradient-4"/>
    <radialGradient id="radial-gradient-11" cx="0.386" cy="0.523" r="0.566" xlink:href="#radial-gradient-4"/>
    <radialGradient id="radial-gradient-12" cx="0.436" cy="0.474" r="0.542" xlink:href="#radial-gradient-4"/>
    <radialGradient id="radial-gradient-13" cx="0.478" cy="0.531" r="0.612" xlink:href="#radial-gradient-4"/>
    <radialGradient id="radial-gradient-14" cx="0.396" cy="0.54" r="0.612" xlink:href="#radial-gradient-4"/>
    <radialGradient id="radial-gradient-15" cx="0.541" cy="0.469" r="0.566" xlink:href="#radial-gradient-4"/>
    <radialGradient id="radial-gradient-16" cx="0.481" cy="0.54" r="0.566" xlink:href="#radial-gradient-4"/>
    <radialGradient id="radial-gradient-17" cx="0.435" cy="0.446" r="0.542" xlink:href="#radial-gradient-4"/>
    <radialGradient id="radial-gradient-18" cx="0.476" cy="0.551" r="0.566" xlink:href="#radial-gradient-4"/>
    <radialGradient id="radial-gradient-19" cx="0.515" cy="0.537" r="0.612" xlink:href="#radial-gradient-4"/>
    <radialGradient id="radial-gradient-20" cx="0.463" cy="0.446" r="0.542" xlink:href="#radial-gradient-4"/>
    <radialGradient id="radial-gradient-21" cx="0.434" cy="0.501" r="0.566" xlink:href="#radial-gradient-4"/>
    <radialGradient id="radial-gradient-22" cx="0.391" cy="0.541" r="0.566" xlink:href="#radial-gradient-4"/>
    <radialGradient id="radial-gradient-23" cx="0.389" cy="0.494" r="0.566" xlink:href="#radial-gradient-4"/>
    <radialGradient id="radial-gradient-24" cx="0.535" cy="0.455" r="0.542" xlink:href="#radial-gradient-4"/>
    <linearGradient id="linear-gradient-5" x1="-1.215" y1="15.042" x2="0.04" y2="15.042" xlink:href="#linear-gradient-3"/>
    <linearGradient id="linear-gradient-6" x1="-282.063" y1="3685.235" x2="-280.933" y2="3685.235" xlink:href="#linear-gradient-3"/>
    <linearGradient id="linear-gradient-7" x1="5.121" y1="19.553" x2="5.893" y2="20.191" gradientUnits="objectBoundingBox">
      <stop offset="0" stop-color="#235717"/>
      <stop offset="0.511" stop-color="#1f773e"/>
      <stop offset="1" stop-color="#468e3c"/>
    </linearGradient>
    <radialGradient id="radial-gradient-25" cx="0.589" cy="0.527" r="0.413" gradientUnits="objectBoundingBox">
      <stop offset="0.489" stop-color="#bf0031"/>
      <stop offset="1" stop-color="#a90031"/>
    </radialGradient>
    <radialGradient id="radial-gradient-26" cx="0.608" cy="0.546" r="0.423" xlink:href="#radial-gradient-25"/>
    <radialGradient id="radial-gradient-27" cx="-1.306" cy="-0.465" r="1.565" gradientUnits="objectBoundingBox">
      <stop offset="0" stop-color="#1d8426"/>
      <stop offset="1" stop-color="#237918"/>
    </radialGradient>
    <radialGradient id="radial-gradient-28" cx="0.542" cy="0.433" r="0.629" xlink:href="#radial-gradient-27"/>
    <linearGradient id="linear-gradient-8" x1="0.494" y1="0.221" x2="0.461" y2="1.498" gradientUnits="objectBoundingBox">
      <stop offset="0.143" stop-color="#d6ab8b"/>
      <stop offset="1" stop-color="#c68454"/>
    </linearGradient>
    <linearGradient id="linear-gradient-9" x1="0.526" y1="0.175" x2="0.371" y2="1.813" gradientUnits="objectBoundingBox">
      <stop offset="0" stop-color="#cba489"/>
      <stop offset="0.992" stop-color="#b9835f"/>
    </linearGradient>
    <linearGradient id="linear-gradient-10" x1="0.546" y1="0.179" x2="0.352" y2="1.74" xlink:href="#linear-gradient-9"/>
  </defs>
  <g id="Mask_Group_2" data-name="Mask Group 2" transform="translate(-1136 -928)" clip-path="url(#clip-path)">
    <g id="Group_2977" data-name="Group 2977" transform="translate(407.374 -780.115)">
      <rect id="Rectangle_188" data-name="Rectangle 188" width="210.91" height="219.546" transform="translate(728.626 1708.115)" fill="#ffc1a6"/>
      <g id="Group_2967" data-name="Group 2967" transform="translate(751.992 1766.076)">
        <path id="Path_227186" data-name="Path 227186" d="M489.253,141.5H476.17s5.757,15.57-15.57,24.6c0,0,7.85,14.915,22.242,14.915S505.085,166.1,505.085,166.1C483.5,157.2,489.253,141.5,489.253,141.5Z" transform="translate(-402.846 -103.557)" fill="#fca694"/>
        <path id="Path_227187" data-name="Path 227187" d="M472.1,152.621c4.318,2.224,9.289,2.093,14.13.131a17.553,17.553,0,0,1-.523-11.252H472.492A15.689,15.689,0,0,1,472.1,152.621Z" transform="translate(-399.3 -103.557)" fill="#e96362"/>
        <path id="Path_227188" data-name="Path 227188" d="M472.029,134.962s-3.009-3.009-5.626-1.57,1.439,8.112,2.878,8.374C470.589,142.027,473.86,141.5,472.029,134.962Z" transform="translate(-401.322 -106.178)" fill="#fca694"/>
        <path id="Path_227189" data-name="Path 227189" d="M484.513,134.962s3.009-3.009,5.626-1.57-1.439,8.112-2.878,8.374C486.083,142.027,482.812,141.5,484.513,134.962Z" transform="translate(-395.62 -106.178)" fill="#fca694"/>
        <path id="Path_227190" data-name="Path 227190" d="M489.01,135.478c0-.262,0-.523-.262-.654a1.659,1.659,0,0,0-.785-.131c-.262,0-.392.262-.654.262-.131,0-.131,0-.262-.131-.262-.131-.392-.131-.654-.262-.131,0-.262-.131-.393-.131l-.262-.131c-.262.131-.523.131-.785.262l-.262.262c-.131.654-.262,1.308-.392,1.832v.785a1.86,1.86,0,0,0,.262.785c.131.262.393.393.523.654.262.262.654.262,1.047.393a1.324,1.324,0,0,0,.916-.523,13.693,13.693,0,0,0,1.047-1.439,4.029,4.029,0,0,0,.654-1.57C489.01,135.608,489.01,135.608,489.01,135.478Z" transform="translate(-395.538 -105.777)" fill="#e96362"/>
        <path id="Path_227191" data-name="Path 227191" d="M466.9,135.478c0-.262,0-.523.262-.654a1.659,1.659,0,0,1,.785-.131c.262,0,.392.262.654.262.131,0,.131,0,.262-.131.262-.131.392-.131.654-.262.131,0,.262-.131.393-.131l.262-.131c.262.131.523.131.785.262l.262.262c.131.654.262,1.308.392,1.832v.785a1.86,1.86,0,0,1-.262.785c-.131.262-.393.393-.523.654-.262.262-.654.262-1.047.393a1.324,1.324,0,0,1-.916-.523,13.7,13.7,0,0,1-1.047-1.439,4.029,4.029,0,0,1-.654-1.57C466.9,135.608,466.9,135.608,466.9,135.478Z" transform="translate(-400.903 -105.777)" fill="#e96362"/>
        <path id="Path_227192" data-name="Path 227192" d="M494.028,125.049c-1.439-3.009-13.215-2.748-13.215-2.748s-11.775-.262-13.215,2.748-.916,8.766.654,13.869,3.794,13.869,12.56,13.869c8.5,0,10.99-8.766,12.56-13.869C494.944,133.946,495.467,128.058,494.028,125.049Z" transform="translate(-400.948 -109.479)" fill="#fca694"/>
        <path id="Path_227193" data-name="Path 227193" d="M485.656,138.331h0a2.091,2.091,0,0,0,.654,1.308,3.6,3.6,0,0,0,1.963,1.047c.131-.523.393-1.178.523-1.7,1.57-5.1,2.094-10.99.654-13.869-.785-1.57-4.579-2.224-7.85-2.617,1.832,1.832,4.449,5.1,4.972,7.589C487.1,132.967,485.656,135.322,485.656,138.331Z" transform="translate(-396.37 -109.416)" fill="#041c54"/>
        <path id="Path_227194" data-name="Path 227194" d="M471.293,138.331h0a2.091,2.091,0,0,1-.654,1.308,3.6,3.6,0,0,1-1.963,1.047c-.131-.523-.392-1.178-.523-1.7-1.57-5.1-2.093-10.99-.654-13.869.785-1.57,4.579-2.224,7.85-2.617-1.832,1.832-4.448,5.1-4.972,7.589C469.985,132.967,471.424,135.322,471.293,138.331Z" transform="translate(-400.979 -109.416)" fill="#041c54"/>
        <path id="Path_227195" data-name="Path 227195" d="M484.935,127.7c-.262-.131-.654-.262-.916-.393a4.733,4.733,0,0,0-3.271-.262c-.785.262-1.439.785-.785,1.57.523.654,1.439.523,2.224.523.523,0,1.047.131,1.57.131a4.639,4.639,0,0,1,1.439.393c.262,0,.523.131.785-.131.262-.523-.262-1.047-.523-1.439C485.2,127.831,485.066,127.831,484.935,127.7Z" transform="translate(-396.957 -108.074)" fill="#041c54"/>
        <path id="Path_227196" data-name="Path 227196" d="M471.564,127.7c.262-.131.654-.262.916-.393a4.732,4.732,0,0,1,3.271-.262c.785.262,1.439.785.785,1.57-.523.654-1.439.523-2.224.523-.523,0-1.047.131-1.57.131a4.638,4.638,0,0,0-1.439.393c-.262,0-.523.131-.785-.131-.262-.523.262-1.047.523-1.439A5.211,5.211,0,0,1,471.564,127.7Z" transform="translate(-399.81 -108.074)" fill="#041c54"/>
        <path id="Path_227197" data-name="Path 227197" d="M475.155,132.639a1.2,1.2,0,1,1-1.177-1.439A1.332,1.332,0,0,1,475.155,132.639Z" transform="translate(-399.084 -106.733)" fill="#041c54"/>
        <path id="Path_227198" data-name="Path 227198" d="M482.655,132.639a1.2,1.2,0,1,1-1.177-1.439A1.332,1.332,0,0,1,482.655,132.639Z" transform="translate(-396.771 -106.733)" fill="#041c54"/>
        <path id="Path_227199" data-name="Path 227199" d="M477.678,132.1a42.111,42.111,0,0,1-1.047,4.841,3.956,3.956,0,0,0-.523,2.093c.131.393,2.093.523,3.533,0,0,0-2.486-.262-2.486-.523C477.024,138.119,478.071,135.24,477.678,132.1Z" transform="translate(-398.074 -106.456)" fill="#e96362"/>
        <path id="Path_227200" data-name="Path 227200" d="M474.6,138.1s2.617,1.832,3.925,1.832,3.4-1.57,3.663-1.832c0,0-.393,4.841-3.533,4.841C475.123,142.81,474.6,138.1,474.6,138.1Z" transform="translate(-398.529 -104.606)" fill="#fff"/>
        <path id="Path_227201" data-name="Path 227201" d="M489.072,115.509c-1.047-3.009-5.233-3.009-9.028-3.009s-7.981.131-9.028,3.009c-1.047,3.009-2.617,10.205-2.617,10.205a8.2,8.2,0,0,1,2.093-.262,18.583,18.583,0,0,1,4.056-.785,38.516,38.516,0,0,1,5.5,0,38.516,38.516,0,0,1,5.5,0,18.586,18.586,0,0,1,4.056.785,5.1,5.1,0,0,1,2.093.262A89.294,89.294,0,0,0,489.072,115.509Z" transform="translate(-400.441 -112.5)" fill="#ff5800"/>
        <path id="Path_227202" data-name="Path 227202" d="M489.7,123.263a5.1,5.1,0,0,1,2.093.262s-.262-.916-.523-2.224c-2.748-1.57-7.065-1.7-11.121-1.7s-8.243.131-11.121,1.7c-.262,1.308-.523,2.224-.523,2.224a8.2,8.2,0,0,1,2.093-.262,18.586,18.586,0,0,1,4.056-.785,38.514,38.514,0,0,1,5.5,0,38.513,38.513,0,0,1,5.5,0A20.239,20.239,0,0,1,489.7,123.263Z" transform="translate(-400.41 -110.311)" fill="#82135c" opacity="0.66"/>
        <path id="Path_227203" data-name="Path 227203" d="M482.851,115.509c-.523-3.009-2.486-3.009-4.187-3.009s-3.663.131-4.187,3.009c-.523,3.009-1.178,10.205-1.178,10.205a1.891,1.891,0,0,1,.916-.262,4.431,4.431,0,0,1,1.963-.785,7.909,7.909,0,0,1,2.486,0,7.922,7.922,0,0,1,2.486,0,6.169,6.169,0,0,1,1.963.785c.392,0,.785,0,.916.262C484.029,125.715,483.374,118.519,482.851,115.509Z" transform="translate(-398.93 -112.5)" fill="#fac515"/>
        <path id="Path_227204" data-name="Path 227204" d="M484.029,123.325c0-.523-.262-1.963-.393-3.533-1.439-.131-3.271-.393-4.972-.393s-3.533.262-4.972.393c-.131,1.57-.393,3.009-.393,3.533h1.047a4.055,4.055,0,0,1,1.7-.785,7.909,7.909,0,0,1,2.486,0,7.921,7.921,0,0,1,2.486,0,4.055,4.055,0,0,1,1.7.785h.262A2.719,2.719,0,0,1,484.029,123.325Z" transform="translate(-398.93 -110.372)" fill="#e38627" opacity="0.66"/>
        <path id="Path_227205" data-name="Path 227205" d="M494.815,124.779c-1.308-2.748-7.981-3.794-11.645-4.056a28.312,28.312,0,0,0-4.71,0c-3.663.262-10.205,1.308-11.645,4.056-1.832,3.794,1.963,5.233,3.14,4.449a25.2,25.2,0,0,1,10.729-3.009c4.449,0,9.551,2.355,10.729,3.009C492.852,129.882,496.647,128.573,494.815,124.779Z" transform="translate(-401.081 -109.994)" fill="#ff5800"/>
        <path id="Path_227206" data-name="Path 227206" d="M486.8,125.441c-.785-1.439-1.7-2.878-2.486-4.448-1.439-.262-2.748-.262-3.663-.393h-2.617a18.069,18.069,0,0,0-3.4.393,28.478,28.478,0,0,1-1.439,3.533c-.654,1.178-1.439,2.355-2.093,3.533a23.173,23.173,0,0,1,8.374-1.963,24.059,24.059,0,0,1,8.9,2.093C487.847,127.4,487.324,126.357,486.8,125.441Z" transform="translate(-399.608 -110.002)" fill="#fb603e"/>
        <path id="Path_227207" data-name="Path 227207" d="M490.249,125.819c-3.14-1.178-7.065-2.617-10.467-2.093-2.748.393-5.364,1.7-8.112,1.963a7.842,7.842,0,0,1-5.1-1.308,2.8,2.8,0,0,0,3.4,3.925A25.2,25.2,0,0,1,480.7,125.3c4.448,0,9.551,2.355,10.729,3.009a2.728,2.728,0,0,0,3.533-3.4A4.666,4.666,0,0,1,490.249,125.819Z" transform="translate(-401.094 -109.072)" fill="#82135c" opacity="0.66"/>
        <path id="Path_227208" data-name="Path 227208" d="M536.027,228.177c-.393-6.149-5.5-63.195-5.5-63.195-8.766-2.486-31.139-11.383-31.139-11.383a29.115,29.115,0,0,1-10.205,9.944,29.114,29.114,0,0,1-10.205-9.944s-22.373,8.9-31.139,11.383c0,0-5.1,57.045-5.5,63.195S439.6,255.653,439.6,261.41h99.175C538.775,255.653,536.42,234.327,536.027,228.177Z" transform="translate(-409.322 -99.826)" fill="#239ae5"/>
        <path id="Path_227209" data-name="Path 227209" d="M536,218.34c-.131-3.009-1.439-18.056-2.748-32.84h0c-1.962,5.364-26.56,39.251-41.476,39.251-16.355,0-34.672-12.168-40.821-24.859a87.424,87.424,0,0,1-5.757-14v-.262c-1.308,14.654-2.617,29.569-2.748,32.579-.393,6.149-2.748,27.476-2.748,33.233h99.306C538.744,245.816,536.389,224.49,536,218.34Z" transform="translate(-409.291 -89.988)" fill="#005695"/>
        <path id="Path_227210" data-name="Path 227210" d="M472.283,152.7,460.9,156.756s1.7,17.532,14.523,22.5l7.327-15.308C482.619,163.821,474.9,158.719,472.283,152.7Z" transform="translate(-402.754 -100.103)" fill="#041c54"/>
        <path id="Path_227211" data-name="Path 227211" d="M487.867,152.7l11.383,4.056s-1.7,17.532-14.523,22.5L477.4,163.952C477.531,163.821,485.25,158.719,487.867,152.7Z" transform="translate(-397.665 -100.103)" fill="#041c54"/>
        <path id="Path_227212" data-name="Path 227212" d="M480.087,168.893a2.093,2.093,0,1,1-2.093-2.093A2.152,2.152,0,0,1,480.087,168.893Z" transform="translate(-398.128 -95.755)" fill="#041c54"/>
        <path id="Path_227213" data-name="Path 227213" d="M480.087,177.693a2.093,2.093,0,1,1-2.093-2.093A2.067,2.067,0,0,1,480.087,177.693Z" transform="translate(-398.128 -93.041)" fill="#041c54"/>
        <g id="Group_2956" data-name="Group 2956" transform="translate(40.166 58.122)">
          <path id="Path_227214" data-name="Path 227214" d="M448.2,196.7s48.148-10.467,75.886,0c0,0-7.2,17.663-36.5,21.85C458.405,222.864,448.2,196.7,448.2,196.7Z" transform="translate(-446.836 -146.092)" fill="#ab3c28"/>
          <path id="Path_227215" data-name="Path 227215" d="M488.921,216.142c3.14-3.663,6.8-5.888,10.336-8.9,1.439-1.308,3.663-3.009,4.579-4.71,1.177-2.093-1.439-2.355-2.355-4.056-1.047-1.832.785-3.663,2.224-4.448a33.342,33.342,0,0,0,5.626-3.925c1.963-1.57,2.617-2.486,1.57-4.71-1.308-2.355.131-2.486,2.355-3.271,1.308-.523,4.579-2.748,2.224-3.794-.916-.393-1.962.392-2.224-.916-.131-.916,1.047-1.7,1.308-2.486.785-1.832-.785-3.925-2.617-2.748s-.523,3.4-3.4,3.663c-1.963.131-3.4-.131-3.4,2.617.131,2.224,1.178,5.5-2.355,5.1-2.224-.262-4.056-.393-4.187,2.617,0,2.486,1.832,4.71-1.177,6.019-1.178.523-2.094.523-2.878,1.832a4.928,4.928,0,0,0-.523,4.056c.262,1.308.916,2.355.785,3.794-.262,2.093-1.57,2.486-3.14,3.533-3.009,1.963-1.963,4.841-3.4,7.589-.785,1.57-1.832,2.878-2.224,4.579-.523,1.832.131,2.486,1.439.916C488.79,217.32,489.183,216.011,488.921,216.142Z" transform="translate(-435.222 -152.323)" fill="#2e9a13"/>
          <g id="Group_2942" data-name="Group 2942" transform="translate(42.97 12.919)">
            <path id="Path_227216" data-name="Path 227216" d="M480.5,208.265s6.019-20.934,16.224-33.1,14.785-8.635,16.093-4.187c1.439,4.579-7.458,23.812-9.29,28.915s-8.5,19.233-11.645,24.074C488.608,228.806,477.879,217.947,480.5,208.265Z" transform="translate(-479.972 -166.786)" fill="url(#linear-gradient)"/>
            <path id="Path_227217" data-name="Path 227217" d="M486.411,205.529c3.14-5.888,5.757-12.168,8.9-18.056,3.533-6.673,8.766-18.448,17.532-15.962a.989.989,0,0,0-.131-.523c-1.439-4.579-5.888-7.981-16.093,4.187s-16.224,33.1-16.224,33.1c-1.047,3.794.131,7.85,1.963,11.121C482.355,214.426,484.187,209.716,486.411,205.529Z" transform="translate(-480 -166.797)" fill="#e47917" opacity="0.5"/>
            <path id="Path_227218" data-name="Path 227218" d="M493.9,179.2s4.841.393,6.411,1.047a17.531,17.531,0,0,1,3.533,3.4s-4.318,1.57-5.626.654A10.211,10.211,0,0,1,493.9,179.2Z" transform="translate(-475.713 -162.973)" fill="#b85b12"/>
            <path id="Path_227219" data-name="Path 227219" d="M491.4,183.9s5.1,1.047,6.28,1.439,3.925,3.794,3.925,3.794a6.439,6.439,0,0,1-6.019,0A9.656,9.656,0,0,1,491.4,183.9Z" transform="translate(-476.484 -161.523)" fill="#b85b12"/>
            <path id="Path_227220" data-name="Path 227220" d="M488.8,189.5a28.357,28.357,0,0,1,5.757,1.308,10.75,10.75,0,0,1,4.841,4.579s-3.663.785-6.149-.393C490.5,193.818,488.8,189.5,488.8,189.5Z" transform="translate(-477.286 -159.796)" fill="#b85b12"/>
            <path id="Path_227221" data-name="Path 227221" d="M484.9,196.6a19.078,19.078,0,0,1,7.458,1.832c3.794,1.832,3.794,4.841,3.794,4.841s-3.009,1.047-6.673-1.439A11.642,11.642,0,0,1,484.9,196.6Z" transform="translate(-478.488 -157.607)" fill="#b85b12"/>
            <path id="Path_227222" data-name="Path 227222" d="M493.9,179.2a32.286,32.286,0,0,0,4.841,3.271,19.746,19.746,0,0,0,5.1,1.178s-4.318,1.57-5.626.654A10.21,10.21,0,0,1,493.9,179.2Z" transform="translate(-475.713 -162.973)" fill="#d57a11"/>
            <path id="Path_227223" data-name="Path 227223" d="M491.4,183.9s3.533,3.14,4.579,3.4c1.177.262,5.5,1.832,5.5,1.832a6.44,6.44,0,0,1-6.019,0A9.831,9.831,0,0,1,491.4,183.9Z" transform="translate(-476.484 -161.523)" fill="#d57a11"/>
            <path id="Path_227224" data-name="Path 227224" d="M488.8,189.5a27.691,27.691,0,0,0,4.71,3.4c1.7.785,4.579.131,5.757,2.486,0,0-3.663.785-6.149-.393C490.5,193.818,488.8,189.5,488.8,189.5Z" transform="translate(-477.286 -159.796)" fill="#d57a11"/>
            <path id="Path_227225" data-name="Path 227225" d="M484.9,196.6a24.1,24.1,0,0,0,5.364,3.271,38.854,38.854,0,0,1,5.888,3.4s-3.009,1.047-6.673-1.439A11.642,11.642,0,0,1,484.9,196.6Z" transform="translate(-478.488 -157.607)" fill="#d57a11"/>
          </g>
          <g id="Group_2943" data-name="Group 2943" transform="translate(6.703 4.772)">
            <path id="Path_227226" data-name="Path 227226" d="M463.82,210.846s-10.205-19.233-11.383-35.064,4.579-16.486,8.766-14.261,11.121,22.373,13.476,27.214c2.224,4.841,7.327,19.756,8.374,25.383C484.1,219.874,468.661,219.482,463.82,210.846Z" transform="translate(-452.281 -160.566)" fill="url(#linear-gradient-2)"/>
            <path id="Path_227227" data-name="Path 227227" d="M466.168,204.7c-1.832-6.411-4.318-12.691-6.149-19.233-2.093-7.2-6.542-19.364,1.57-23.682-.131-.131-.262-.131-.393-.262-4.187-2.224-9.813-1.7-8.766,14.261,1.178,15.831,11.383,35.065,11.383,35.065a14.126,14.126,0,0,0,9.159,6.542C469.439,213.86,467.476,209.281,466.168,204.7Z" transform="translate(-452.274 -160.57)" fill="#e47917" opacity="0.5"/>
            <path id="Path_227228" data-name="Path 227228" d="M457.4,176.618s3.794-3.14,5.364-3.663,4.972,0,4.972,0-1.963,4.056-3.663,4.448A13,13,0,0,1,457.4,176.618Z" transform="translate(-450.702 -156.823)" fill="#b85b12"/>
            <path id="Path_227229" data-name="Path 227229" d="M458.9,181.757s4.448-2.748,5.5-3.4c1.047-.523,5.5,0,5.5,0a6.434,6.434,0,0,1-4.318,4.187A9.436,9.436,0,0,1,458.9,181.757Z" transform="translate(-450.24 -155.157)" fill="#b85b12"/>
            <path id="Path_227230" data-name="Path 227230" d="M460.9,187.537a24.8,24.8,0,0,1,4.972-3.009,10.506,10.506,0,0,1,6.673,0s-2.093,3.14-4.71,4.056C465.218,189.368,460.9,187.537,460.9,187.537Z" transform="translate(-449.623 -153.349)" fill="#b85b12"/>
            <path id="Path_227231" data-name="Path 227231" d="M463,195.4a19.1,19.1,0,0,1,6.673-3.794c4.056-1.308,6.018.785,6.018.785a7.961,7.961,0,0,1-5.757,3.663A11.139,11.139,0,0,1,463,195.4Z" transform="translate(-448.975 -151.133)" fill="#b85b12"/>
            <path id="Path_227232" data-name="Path 227232" d="M457.4,176.533s4.187-.523,5.757-.916A27.113,27.113,0,0,0,467.736,173s-1.963,4.056-3.663,4.448A15.087,15.087,0,0,1,457.4,176.533Z" transform="translate(-450.702 -156.737)" fill="#d57a11"/>
            <path id="Path_227233" data-name="Path 227233" d="M458.9,181.7s4.71-.262,5.626-.785l5.233-2.617a6.434,6.434,0,0,1-4.318,4.187A9.19,9.19,0,0,1,458.9,181.7Z" transform="translate(-450.24 -155.102)" fill="#d57a11"/>
            <path id="Path_227234" data-name="Path 227234" d="M460.9,187.456a25.571,25.571,0,0,0,5.757-.785c1.7-.654,3.4-3.14,5.757-2.224,0,0-2.093,3.14-4.71,4.056C465.218,189.288,460.9,187.456,460.9,187.456Z" transform="translate(-449.623 -153.269)" fill="#d57a11"/>
            <path id="Path_227235" data-name="Path 227235" d="M463,195.109a22.646,22.646,0,0,0,6.149-1.308,48.255,48.255,0,0,1,6.542-1.7,7.961,7.961,0,0,1-5.757,3.663A11.14,11.14,0,0,1,463,195.109Z" transform="translate(-448.975 -150.847)" fill="#d57a11"/>
          </g>
          <path id="Path_227236" data-name="Path 227236" d="M480.123,213.153c-1.7-3.4,1.177-9.42,2.617-12.56.916-1.963,1.047-3.925-.392-5.626-1.308-1.7-2.617-2.748-.523-4.318,4.448-3.14-1.7-5.888-1.832-9.682-.131-2.486,2.486-1.832,3.271-3.925.785-1.832-1.047-4.318.523-5.888,1.047-1.178,1.308,0,2.224-.131,1.047-.131,1.57-1.439,1.7-2.355.262-2.224-1.308-4.056-1.308-6.149.131-2.617,2.748-2.617,3.4-.262.262.785.262,2.617,1.439,2.748,1.7.131,2.093-2.748,1.963-3.794-.131-1.439-.785-2.093.392-3.4,1.047-1.047,2.093-1.308,3.009,0a5.859,5.859,0,0,1,.262,4.71c-.262.785-2.224,3.271-1.308,4.187.916,1.047,2.093-.916,3.271.523,1.308,1.7.393,3.271-.916,4.579-.916.916-2.617,1.832-1.963,3.4.523,1.439,2.224,1.047,2.617,2.748.785,3.925-6.542,3.794-6.28,7.458.131,1.57,2.224,1.7,2.748,3.271.523,1.832-1.177,3.271-2.355,4.318-1.308,1.047-3.925,3.009-3.925,4.841,0,1.439,1.439,2.748,1.178,4.448-.262,2.617-2.878,4.841-3.925,7.065-.916,1.963-1.439,3.663-3.663,4.318C480.777,214.331,479.992,213.938,480.123,213.153Z" transform="translate(-437.153 -156.923)" fill="#00b122"/>
          <path id="Path_227237" data-name="Path 227237" d="M488.961,215.435c.131-1.57-.523-3.009-.131-4.579a5.625,5.625,0,0,1,3.009-4.056c1.047-.654,2.355-1.7,1.7-3.009-.393-.654-1.178-.916-1.57-1.57a4.362,4.362,0,0,1-.262-2.224,2.93,2.93,0,0,1,.785-2.224c.654-.523,1.178-.262,1.963-.523,1.57-.785,1.57-2.748,1.963-4.187.262-1.439,1.047-3.14,2.878-2.224,1.57.654,1.308,2.748.916,4.056-.262.916-1.832,3.794-.262,4.056,1.7.262,2.486-3.4,2.486-4.579.131-1.832-.785-3.4-.785-5.1,0-1.963,1.963-4.056,3.533-1.963.785,1.047.131,4.579,1.178,4.972,1.7.654,2.093-4.056,3.794-4.448,2.093-.393,2.617,2.093,1.832,3.4-.785,1.047-5.1,3.4-4.318,4.972s3.4-.654,3.14,2.224c-.262,3.009-3.794,2.486-5.888,2.617-.916.131-2.486.523-2.617,1.7-.262,1.308.785.393,1.439,1.047,2.224,2.617-4.056,2.878-4.841,3.14a5.476,5.476,0,0,0-3.14,3.009,3.623,3.623,0,0,0,1.178.131,1.972,1.972,0,0,1-.262,2.355c-.654.785-1.57,1.308-2.224,2.224a11.861,11.861,0,0,1-1.7,2.486C491.708,217.79,489.222,217.267,488.961,215.435Z" transform="translate(-434.346 -147.822)" fill="#00b122"/>
          <g id="Group_2944" data-name="Group 2944" transform="translate(22.017 4.802)">
            <path id="Path_227238" data-name="Path 227238" d="M476.015,174.733c0-3.14-.131-11.906,3.009-13.738,4.579-2.878,1.047,10.6.392,12.43-.392,1.047-1.047,2.878-2.355,2.878C475.491,176.3,475.1,174.471,476.015,174.733Z" transform="translate(-460.426 -160.593)" fill="#246314"/>
            <path id="Path_227239" data-name="Path 227239" d="M478,234.111c-4.448.393-8.374.785-11.252-2.878-2.355-2.878-2.878-6.934-2.748-10.467.131-2.486,1.047-4.841,1.439-7.327.393-3.794.785-7.458.916-11.252.523-9.551-1.7-19.887,3.663-28.392,2.224-3.663,6.149-7.981,10.6-8.374a14.19,14.19,0,0,1,14.261,7.458c4.318,7.458,3.663,15.831,3.271,24.2a71.938,71.938,0,0,1-4.841,23.42C490.564,227.831,486.378,233.457,478,234.111Z" transform="translate(-463.986 -159.132)" fill="url(#radial-gradient)"/>
            <path id="Path_227240" data-name="Path 227240" d="M467.635,223.025a204.391,204.391,0,0,1,1.178-23.812c.654-6.019.523-12.168,1.7-17.925.393-2.093.262-5.888,2.617-6.934,3.663-1.439,3.663,4.318,3.794,6.542a161.308,161.308,0,0,1-1.178,31.794c-.523,3.4-.785,8.5-3.271,11.252-.785.785-2.617,2.355-3.925,1.832C467.112,224.988,467.5,221.979,467.635,223.025Z" transform="translate(-462.906 -156.42)" opacity="0.23" fill="url(#radial-gradient-2)"/>
            <path id="Path_227241" data-name="Path 227241" d="M476.223,223.523a3.386,3.386,0,0,1-.523-1.832c0-2.878,2.093-5.626,2.617-8.5a64.349,64.349,0,0,0,1.178-11.252c0-7.065-2.486-14.13-1.047-21.2,1.177-5.888,7.981-10.205,9.813-1.963,1.963,9.028-.785,19.887-2.617,28.653-.916,4.579-1.308,12.691-5.1,15.962C478.971,224.831,477.139,224.831,476.223,223.523Z" transform="translate(-460.373 -156.394)" opacity="0.23" fill="url(#radial-gradient-3)"/>
          </g>
          <g id="Group_2946" data-name="Group 2946" transform="translate(16.41 38.885)">
            <path id="Path_227242" data-name="Path 227242" d="M485.67,189.578c.262,0,.392.131.654.131h0a.481.481,0,0,0-.393-.131.48.48,0,0,1-.392-.131,1.659,1.659,0,0,1,.785-.131h.262l-.262-.131h-.392c-.131,0-.262.131-.393,0,.262-.131.523-.131.785-.262-.131-.131-.262-.131-.523-.131-.131,0-.262.131-.523.131,0-.131,0-.131.131-.131.131-.131.393-.262.523-.392a1.859,1.859,0,0,0-.785.262c-.131.131-.262.262-.393.262a.481.481,0,0,1-.393.131c-.131.131-.262.131-.262.262s.131.392.262.392.393-.131.523-.131a.834.834,0,0,1,.785,0Z" transform="translate(-452.176 -186.101)" fill="#cebd33"/>
            <path id="Path_227243" data-name="Path 227243" d="M481.55,202.156a5.694,5.694,0,0,1,.916-.785c1.439-1.047,3.009-2.093,4.579-3.009,1.832-1.047,3.794-2.224,4.841-3.925,1.7-2.355,1.047-5.233-1.832-6.8a5.263,5.263,0,0,0-3.4-.785c-.916.131-1.832-.393-2.748-.131a5.692,5.692,0,0,0-.916.523c-.916.523-2.224.523-3.009,1.439-.131.131-.262.393-.523.523h-.393c-.785-.131-1.177,1.178-1.963,1.308h-.785c-.654.131-.916.916-1.439,1.308a4.354,4.354,0,0,0-1.308.785,3.528,3.528,0,0,1-.916,1.047,1.759,1.759,0,0,0-.785.916.481.481,0,0,1-.131.393c-.262.393-.916.393-1.308.654-.523.393-.523,1.047-.916,1.439-.393.262-.916.393-1.177.785s-.262.916-.654,1.308c-.262.262-.523.262-.785.523-.785.523-.785,1.57-1.439,2.224-.392.392-1.047.523-1.177,1.047a.787.787,0,0,0-.131.523c-.262.654-1.177.916-1.308,1.7v.654c0,.131-.131.262-.262.393l-.392.393c-.392.523-.262,1.178-.523,1.7s-.654.785-.916,1.308a3.622,3.622,0,0,0-.131,1.178,4.836,4.836,0,0,1-.654,1.439,5.328,5.328,0,0,0-.131,2.878,8.682,8.682,0,0,0,.785,2.617,4.417,4.417,0,0,0,5.1,1.963c.916-.262,2.486-.785,3.009-1.7.262-.393.393-.916.785-1.178.262-.262.654-.262.916-.523.523-.523.523-1.308.785-1.963.393-.654,1.047-.916,1.308-1.57.393-.654.393-1.439.916-2.093.262-.393.785-.523.916-.916.262-.393.262-.916.523-1.308a6.553,6.553,0,0,1,1.047-.916c.262-.393.393-.785.654-1.178.523-.785,1.832-.785,2.224-1.7a3.277,3.277,0,0,1,.523-.916c.392-.523,1.177-.523,1.7-1.047a3.058,3.058,0,0,1,.916-.916c.393-.262.785-.393,1.047-.916.131-.131.131-.393.393-.523.393-.393,1.178-.262,1.7-.523.392-.262.523-.916.916-1.178a5.468,5.468,0,0,1,1.308-.523c.785-.393,1.178-1.308,1.832-1.832.392-.262.785-.393,1.177-.654s.785-.654.785-1.047Z" transform="translate(-459.7 -186.643)" fill="url(#linear-gradient-3)"/>
            <g id="Group_2945" data-name="Group 2945" transform="translate(0.262 0)">
              <path id="Path_227244" data-name="Path 227244" d="M486.852,186.848c-.916.131-1.832-.392-2.748-.131a5.691,5.691,0,0,0-.916.523c-.916.523-2.224.523-3.009,1.439-.131.131-.262.393-.523.523h-.393c-.785-.131-1.177,1.178-1.963,1.308h-.785c-.654.131-.916.916-1.439,1.308a4.356,4.356,0,0,0-1.308.785,3.527,3.527,0,0,1-.916,1.047,1.759,1.759,0,0,0-.785.916.481.481,0,0,1-.131.393c-.262.392-.916.392-1.308.654-.523.393-.523,1.047-.916,1.439-.392.262-.916.392-1.178.785s-.262.916-.654,1.308c-.262.262-.523.262-.785.523-.785.523-.785,1.57-1.439,2.224-.392.393-1.047.523-1.177,1.047a.787.787,0,0,0-.131.523c-.262.654-1.178.916-1.308,1.7v.654c0,.131-.131.262-.262.393l-.392.393c-.393.523-.262,1.178-.523,1.7s-.654.785-.916,1.308a3.622,3.622,0,0,0-.131,1.178,4.838,4.838,0,0,1-.654,1.439,5.329,5.329,0,0,0-.131,2.878,8.682,8.682,0,0,0,.785,2.617,4.417,4.417,0,0,0,5.1,1.963c.916-.262,2.486-.785,3.009-1.7.262-.393.392-.916.785-1.178.262-.262.654-.262.916-.523.523-.523.523-1.308.785-1.963.392-.654,1.047-.916,1.308-1.57.393-.654.393-1.439.916-2.093.262-.393.785-.523.916-.916.262-.392.262-.916.523-1.308a6.558,6.558,0,0,1,1.047-.916c.262-.393.393-.785.654-1.178.523-.785,1.832-.785,2.224-1.7a3.282,3.282,0,0,1,.523-.916c.523-.654,1.308-.393,1.832-.916a3.148,3.148,0,0,1,.785-1.047c.523-.393,1.308-.262,1.57-.785.131-.131.131-.393.262-.523.393-.523,1.178-.393,1.7-.785.392-.393.392-.916.916-1.178.392-.262.916,0,1.308-.262.523-.262.523-1.178,1.047-1.308h.654c.523-.131.523-.785.916-1.047.262-.262.654-.262.916-.523,1.178-.654,1.832-2.878,1.7-4.318a5.041,5.041,0,0,0-2.617-3.663A13.658,13.658,0,0,0,486.852,186.848Z" transform="translate(-459.9 -186.643)" fill="url(#linear-gradient-4)"/>
              <path id="Path_227245" data-name="Path 227245" d="M475.4,191.761a.463.463,0,0,0,.523.523c.131,0,.262-.262.262-.393C476.054,191.63,475.4,191.237,475.4,191.761Z" transform="translate(-455.12 -185.145)" fill="url(#radial-gradient-4)"/>
              <path id="Path_227246" data-name="Path 227246" d="M474.2,194.869a.463.463,0,0,0,.523.523c.131,0,.262-.262.262-.393C474.985,194.607,474.331,194.346,474.2,194.869Z" transform="translate(-455.49 -184.197)" fill="url(#radial-gradient-5)"/>
              <path id="Path_227247" data-name="Path 227247" d="M477.8,188.469a.463.463,0,0,0,.523.523c.131,0,.262-.262.262-.393C478.585,188.207,477.931,187.946,477.8,188.469Z" transform="translate(-454.38 -186.17)" fill="url(#radial-gradient-6)"/>
              <path id="Path_227248" data-name="Path 227248" d="M472.8,191.769a.463.463,0,0,0,.523.523c.131,0,.262-.262.262-.393C473.454,191.507,472.8,191.246,472.8,191.769Z" transform="translate(-455.922 -185.153)" fill="url(#radial-gradient-7)"/>
              <path id="Path_227249" data-name="Path 227249" d="M476.3,196.261a.463.463,0,0,0,.523.523c.131,0,.262-.262.262-.393C477.085,196.13,476.431,195.737,476.3,196.261Z" transform="translate(-454.842 -183.757)" fill="url(#radial-gradient-8)"/>
              <path id="Path_227250" data-name="Path 227250" d="M471.3,199.847a.462.462,0,0,0,.523.523c.131,0,.262-.262.262-.393C472.085,199.716,471.431,199.455,471.3,199.847Z" transform="translate(-456.384 -182.633)" fill="url(#radial-gradient-9)"/>
              <path id="Path_227251" data-name="Path 227251" d="M460.9,208.061a.462.462,0,0,0,.523.523c.131,0,.262-.262.262-.393C461.685,207.93,461.031,207.537,460.9,208.061Z" transform="translate(-459.592 -180.118)" fill="url(#radial-gradient-10)"/>
              <path id="Path_227252" data-name="Path 227252" d="M479.8,188.761a.463.463,0,0,0,.523.523c.131,0,.262-.262.262-.393C480.454,188.63,479.8,188.237,479.8,188.761Z" transform="translate(-453.763 -186.07)" fill="url(#radial-gradient-11)"/>
              <path id="Path_227253" data-name="Path 227253" d="M482.3,188.769a.463.463,0,0,0,.523.523c.131,0,.262-.262.262-.393C483.085,188.507,482.431,188.246,482.3,188.769Z" transform="translate(-452.992 -186.078)" fill="url(#radial-gradient-12)"/>
              <path id="Path_227254" data-name="Path 227254" d="M479.6,191.547a.463.463,0,0,0,.523.523c.131,0,.262-.262.262-.392C480.385,191.416,479.731,191.155,479.6,191.547Z" transform="translate(-453.825 -185.193)" fill="url(#radial-gradient-13)"/>
              <path id="Path_227255" data-name="Path 227255" d="M465.4,204.747a.463.463,0,0,0,.523.523c.131,0,.262-.262.262-.393C466.054,204.616,465.4,204.355,465.4,204.747Z" transform="translate(-458.204 -181.122)" fill="url(#radial-gradient-14)"/>
              <path id="Path_227256" data-name="Path 227256" d="M469.1,202.661a.463.463,0,0,0,.523.523c.131,0,.262-.262.262-.393C469.885,202.53,469.231,202.137,469.1,202.661Z" transform="translate(-457.063 -181.783)" fill="url(#radial-gradient-15)"/>
              <path id="Path_227257" data-name="Path 227257" d="M464.8,209.361a.463.463,0,0,0,.523.523c.131,0,.262-.262.262-.393C465.585,209.23,464.931,208.837,464.8,209.361Z" transform="translate(-458.389 -179.717)" fill="url(#radial-gradient-16)"/>
              <path id="Path_227258" data-name="Path 227258" d="M470.8,194.169a.463.463,0,0,0,.523.523c.131,0,.262-.262.262-.393C471.585,193.907,470.931,193.646,470.8,194.169Z" transform="translate(-456.539 -184.413)" fill="url(#radial-gradient-17)"/>
              <path id="Path_227259" data-name="Path 227259" d="M468.7,197.861a.463.463,0,0,0,.523.523c.131,0,.262-.262.262-.393C469.485,197.73,468.831,197.337,468.7,197.861Z" transform="translate(-457.186 -183.263)" fill="url(#radial-gradient-18)"/>
              <path id="Path_227260" data-name="Path 227260" d="M483.4,191.247a.463.463,0,0,0,.523.523c.131,0,.262-.262.262-.393C484.185,191.116,483.531,190.855,483.4,191.247Z" transform="translate(-452.653 -185.285)" fill="url(#radial-gradient-19)"/>
              <path id="Path_227261" data-name="Path 227261" d="M466,198.969a.463.463,0,0,0,.523.523c.131,0,.262-.262.262-.392C466.785,198.707,466.131,198.446,466,198.969Z" transform="translate(-458.019 -182.932)" fill="url(#radial-gradient-20)"/>
              <path id="Path_227262" data-name="Path 227262" d="M473.1,196.561a.463.463,0,0,0,.523.523c.131,0,.262-.262.262-.393C473.885,196.43,473.231,196.037,473.1,196.561Z" transform="translate(-455.829 -183.664)" fill="url(#radial-gradient-21)"/>
              <path id="Path_227263" data-name="Path 227263" d="M466.4,201.361a.463.463,0,0,0,.523.523c.131,0,.262-.262.262-.393C467.054,201.23,466.4,200.837,466.4,201.361Z" transform="translate(-457.895 -182.184)" fill="url(#radial-gradient-22)"/>
              <path id="Path_227264" data-name="Path 227264" d="M463,202.361a.463.463,0,0,0,.523.523c.131,0,.262-.262.262-.393C463.654,202.23,463,201.837,463,202.361Z" transform="translate(-458.944 -181.876)" fill="url(#radial-gradient-23)"/>
              <path id="Path_227265" data-name="Path 227265" d="M478,193.869a.463.463,0,0,0,.523.523c.131,0,.262-.262.262-.392C478.785,193.607,478.131,193.346,478,193.869Z" transform="translate(-454.318 -184.505)" fill="url(#radial-gradient-24)"/>
              <path id="Path_227266" data-name="Path 227266" d="M486.852,186.848c-.916.131-1.832-.392-2.748-.131a5.691,5.691,0,0,0-.916.523c-.916.523-2.224.523-3.009,1.439-.131.131-.262.393-.523.523h-.393c-.785-.131-1.177,1.178-1.963,1.308h-.785c-.654.131-.916.916-1.439,1.308a4.356,4.356,0,0,0-1.308.785,3.527,3.527,0,0,1-.916,1.047,1.759,1.759,0,0,0-.785.916.481.481,0,0,1-.131.393c-.262.392-.916.392-1.308.654-.523.393-.523,1.047-.916,1.439-.392.262-.916.392-1.178.785s-.262.916-.654,1.308c-.262.262-.523.262-.785.523-.785.523-.785,1.57-1.439,2.224-.392.393-1.047.523-1.177,1.047a.787.787,0,0,0-.131.523c-.262.654-1.178.916-1.308,1.7v.654c0,.131-.131.262-.262.393l-.392.393c-.393.523-.262,1.178-.523,1.7s-.654.785-.916,1.308a3.622,3.622,0,0,0-.131,1.178,4.838,4.838,0,0,1-.654,1.439,5.329,5.329,0,0,0-.131,2.878,8.682,8.682,0,0,0,.785,2.617,4.666,4.666,0,0,0,1.308,1.439,3.149,3.149,0,0,1-.785-1.047,6.093,6.093,0,0,1-.785-2.617,5.329,5.329,0,0,1,.131-2.878,7.007,7.007,0,0,0,.654-1.439c.131-.393,0-.785.131-1.178.131-.523.654-.785.916-1.308s.131-1.308.523-1.7l.392-.393c.131-.131.262-.262.262-.393.131-.262,0-.393,0-.654.131-.654,1.047-.916,1.309-1.7,0-.131.131-.393.131-.523.131-.523.785-.654,1.177-1.047.654-.654.654-1.7,1.439-2.224a2.737,2.737,0,0,0,.785-.523c.392-.393.262-.916.654-1.308.262-.393.785-.393,1.178-.785s.523-1.178.916-1.439,1.047-.262,1.308-.654a.481.481,0,0,0,.131-.392c.131-.393.523-.654.785-.916a3.527,3.527,0,0,0,.916-1.047,6.931,6.931,0,0,1,1.308-.785c.523-.393.785-1.178,1.439-1.308h.785c.785-.131,1.178-1.308,1.963-1.308.131,0,.262.131.392,0,.262,0,.392-.262.523-.523.654-.916,1.963-.785,3.009-1.439.262-.131.654-.393.916-.523.916-.262,1.832.262,2.748.131a4.579,4.579,0,0,1,3.4.785c.131.131.262.131.393.262a2.849,2.849,0,0,0-1.047-.654A6.042,6.042,0,0,0,486.852,186.848Z" transform="translate(-459.9 -186.643)" opacity="0.65" fill="url(#linear-gradient-5)"/>
              <path id="Path_227267" data-name="Path 227267" d="M477.4,197.731l.131-.131c0,.131,0,.131-.131.131Z" transform="translate(-454.503 -183.264)" fill="url(#linear-gradient-6)"/>
            </g>
            <path id="Path_227268" data-name="Path 227268" d="M490.923,189.963c0,.262,0,.523-.262.654s-.523.131-.654.262-.131.262-.262.393c-.262.654-.523,1.439-1.178,1.7-.131.131-.393.131-.654.262-.654.393-.785,1.439-1.439,1.439a2.816,2.816,0,0,0-1.047,0c-.654.262-.523,1.308-1.178,1.439h-.523c-.785,0-1.047,1.047-1.57,1.439-.654.523-1.7.393-2.355.916-.392.262-.523.785-.916,1.047-.654.392-1.439.131-1.963.654-.262.262-.393.654-.654.916-.393.262-1.178.131-1.57.393a3.914,3.914,0,0,0-.523,1.047c-.262.393-.916.654-1.178,1.047-.393.393-.262,1.047-.523,1.57-.393.916-1.439,1.308-1.963,2.224-.393.785-.393,1.832-1.047,2.224-.131.131-.393.131-.654.262-.523.393-.523,1.308-.916,1.963-.392.785-1.308,1.047-1.7,1.832-.262.392-.131,1.047-.523,1.439-.262.392-.785.523-1.178.785-.654.393-.916,1.178-1.57,1.57-.785.523-1.57.131-2.224.523.916,1.439,3.14,1.7,4.579,1.308.916-.262,2.486-.785,3.009-1.7.262-.393.393-.916.785-1.178.262-.262.654-.262.916-.523.523-.523.523-1.308.785-1.963.392-.654,1.047-.916,1.308-1.57.393-.654.393-1.439.916-2.093.262-.393.785-.523.916-.916.262-.393.262-.916.523-1.308a6.556,6.556,0,0,1,1.047-.916c.262-.393.392-.785.654-1.178.523-.785,1.832-.785,2.224-1.7a3.279,3.279,0,0,1,.523-.916c.523-.654,1.308-.393,1.832-.916a3.148,3.148,0,0,1,.785-1.047c.523-.393,1.308-.262,1.57-.785.131-.131.131-.393.262-.523.393-.523,1.178-.392,1.7-.785.393-.393.393-.916.916-1.178.393-.262.916,0,1.308-.262.523-.262.523-1.178,1.047-1.308h.654c.523-.131.523-.785.916-1.047.262-.262.654-.262.916-.523,1.178-.654,1.832-2.878,1.7-4.318a2.11,2.11,0,0,0-.392-1.178A6.86,6.86,0,0,0,490.793,188a2.689,2.689,0,0,0,0,1.439A.989.989,0,0,1,490.923,189.963Z" transform="translate(-459.392 -186.225)" fill="#30791a" opacity="0.43"/>
          </g>
          <g id="Group_2948" data-name="Group 2948" transform="translate(0 33.857)">
            <g id="Group_2947" data-name="Group 2947">
              <path id="Path_227269" data-name="Path 227269" d="M454.409,183.193a5.7,5.7,0,0,1,1.832,1.7c.916,1.047,1.832,2.617,2.878,3.271-.392.785-1.177.654-1.7,1.178-.393.262-.654.654-1.178.654-.523.131-1.178-.131-1.57,0a12.621,12.621,0,0,1,0-2.224c.131-1.439-.393-3.14-1.963-3.4h-.916c-.393.131-3.009,3.794-3.4,4.056-.916-.916-1.57-2.486-1.047-2.748.262-.131,4.187-2.748,4.449-2.878A6.083,6.083,0,0,1,454.409,183.193Z" transform="translate(-447.158 -182.8)" fill="url(#linear-gradient-7)"/>
              <path id="Path_227270" data-name="Path 227270" d="M453.847,188.79l-.785.785c-.785.523-1.963.393-2.748.785a2.927,2.927,0,0,0-1.308,3.009,8.416,8.416,0,0,0,1.308,3.14l5.5,9.028a18.586,18.586,0,0,0,4.972,6.019c1.308.785,3.009,1.308,4.187.393a5.124,5.124,0,0,0,1.047-1.308c.654-.916,1.177-1.832,1.832-2.748a11.968,11.968,0,0,0,1.178-2.224,8.467,8.467,0,0,0,.131-3.14,76.307,76.307,0,0,0-2.748-12.037,9.883,9.883,0,0,0-1.832-3.925c-1.047-1.047-2.748-1.57-3.925-.654s-1.57,1.308-3.009,1.308A5.828,5.828,0,0,0,453.847,188.79Z" transform="translate(-446.595 -181.986)" fill="url(#radial-gradient-25)"/>
            </g>
            <path id="Path_227271" data-name="Path 227271" d="M464.877,188.6c1.7,5.234,1.7,9.682,1.963,12.822a4.957,4.957,0,0,1,0,1.963,1.18,1.18,0,0,1-.785.785,1.325,1.325,0,0,1-.916-.523c-2.355-2.878-3.4-6.542-5.626-9.42l3.14,8.635a6.9,6.9,0,0,1,.393,1.57,2.284,2.284,0,0,1-.523,1.57.992.992,0,0,1-.523.262c-.131,0-.262-.131-.393-.131a7,7,0,0,1-1.7-1.7,17.973,17.973,0,0,1-1.7-2.617c-.262-.393-.523-.916-.785-1.308l-1.57-2.355c.131.393.262.654.393,1.047.392.916.916,1.7,1.308,2.617a4.4,4.4,0,0,1,.262,2.878c0,.131-.131.131-.131.262-.131.393-3.663-4.841-4.71-6.149-.523-.654-2.617-3.4-3.271-4.449,1.439,2.355,4.448,7.065,5.888,9.289.523.785.916,1.57,1.439,2.224,1.308,1.963,2.878,3.794,5.234,4.318a2.675,2.675,0,0,0,1.439,0,3.3,3.3,0,0,0,1.963-1.308,11.549,11.549,0,0,0,2.748-8.5C468.279,197.5,466.316,191.348,464.877,188.6Z" transform="translate(-446.374 -181.011)" opacity="0.8" fill="url(#radial-gradient-26)"/>
            <path id="Path_227272" data-name="Path 227272" d="M451.824,190.74a2.877,2.877,0,0,0-1.832.262c-.392.262-.392.785-.392,1.308a1.246,1.246,0,0,0,.262.916c.131.262.523.262.785.393a3.634,3.634,0,0,0,2.355-.393c.523-.262.916-.654,1.57-.523.131,0,.393.131.523.131a1.319,1.319,0,0,0,1.178-.393,3.046,3.046,0,0,0,.131-3.4C454.572,187.077,453.394,190.61,451.824,190.74Z" transform="translate(-446.405 -181.058)" fill="#e54133" opacity="0.65"/>
            <path id="Path_227273" data-name="Path 227273" d="M456.726,188.159c-.916.393-1.047.916-.916,1.832.131.785.262,1.832,1.308,2.093a4.65,4.65,0,0,0,1.308-.262c.654-.262,1.178-.523,1.832-.785a3.259,3.259,0,0,0,1.832-1.439c.131-.262.131-.523.262-.785.131-1.439-.654-2.486-2.093-2.093A8.715,8.715,0,0,0,456.726,188.159Z" transform="translate(-444.503 -181.617)" fill="#e54133" opacity="0.65"/>
            <path id="Path_227274" data-name="Path 227274" d="M456.443,189.02c0,.131-.131.131-.131.262a.865.865,0,0,0,.131.785c0,.131.131.262.262.393s.392,0,.523,0a3.69,3.69,0,0,0,2.093-1.178c.131-.131.131-.262.131-.523a.481.481,0,0,0-.131-.393C458.8,186.8,456.967,188.235,456.443,189.02Z" transform="translate(-444.351 -181.3)" fill="#e54133" opacity="0.65"/>
          </g>
          <g id="Group_2950" data-name="Group 2950" transform="translate(38.553 43.408)">
            <path id="Path_227275" data-name="Path 227275" d="M486.4,190.1h-.654a2.465,2.465,0,0,0-1.047.262,10.61,10.61,0,0,1,.262,5.364c.262,0,.916.262,1.177.262a12.9,12.9,0,0,0,.262-5.888Z" transform="translate(-474.134 -190.1)" fill="url(#radial-gradient-27)"/>
            <g id="Group_2949" data-name="Group 2949" transform="translate(0 0.262)">
              <path id="Path_227276" data-name="Path 227276" d="M481.664,193.539a8.6,8.6,0,0,0-4.841,6.149,9.238,9.238,0,0,0,2.093,7.327,12.2,12.2,0,0,0,6.8,3.794,9.012,9.012,0,0,0,2.617.131,9.309,9.309,0,0,0,7.458-5.888,8.5,8.5,0,0,0,.785-5.364,6.162,6.162,0,0,0-2.878-4.448c-1.7-1.047-3.925-1.047-5.757-1.7A8.668,8.668,0,0,0,481.664,193.539Z" transform="translate(-476.593 -189.483)" fill="#b82601"/>
              <path id="Path_227277" data-name="Path 227277" d="M496.742,201.119a.128.128,0,0,1-.131.131c-1.178,2.617-3.663,4.841-6.411,4.972a7.146,7.146,0,0,1-2.355-.131,10.62,10.62,0,0,1-5.888-3.271,7.846,7.846,0,0,1-1.832-6.28,5.784,5.784,0,0,1,1.439-3.14h0a8.6,8.6,0,0,0-4.841,6.149,9.238,9.238,0,0,0,2.093,7.327,12.2,12.2,0,0,0,6.8,3.794,9.013,9.013,0,0,0,2.617.131,9.308,9.308,0,0,0,7.458-5.888A6.4,6.4,0,0,0,496.742,201.119Z" transform="translate(-476.624 -189.344)" fill="#b82601"/>
              <path id="Path_227278" data-name="Path 227278" d="M486.98,194.356c-.523-.262-.916-.262-1.308-.785-.262-.393-.393-.916-.785-1.178l-.262-.262a3.43,3.43,0,0,1-.654-1.178,2.226,2.226,0,0,0-.131.916,2.325,2.325,0,0,0,.523,1.308c.392.392.654.916,1.047,1.308a4.459,4.459,0,0,1-2.878.916,7.723,7.723,0,0,1-1.832-.262,3.276,3.276,0,0,0,2.355,1.047,4.446,4.446,0,0,0,2.617-.393c.392-.131.916-.393,1.047-.785a3.2,3.2,0,0,0,3.533,3.533c-.654-.262-.916-.916-1.308-1.439-.392-.785-.785-1.439-1.178-2.224a3.15,3.15,0,0,0,1.047.785,6.164,6.164,0,0,0,2.224.523,2.557,2.557,0,0,0,1.963-.916c-1.57.262-3.14-.393-4.71-1.047a1.862,1.862,0,0,0,2.093-.654,4.647,4.647,0,0,0,.523-1.178c.131-.654.262-1.439.393-2.093a3.323,3.323,0,0,1-1.047,1.308,2.849,2.849,0,0,0-.916,1.178,1,1,0,0,1-.262.654c-.131.262-.392.262-.654.393a3.82,3.82,0,0,1-1.177.262c-.262,0-.916-.131-1.047-.393Z" transform="translate(-475.367 -190.3)" fill="url(#radial-gradient-28)"/>
            </g>
            <path id="Path_227279" data-name="Path 227279" d="M485.856,197.075a2.176,2.176,0,0,0-1.832,1.308,2.1,2.1,0,0,0,.523,2.093,5.694,5.694,0,0,0,1.963,1.047,7.575,7.575,0,0,0,3.794.393,3.053,3.053,0,0,0,2.486-2.617v-.654c-.131-1.308-1.439-3.009-2.748-3.14-.785-.131-1.177.393-1.7.785A7.892,7.892,0,0,1,485.856,197.075Z" transform="translate(-474.374 -188.44)" fill="#e84133" opacity="0.44"/>
            <path id="Path_227280" data-name="Path 227280" d="M483.342,193.894a1.391,1.391,0,0,0-1.57-.262,3.47,3.47,0,0,0-.785.654,2.491,2.491,0,0,0-.131,2.355,2.253,2.253,0,0,0,1.57,1.308A1.435,1.435,0,0,0,484,196.9,2.847,2.847,0,0,0,483.342,193.894Z" transform="translate(-475.392 -189.053)" fill="#e84133" opacity="0.44"/>
          </g>
          <path id="Path_227281" data-name="Path 227281" d="M449.377,248.458h71.437c.262-7.458.654-16.093,1.047-21.981.392-8.374,2.224-30.878,2.224-30.878-6.542.785-6.411,5.757-9.028,6.28s-4.318.262-9.42,3.533c-5.1,3.4-11.906-1.308-16.486-1.832s-14.261,2.224-17.009,2.224c-2.617,0-9.944-4.841-12.691-6.673S448.2,195.6,448.2,195.6s.523,11.775.916,18.186C449.377,219.02,449.639,233.8,449.377,248.458Z" transform="translate(-446.836 -144.996)" fill="url(#linear-gradient-8)"/>
          <path id="Path_227282" data-name="Path 227282" d="M490.109,223.829c4.972.654,9.289,4.579,6.8,9.813-.916,2.093-2.878,3.4-4.71,4.579-.392.262-6.018,3.009-6.673,3.4,5.626,1.178,9.028,3.533,9.551,5.1a3.819,3.819,0,0,1,.262,1.178H509.6c.262-7.458.654-16.093,1.047-21.981.392-6.8,1.57-22.635,2.093-28.523a26.66,26.66,0,0,1-3.4,5.1c-4.318,5.234-8.243,9.813-14.261,12.953-2.878,1.439-7.065,2.748-9.42,4.841C481.343,224.222,487.231,223.567,490.109,223.829Z" transform="translate(-435.756 -144.441)" fill="#d6ab8b" opacity="0.55"/>
          <path id="Path_227283" data-name="Path 227283" d="M449.408,248.458h46.971a2.6,2.6,0,0,0,1.047-1.57c-3.925-1.308-9.29-1.047-12.822-1.439-3.009-.393-6.673-.393-9.289-2.224a6.387,6.387,0,0,1-1.047-9.944c2.486-2.486,6.542-2.617,9.813-3.009,4.448-.523,1.439-1.57-1.439-2.617-3.009-1.178-6.019-1.439-9.289-1.832-4.71-.523-9.289-1.439-12.822-4.972-3.925-3.794-5.364-9.028-6.149-14.261-.654-4.579-3.663-7.327-5.626-10.86a2.291,2.291,0,0,0-.654-.131s.523,11.775.916,18.186C449.408,219.02,449.67,233.8,449.408,248.458Z" transform="translate(-446.867 -144.996)" fill="#d6ab8b" opacity="0.55"/>
          <path id="Path_227284" data-name="Path 227284" d="M493.914,247.9h12.822c.262-7.458.654-16.093,1.047-21.981.392-6.8,1.57-22.635,2.093-28.523a13.719,13.719,0,0,1-1.047,1.439c-2.486,3.533-7.2,6.8-8.374,11.121-1.047,3.925.131,8.9.262,12.953.131,4.448-.131,9.028-1.963,13.084s-5.1,6.149-4.841,10.99A2.137,2.137,0,0,0,493.914,247.9Z" transform="translate(-432.757 -144.441)" opacity="0.32" fill="url(#linear-gradient-9)"/>
          <path id="Path_227285" data-name="Path 227285" d="M449.408,248.489h11.514v-.916c-.262-5.626-1.963-10.075-3.663-15.308-1.439-4.318,0-8.374,0-12.822.131-8.766-3.925-16.486-8.5-23.812a2.29,2.29,0,0,0-.654-.131s.523,11.775.916,18.186C449.408,219.051,449.67,233.835,449.408,248.489Z" transform="translate(-446.867 -145.027)" opacity="0.32" fill="url(#linear-gradient-10)"/>
          <g id="Group_2952" data-name="Group 2952" transform="translate(20.204 86.323)">
            <g id="Group_2951" data-name="Group 2951">
              <path id="Path_227286" data-name="Path 227286" d="M470.058,223.4v1.963h-5.1v2.617h4.71v1.963h-4.71v3.925H462.6V223.4Z" transform="translate(-462.6 -222.746)" fill="#fac515"/>
              <path id="Path_227287" data-name="Path 227287" d="M477.435,229.256c0,2.486-1.7,4.056-4.318,4.056a3.989,3.989,0,0,1-4.318-4.056c0-2.486,1.7-4.056,4.318-4.056A3.989,3.989,0,0,1,477.435,229.256Zm-6.28.131a1.978,1.978,0,1,0,1.963-2.224A2,2,0,0,0,471.155,229.387Z" transform="translate(-460.688 -222.191)" fill="#fac515"/>
              <path id="Path_227288" data-name="Path 227288" d="M484.635,229.256c0,2.486-1.7,4.056-4.318,4.056A3.989,3.989,0,0,1,476,229.256c0-2.486,1.7-4.056,4.318-4.056A3.989,3.989,0,0,1,484.635,229.256Zm-6.28.131a1.978,1.978,0,1,0,1.963-2.224A2,2,0,0,0,478.355,229.387Z" transform="translate(-458.468 -222.191)" fill="#fac515"/>
              <path id="Path_227289" data-name="Path 227289" d="M491.8,222.9v11.121H489.58v-1.178a2.977,2.977,0,0,1-2.486,1.308c-2.224,0-3.794-1.7-3.794-4.187s1.439-4.056,3.794-4.056a2.906,2.906,0,0,1,2.617,1.308v-4.187H491.8Zm-2.224,7.2a2,2,0,0,0-1.963-2.224,2.181,2.181,0,0,0-2.093,2.224,2.028,2.028,0,0,0,2.093,2.224A2,2,0,0,0,489.58,230.1Z" transform="translate(-456.217 -222.9)" fill="#fac515"/>
            </g>
          </g>
          <g id="Group_2953" data-name="Group 2953" transform="translate(1.102 49.688)">
            <path id="Path_227290" data-name="Path 227290" d="M500.6,207.984a14.576,14.576,0,0,1-7.327-2.093c-4.187-2.355-12.168-.523-17.009.523-.785.131-1.439.262-2.093.393-4.448.916-11.383-3.925-15.177-6.542-.523-.393-1.047-.785-1.439-1.047-1.963-1.308-7.589-2.224-9.551-2.486l.262-1.832c.262,0,7.589,1.047,10.336,2.748.393.262.916.654,1.439,1.047,3.271,2.224,9.944,7.065,13.738,6.28l1.963-.393c5.364-1.178,13.476-3.009,18.317-.262,4.579,2.486,9.159,2.355,12.691-.393a8.868,8.868,0,0,1,5.757-2.093,4,4,0,0,0,1.963-.393,19.946,19.946,0,0,0,2.878-2.878,14.609,14.609,0,0,1,1.177-1.308,9.455,9.455,0,0,1,5.5-2.224v1.832a10.439,10.439,0,0,0-4.448,1.832,9.818,9.818,0,0,0-.916,1.047,23.686,23.686,0,0,1-3.14,3.14,4.215,4.215,0,0,1-3.009.785,6.266,6.266,0,0,0-4.579,1.7A11.417,11.417,0,0,1,500.6,207.984Z" transform="translate(-448 -194.9)" fill="#835545"/>
          </g>
          <g id="Group_2954" data-name="Group 2954" transform="translate(23.27 10.306)">
            <path id="Path_227291" data-name="Path 227291" d="M466.849,206.014h-1.832V200.65c-.262-12.822-.654-32.186,14.654-35.85l.393,1.832c-13.738,3.271-13.476,21.065-13.215,34.018Z" transform="translate(-464.943 -164.8)" fill="#835545"/>
          </g>
          <g id="Group_2955" data-name="Group 2955" transform="translate(54.876 26.138)">
            <path id="Path_227292" data-name="Path 227292" d="M490.932,200.058l-1.832-.393c2.093-10.86,0-22.242,0-22.373l1.832-.393A67.522,67.522,0,0,1,490.932,200.058Z" transform="translate(-489.1 -176.9)" fill="#835545"/>
          </g>
        </g>
        <g id="Group_2960" data-name="Group 2960" transform="translate(104.146 125.142)">
          <path id="Path_227293" data-name="Path 227293" d="M522.019,213.188s-5.5-3.925-10.205-4.71c-4.71-.916-11.645.131-11.906,2.355s-.393,4.318,12.168,4.056c0,0-14.392-.262-15.308.916s-1.7,4.448,2.748,4.579c4.448,0,9.551.523,9.551.523s-10.729-.785-11.252.262,0,3.794,3.663,4.056c3.794.262,7.065.785,7.065.785s-7.2-.523-7.719.393c-.392.916.131,3.4,6.28,3.925,6.019.523,6.673.654,8.9.393,2.355-.262,8.112-3.14,10.205-5.5C528.561,222.609,525.421,214.1,522.019,213.188Z" transform="translate(-496.058 -208.147)" fill="#fca694"/>
          <path id="Path_227294" data-name="Path 227294" d="M517.442,212.586a34.859,34.859,0,0,0-4.187-2.486,38.635,38.635,0,0,1,.654,12.037,18.661,18.661,0,0,1-3.009,7.981h.654c2.355-.262,8.112-3.14,10.205-5.5C523.984,222.006,520.844,213.5,517.442,212.586Z" transform="translate(-491.48 -207.544)" fill="#e96362"/>
          <g id="Group_2957" data-name="Group 2957" transform="translate(7.459 5.307)">
            <rect id="Rectangle_189" data-name="Rectangle 189" width="1.963" height="8.504" transform="translate(0 1.961) rotate(-87.628)" fill="#041c54"/>
          </g>
          <g id="Group_2958" data-name="Group 2958" transform="translate(3.22 11.394)">
            <rect id="Rectangle_190" data-name="Rectangle 190" width="1.963" height="11.383" transform="translate(0 1.962) rotate(-88.129)" fill="#041c54"/>
          </g>
          <g id="Group_2959" data-name="Group 2959" transform="translate(7.51 16.071)">
            <rect id="Rectangle_191" data-name="Rectangle 191" width="1.963" height="6.934" transform="matrix(0.052, -0.999, 0.999, 0.052, 0, 1.96)" fill="#041c54"/>
          </g>
        </g>
        <path id="Path_227295" data-name="Path 227295" d="M509.256,162.3a30.252,30.252,0,0,1,20.672,15.57c7.2,13.607,12.691,30.223,15.962,42.13s1.963,15.439-1.439,18.971-24.728,5.757-24.728,5.757l-5.888-22.242s5.626-.392,5.234-2.486-5.888-15.177-5.888-15.177S506.509,188.86,509.256,162.3Z" transform="translate(-388.046 -97.143)" fill="#239ae5"/>
        <g id="Group_2961" data-name="Group 2961" transform="translate(122.257 100.353)">
          <path id="Path_227296" data-name="Path 227296" d="M513.171,215.106l-.262-1.832c1.439-.131,4.71-.654,5.1-1.178.131-.131-.131-1.047-.393-1.7-.131-.262-.131-.654-.262-1.047-1.047-3.533-7.327-19.364-7.458-19.495l1.832-.654c.262.654,6.411,16.093,7.458,19.756a8.365,8.365,0,0,0,.262.916c.393,1.308.785,2.355.131,3.271C518.928,214.19,517.227,214.583,513.171,215.106Z" transform="translate(-509.9 -189.2)" fill="#041c54"/>
        </g>
        <g id="Group_2965" data-name="Group 2965" transform="translate(24.483 125.142)">
          <path id="Path_227297" data-name="Path 227297" d="M440.167,213.188s5.5-3.925,10.205-4.71c4.71-.916,11.645.131,11.906,2.355.262,2.355.392,4.318-12.168,4.056,0,0,14.392-.262,15.308.916s1.7,4.448-2.747,4.579c-4.449,0-9.551.523-9.551.523s10.729-.785,11.252.262,0,3.794-3.663,4.056c-3.794.262-7.065.785-7.065.785s7.2-.523,7.719.393c.392.916-.131,3.4-6.28,3.925-6.019.523-6.673.654-8.9.393-2.355-.262-8.112-3.14-10.205-5.5C433.756,222.609,436.765,214.1,440.167,213.188Z" transform="translate(-435.157 -208.147)" fill="#fca694"/>
          <path id="Path_227298" data-name="Path 227298" d="M444.76,223.561c-.916-5.1.262-9.551,1.57-14.261a43.564,43.564,0,0,0-6.149,3.4c-3.4,1.047-6.411,9.42-4.318,11.906,2.224,2.355,7.981,5.364,10.205,5.5.654,0,1.047.131,1.57.131A16.987,16.987,0,0,1,444.76,223.561Z" transform="translate(-435.171 -207.791)" fill="#e96362"/>
          <g id="Group_2962" data-name="Group 2962" transform="translate(14.905 5.363)">
            <rect id="Rectangle_192" data-name="Rectangle 192" width="8.766" height="1.963" transform="translate(0 0.388) rotate(-2.535)" fill="#041c54"/>
          </g>
          <g id="Group_2963" data-name="Group 2963" transform="translate(14.967 11.045)">
            <rect id="Rectangle_193" data-name="Rectangle 193" width="1.963" height="11.514" transform="translate(0 1.962) rotate(-88.331)" fill="#041c54"/>
          </g>
          <g id="Group_2964" data-name="Group 2964" transform="translate(14.168 16.294)">
            <rect id="Rectangle_194" data-name="Rectangle 194" width="8.374" height="1.963" fill="#041c54"/>
          </g>
        </g>
        <path id="Path_227299" data-name="Path 227299" d="M454.979,162.3a30.252,30.252,0,0,0-20.672,15.57c-7.2,13.607-12.691,30.223-15.962,42.13s-1.963,15.439,1.439,18.971,24.728,5.757,24.728,5.757l5.888-22.242s-5.626-.392-5.234-2.486,5.888-15.177,5.888-15.177S457.6,188.86,454.979,162.3Z" transform="translate(-416.458 -97.143)" fill="#239ae5"/>
        <g id="Group_2966" data-name="Group 2966" transform="translate(27.311 100.222)">
          <path id="Path_227300" data-name="Path 227300" d="M444.093,215.137c-3.925-.523-5.757-.916-6.411-2.093-.654-.916-.262-1.963.131-3.271.131-.262.131-.654.262-.916,1.047-3.663,7.2-19.1,7.458-19.757l1.832.654c0,.131-6.411,15.962-7.458,19.495a3.078,3.078,0,0,0-.262,1.047c-.262.785-.523,1.57-.393,1.7.393.523,3.663,1.047,5.1,1.178Z" transform="translate(-437.333 -189.1)" fill="#041c54"/>
        </g>
      </g>
      <g id="Group_2970" data-name="Group 2970" transform="translate(747.467 1765.814)">
        <ellipse id="Ellipse_74" data-name="Ellipse 74" cx="24.074" cy="21.196" rx="24.074" ry="21.196" fill="#fff"/>
        <path id="Path_227315" data-name="Path 227315" d="M435.6,143.037l28.523,13.476L445.282,131Z" transform="translate(-406.031 -106.533)" fill="#fff"/>
        <g id="Group_2969" data-name="Group 2969" transform="translate(6.149 15.701)">
          <path id="Path_227316" data-name="Path 227316" d="M421.625,136.075a7.721,7.721,0,0,1-1.832-.262,1.905,1.905,0,0,1-1.178-.785,3.431,3.431,0,0,1-.654-1.178,4.879,4.879,0,0,1-.262-1.57v-4.187a4.879,4.879,0,0,1,.262-1.57,5.3,5.3,0,0,1,.654-1.178,4.565,4.565,0,0,1,1.178-.785,6.82,6.82,0,0,1,1.832-.262,3.957,3.957,0,0,1,3.009.916,3.686,3.686,0,0,1,.916,2.748v4.187a3.686,3.686,0,0,1-.916,2.748A3.383,3.383,0,0,1,421.625,136.075Zm-.523-1.7c.131,0,.262.131.523.131s.392,0,.523-.131c.131,0,.262-.131.392-.262a.481.481,0,0,0,.131-.393c0-.131.131-.262.131-.393v-6.28a.481.481,0,0,0-.131-.393c0-.131-.131-.262-.131-.393a1.007,1.007,0,0,0-.392-.262c-.131,0-.262-.131-.523-.131s-.393,0-.523.131c-.131,0-.262.131-.393.262s-.131.131-.131.393c0,.131-.131.262-.131.393v6.28a.48.48,0,0,0,.131.393c0,.131.131.262.131.393C420.84,134.244,420.971,134.374,421.1,134.374Z" transform="translate(-417.7 -124.3)"/>
          <path id="Path_227317" data-name="Path 227317" d="M425,135.852V124.6h2.617v4.71l2.355-4.71h2.617l-2.486,5.1,2.617,6.149h-2.748l-2.093-5.1-.393.523v4.579Z" transform="translate(-415.449 -124.208)"/>
          <path id="Path_227318" data-name="Path 227318" d="M431.6,135.852v-1.963h2.355v1.963Zm.785-2.748-.785-8.5h2.486l-.916,8.5Z" transform="translate(-413.413 -124.207)"/>
        </g>
        <path id="Path_227319" data-name="Path 227319" d="M435.4,124.718s0,12.037.654,12.56,10.99-9.944,11.906-11.252-.131-4.056-1.177-3.925-8.635,10.205-8.635,10.205,1.047-7.065.523-7.85S435.4,123.017,435.4,124.718Z" transform="translate(-406.092 -109.279)" fill="#00b122"/>
      </g>
      <g id="Group_2973" data-name="Group 2973" transform="translate(768.401 1718.582)">
        <path id="Path_227320" data-name="Path 227320" d="M585.744,76.2H429v38.074H551.464L539.558,147.9l22.635-33.625h23.551Z" transform="translate(-429 -76.2)" fill="#fff"/>
        <g id="Group_2972" data-name="Group 2972" transform="translate(12.691 7.981)">
          <g id="Group_2971" data-name="Group 2971">
            <path id="Path_227321" data-name="Path 227321" d="M449.952,82.3l3.533,7.065,7.719,1.178-5.626,5.5,1.308,7.719-6.934-3.663-6.934,3.663,1.308-7.719-5.626-5.5,7.85-1.178Z" transform="translate(-438.7 -82.3)" fill="#fac515"/>
            <path id="Path_227322" data-name="Path 227322" d="M470.952,82.3l3.4,7.065,7.85,1.178-5.626,5.5,1.308,7.719-6.934-3.663-6.934,3.663,1.308-7.719-5.626-5.5,7.719-1.178Z" transform="translate(-432.224 -82.3)" fill="#fac515"/>
            <path id="Path_227323" data-name="Path 227323" d="M491.821,82.3l3.533,7.065,7.719,1.178-5.626,5.5,1.308,7.719-6.934-3.663-6.934,3.663,1.308-7.719-5.5-5.5,7.719-1.178Z" transform="translate(-425.748 -82.3)" fill="#fac515"/>
            <path id="Path_227324" data-name="Path 227324" d="M512.852,82.3l3.4,7.065,7.85,1.178-5.626,5.5,1.309,7.719-6.934-3.663-6.934,3.663,1.308-7.719-5.626-5.5,7.719-1.178Z" transform="translate(-419.303 -82.3)" fill="#fac515"/>
            <path id="Path_227325" data-name="Path 227325" d="M533.721,82.3l3.533,7.065,7.719,1.178-5.626,5.5,1.308,7.719-6.934-3.663-6.934,3.663,1.439-7.719-5.626-5.5,7.719-1.178Z" transform="translate(-412.827 -82.3)" fill="#fac515"/>
          </g>
        </g>
      </g>
      <path id="Path_227326" data-name="Path 227326" d="M523.083,143.848h-4.448V139.4h-2.486v4.449H511.7v2.486h4.448v4.449h2.486v-4.449h4.448Z" transform="translate(364.904 1661.871)" fill="#fff"/>
      <path id="Path_227327" data-name="Path 227327" d="M418.083,190.448h-4.448V186h-2.486v4.448H406.7v2.486h4.448v4.448h2.486v-4.448h4.448Z" transform="translate(332.524 1676.242)" fill="#fff"/>
      <path id="Path_227328" data-name="Path 227328" d="M546.783,177.048h-4.448V172.6h-2.486v4.448H535.4v2.486h4.448v4.448h2.486v-4.448h4.448Z" transform="translate(372.212 1672.11)" fill="#fff"/>
      <path id="Path_227329" data-name="Path 227329" d="M434.083,159.648h-4.448V155.2h-2.486v4.449H422.7v2.617h4.448v4.318h2.486v-4.318h4.448Z" transform="translate(337.458 1666.744)" fill="#fff"/>
    </g>
  </g>
</svg>
