<svg xmlns="http://www.w3.org/2000/svg" width="14.839" height="16.998" viewBox="0 0 14.839 16.998">
  <g id="Layer_1" transform="translate(-828.126 -306.423)">
    <g id="Group_2819" data-name="Group 2819" transform="translate(828.126 306.423)">
      <path id="Path_226447" data-name="Path 226447" d="M929.588,320.559a2.388,2.388,0,0,1-1.416-.49,1.733,1.733,0,0,1-.414-.712,3.363,3.363,0,0,1,1.172-3.683,1.221,1.221,0,0,0,.6.522c.26.072.6-.128.551-.394-.033-.179-.212-.287-.365-.386a3.356,3.356,0,0,1-1.279-3.373,5.924,5.924,0,0,1,1.947-3.209,3.094,3.094,0,0,0-.195,1.289,1.407,1.407,0,0,0,.648,1.087,1.324,1.324,0,0,0,.653.158,1.907,1.907,0,0,0,1.693-1.214,2.473,2.473,0,0,0-.213-2.125,3.563,3.563,0,0,0-1.658-1.408,5.22,5.22,0,0,1,6.54,6.2,1.2,1.2,0,0,0,.523-.77,4.114,4.114,0,0,1-.268,2.048,2.581,2.581,0,0,0,1.527-2.282,4.428,4.428,0,0,1-.755,7.245,1.7,1.7,0,0,0,.652-.167,5.407,5.407,0,0,1-9.165,2.784" transform="translate(-926.799 -306.423)" fill="#fd951b"/>
      <path id="Path_226448" data-name="Path 226448" d="M998.02,359.352a1.119,1.119,0,0,1-1.076-.139,3.032,3.032,0,0,1-1.2-1,2.267,2.267,0,0,1-.2-1.764,4.489,4.489,0,0,1,.869-1.591.728.728,0,0,0,1.24.554,1.091,1.091,0,0,0,.029-1.3,11.262,11.262,0,0,0-.9-1.071,3.5,3.5,0,0,1-.648-2.559,5.35,5.35,0,0,1,1.037-2.47,2.12,2.12,0,0,0,.111,1.711,1.259,1.259,0,0,0,1.579.856,2.975,2.975,0,0,0,2.119-2.387,3.277,3.277,0,0,0-1.2-2.993,6.069,6.069,0,0,1,2.861,1.038,5.019,5.019,0,0,1,1.462,2.641,5.648,5.648,0,0,1,.236,2.185,12.283,12.283,0,0,0-.2,1.249,1.258,1.258,0,0,0,.48,1.111,1.21,1.21,0,0,0,.881.121,2.128,2.128,0,0,0,1.591-2.516,4.663,4.663,0,0,1,.524,3.819,5.22,5.22,0,0,1-2.446,3.012,1.61,1.61,0,0,0,1.2-.1,5.055,5.055,0,0,1-7.513,2.506" transform="translate(-994.11 -344.888)" fill="#ffce00"/>
      <path id="Path_226449" data-name="Path 226449" d="M1138.645,675.418a1.467,1.467,0,0,0,1.672.134,1.922,1.922,0,0,0,.9-1.474,2.813,2.813,0,0,0-.434-1.709c-.329-.544-.824-1.1-.689-1.722a1.342,1.342,0,0,0,.987.748,2.12,2.12,0,0,0,1.255-.186,3.377,3.377,0,0,0,1.726-1.908,4.407,4.407,0,0,0,.1-2.6,6.846,6.846,0,0,1,1.227,6.124,2.3,2.3,0,0,0,.6-.8,5.124,5.124,0,0,1-.126,1.781,2.783,2.783,0,0,0,3.187-1.6,4.688,4.688,0,0,1-1.333,3.128,13.908,13.908,0,0,1-2.728,2.148,4.476,4.476,0,0,0,2.551-.352,4.125,4.125,0,0,1-1.916,1.829,7.208,7.208,0,0,1-2.6.649,5.061,5.061,0,0,1-3.248-.811,2.426,2.426,0,0,1-1.218-1.37,2.924,2.924,0,0,1-.082-1A10.251,10.251,0,0,0,1138.645,675.418Z" transform="translate(-1135.959 -663.8)" fill="#fde41b"/>
      <path id="Path_226450" data-name="Path 226450" d="M946.442,1137.108s-.026-.01-.072-.031a1.141,1.141,0,0,1-.185-.112,1.136,1.136,0,0,1-.39-1.3,1.018,1.018,0,0,1,.093-.2c.027-.043.043-.066.043-.066s-.01.027-.026.073a1.5,1.5,0,0,0-.052.2,1.431,1.431,0,0,0,.527,1.384Z" transform="translate(-944.779 -1128.728)" fill="#fda238"/>
      <path id="Path_226451" data-name="Path 226451" d="M2593.765,1103.8l.018-.08c.006-.026.013-.056.018-.094a1.245,1.245,0,0,0,.017-.124,1.4,1.4,0,0,0,.01-.151c0-.054,0-.111,0-.172a2.423,2.423,0,0,0-.058-.386,2.378,2.378,0,0,0-.127-.369c-.026-.054-.049-.107-.077-.153s-.053-.09-.078-.129-.051-.072-.073-.1a.75.75,0,0,0-.059-.074l-.053-.063.066.048a.6.6,0,0,1,.075.062,1.2,1.2,0,0,1,.092.09,1.162,1.162,0,0,1,.1.121,1.575,1.575,0,0,1,.1.152,1.515,1.515,0,0,1,.2.8,1.353,1.353,0,0,1-.019.181,1.1,1.1,0,0,1-.033.154.928.928,0,0,1-.04.123.593.593,0,0,1-.038.089Z" transform="translate(-2579.093 -1095.498)" fill="#fda238"/>
      <path id="Path_226452" data-name="Path 226452" d="M2441.642,1841.8l-.008.03a.6.6,0,0,1-.027.081.727.727,0,0,1-.4.4.775.775,0,0,1-.081.028l-.031.008a1.084,1.084,0,0,0,.1-.057,1.238,1.238,0,0,0,.214-.171,1.2,1.2,0,0,0,.17-.214C2441.623,1841.841,2441.642,1841.8,2441.642,1841.8Z" transform="translate(-2428.119 -1829.443)" fill="#fda238"/>
      <path id="Path_226453" data-name="Path 226453" d="M2127,507.685s-.011-.033-.033-.091c-.009-.029-.021-.064-.037-.105s-.031-.087-.052-.137c-.038-.1-.087-.218-.145-.346s-.125-.265-.2-.407-.151-.274-.223-.394-.142-.227-.2-.316c-.03-.046-.06-.085-.084-.12s-.047-.066-.066-.09l-.057-.078.083.05a1.132,1.132,0,0,1,.094.064c.036.027.077.056.12.093a2.272,2.272,0,0,1,.279.278,2.446,2.446,0,0,1,.271.4,2.387,2.387,0,0,1,.177.451,2.341,2.341,0,0,1,.071.388c.006.055.007.106.009.15s0,.082,0,.114C2127,507.65,2127,507.685,2127,507.685Z" transform="translate(-2115.455 -503.997)" fill="#fda238"/>
      <path id="Path_226454" data-name="Path 226454" d="M1410.191,415.834s0-.035,0-.1c0-.031,0-.069,0-.113s0-.093-.011-.148a3.494,3.494,0,0,0-.059-.379,3.658,3.658,0,0,0-.311-.876,3.509,3.509,0,0,0-.192-.331c-.029-.048-.06-.086-.085-.122s-.048-.066-.067-.09l-.06-.076.076.061a1.023,1.023,0,0,1,.086.076c.032.031.071.065.108.108a2.154,2.154,0,0,1,.243.316,2.333,2.333,0,0,1,.214.44,2.378,2.378,0,0,1,.11.477,2.2,2.2,0,0,1,.01.4c0,.056-.011.107-.016.151s-.013.082-.019.113C1410.2,415.8,1410.191,415.834,1410.191,415.834Z" transform="translate(-1404.721 -412.737)" fill="#fda238"/>
      <path id="Path_226455" data-name="Path 226455" d="M828.332,1576.619l-.043-.093a1.014,1.014,0,0,1-.044-.112,1.5,1.5,0,0,1-.048-.153,1.684,1.684,0,0,1-.042-.19,2.01,2.01,0,0,1-.026-.223,2.238,2.238,0,0,1,.032-.514,2.21,2.21,0,0,1,.157-.491,1.966,1.966,0,0,1,.105-.2,1.636,1.636,0,0,1,.108-.162,1.563,1.563,0,0,1,.1-.125.891.891,0,0,1,.082-.087l.073-.071-.055.086c-.018.027-.04.06-.061.1s-.05.084-.074.137-.054.107-.08.17-.051.129-.078.2a3.208,3.208,0,0,0-.179.954c0,.075,0,.146,0,.214s.006.129.012.187.014.109.019.155.013.084.02.116C828.325,1576.583,828.332,1576.619,828.332,1576.619Z" transform="translate(-828.126 -1563.996)" fill="#fda238"/>
      <path id="Path_226456" data-name="Path 226456" d="M2256.093,2054.9a2.292,2.292,0,0,1-.1.266,2.93,2.93,0,0,1-.352.592,2.976,2.976,0,0,1-.482.493.51.51,0,0,1-.181.113.1.1,0,0,1-.077-.008c.037.088.326-.256.647-.668.16-.208.3-.4.394-.55Z" transform="translate(-2243.415 -2040.827)" fill="#fda238"/>
      <g id="Group_2818" data-name="Group 2818" transform="translate(1.99 4.323)">
        <path id="Path_226457" data-name="Path 226457" d="M1097.773,1078.846a7.671,7.671,0,0,1-1.769,5.263c-1.419,1.867-3.972,3.256-6.306,2.2-.853-.385-2.358-1.464-2.046-2.58a.239.239,0,0,1,.07-.127.251.251,0,0,1,.151-.036,2.862,2.862,0,0,0,3.112-2.262c.125-.674.247-1.348.376-2.022a4.08,4.08,0,0,1,1.529-2.545c.8-.588,2.232-1.128,3.15-.481A3.709,3.709,0,0,1,1097.773,1078.846Z" transform="translate(-1087.512 -1074.095)" fill="#760103"/>
        <path id="Path_226458" data-name="Path 226458" d="M2207.054,1170.719a5.42,5.42,0,0,1,.447,1.981,7.166,7.166,0,0,1-.361,2.074,9.581,9.581,0,0,1-.454,1.3,6.853,6.853,0,0,0,.974-4.05,3.386,3.386,0,0,0-1.158-2.125A4.829,4.829,0,0,1,2207.054,1170.719Z" transform="translate(-2197.397 -1167.273)" fill="#fde41b"/>
        <path id="Path_226459" data-name="Path 226459" d="M1558.471,1077.239a4.891,4.891,0,0,1,1.384-.851,4.266,4.266,0,0,1,1.359-.235l-.026-.014a3.528,3.528,0,0,0-2.586.727,4.049,4.049,0,0,0-1.5,2.412A8.205,8.205,0,0,1,1558.471,1077.239Z" transform="translate(-1553.222 -1074.22)" fill="#fde41b"/>
        <g id="Group_2813" data-name="Group 2813" transform="translate(0.736 7.439)">
          <path id="Path_226460" data-name="Path 226460" d="M1174.992,1768.767a15.508,15.508,0,0,1-1.963,1.683,9,9,0,0,1-2.283,1.232,7.511,7.511,0,0,1-1.378.35,4.559,4.559,0,0,1-1.193.012,4.911,4.911,0,0,1-1.07-.249c-.1-.037-.205-.079-.305-.126a5.074,5.074,0,0,0,1.451,1.008c2.334,1.053,4.887-.335,6.306-2.2a7.951,7.951,0,0,0,1.256-2.574C1175.551,1768.2,1175.271,1768.487,1174.992,1768.767Z" transform="translate(-1166.8 -1767.9)" fill="#6e0103"/>
        </g>
        <g id="Group_2814" data-name="Group 2814" transform="translate(0.735 9.767)">
          <path id="Path_226461" data-name="Path 226461" d="M1172.274,2058.2a4.117,4.117,0,0,1-1.12.159c-.167.072-.335.138-.507.2a7.465,7.465,0,0,1-1.378.351,4.557,4.557,0,0,1-1.193.012,4.971,4.971,0,0,1-1.071-.249q-.155-.056-.305-.125a5.08,5.08,0,0,0,1.451,1.007c2.334,1.053,4.887-.335,6.306-2.2.061-.082.123-.165.182-.248a6.765,6.765,0,0,1-.92.522A9.239,9.239,0,0,1,1172.274,2058.2Z" transform="translate(-1166.7 -2057.1)" fill="#6e0103"/>
        </g>
        <path id="Path_226462" data-name="Path 226462" d="M1728.606,1207.628a.27.27,0,0,0-.16-.259.7.7,0,0,0-.742.191l-.007.009a.969.969,0,0,0-.272.379.428.428,0,0,0-.021.347.257.257,0,0,0,.321.1,1.176,1.176,0,0,0,.313-.239,3.367,3.367,0,0,1,.352-.229A.4.4,0,0,0,1728.606,1207.628Z" transform="translate(-1722.127 -1204.394)" fill="#fff"/>
        <path id="Path_226463" data-name="Path 226463" d="M1679.1,1357.408a.168.168,0,0,0-.007-.091.182.182,0,0,0-.037-.083.186.186,0,0,0-.07-.061.177.177,0,0,0-.088-.034h-.016a.255.255,0,0,0-.128.014c-.019.007-.063.036-.056.031a.191.191,0,0,0-.023.022l-.023.022a.221.221,0,0,0-.017.028.11.11,0,0,0-.017.029.227.227,0,0,0-.019.065.254.254,0,0,0,.016.128.285.285,0,0,0,.034.063l.042.045a.182.182,0,0,0,.085.042.116.116,0,0,0,.062.009.176.176,0,0,0,.09-.014l0,0,.029-.015.028-.016,0,0,.023-.023.023-.022,0,0,.033-.054a.011.011,0,0,1,0,0A.223.223,0,0,0,1679.1,1357.408Z" transform="translate(-1673.737 -1353.003)" fill="#fff"/>
        <path id="Path_226464" data-name="Path 226464" d="M1894.048,863.688a1.5,1.5,0,0,0-.759-.88h0l-.023-.012a.3.3,0,0,0-.01-.059.1.1,0,0,0-.091-.079h0a.394.394,0,0,0-.006-.069.088.088,0,0,0-.047-.065l.072-.143.205-.388a.82.82,0,0,0,.138-.722.351.351,0,0,0-.492-.171.091.091,0,0,0-.13.083,2.552,2.552,0,0,1-.114.767,2.628,2.628,0,0,1-.138.353c-.023.046-.043.108-.1.119a.826.826,0,0,1-.188,0l-.407-.017a1.533,1.533,0,0,0-.353.007.854.854,0,0,0-.21.073h-.028a.1.1,0,0,0-.092.064,2,2,0,0,0-.284.221c-.067.061-.015.2.085.171a3.217,3.217,0,0,1,.555-.129,2.144,2.144,0,0,1,.555-.025c.1.012.052.079.015.138a.586.586,0,0,0-.09.188.214.214,0,0,0,.24.277.67.67,0,0,0,.415-.225.769.769,0,0,0,.079-.106.09.09,0,0,0,.058.024.241.241,0,0,0,.042,0,.088.088,0,0,0,.006.117.23.23,0,0,0,.166.076,1.3,1.3,0,0,1,.3.232l.387.369a.1.1,0,0,0,.157-.009.238.238,0,0,0,.026-.059A.082.082,0,0,0,1894.048,863.688Z" transform="translate(-1884.395 -860.913)" fill="#49c00f"/>
        <path id="Path_226465" data-name="Path 226465" d="M2021.218,1087.184a1.758,1.758,0,0,0-.807-.734.717.717,0,0,0-.244-.079.465.465,0,0,0-.255.116c-.106.068-.361.292-.478.139-.077-.1-.226.029-.15.129a.36.36,0,0,0,.444.073,1.862,1.862,0,0,0,.243-.147c.045-.029.09-.059.136-.087a.1.1,0,0,1,.116-.007,1.54,1.54,0,0,1,.818.684C2021.1,1087.382,2021.281,1087.3,2021.218,1087.184Z" transform="translate(-2011.667 -1084.417)" fill="#3e9419"/>
        <path id="Path_226466" data-name="Path 226466" d="M2088.209,858.6c-.015-.126-.208-.086-.194.04a1.68,1.68,0,0,1-.347,1.216c-.078.1.086.211.163.111A1.879,1.879,0,0,0,2088.209,858.6Z" transform="translate(-2079.5 -858.403)" fill="#cced2c"/>
        <g id="Group_2815" data-name="Group 2815" transform="translate(6.84 1.934)">
          <path id="Path_226467" data-name="Path 226467" d="M1926.1,1083.859a2.491,2.491,0,0,0-.9.023" transform="translate(-1925.2 -1083.828)" fill="#fc1a1a"/>
        </g>
        <g id="Group_2817" data-name="Group 2817">
          <path id="Path_226468" data-name="Path 226468" d="M1083.783,1079.957a3.213,3.213,0,0,1,1.727,2.309,4.878,4.878,0,0,1-.02,1.676,7.253,7.253,0,0,1-.5,1.655,8.952,8.952,0,0,1-1.813,2.742,6.337,6.337,0,0,1-2.58,1.616,4.214,4.214,0,0,1-2.995-.142,4.952,4.952,0,0,1-1.057-.657,2.93,2.93,0,0,1-.855-1.014,1.242,1.242,0,0,1-.118-.567.983.983,0,0,1,.016-.139c.01-.048.018-.132.059-.163s.127-.017.178-.018l.179-.007a3.976,3.976,0,0,0,1.281-.279,2.779,2.779,0,0,0,1.017-.7,2.707,2.707,0,0,0,.6-1.156c.076-.3.12-.617.177-.925.06-.326.12-.653.182-.979a5.576,5.576,0,0,1,.4-1.382,3.648,3.648,0,0,1,1.893-1.833,4.124,4.124,0,0,1,.7-.211c.125-.027.072-.217-.052-.191a3.834,3.834,0,0,0-2.36,1.539,4.314,4.314,0,0,0-.6,1.241,7.408,7.408,0,0,0-.176.786c-.064.336-.126.673-.188,1.011a4.794,4.794,0,0,1-.441,1.575,2.416,2.416,0,0,1-.894.884,3.364,3.364,0,0,1-1.247.4c-.117.015-.234.025-.352.031a1.015,1.015,0,0,0-.38.037c-.2.094-.205.432-.192.619a2,2,0,0,0,.578,1.164,4.8,4.8,0,0,0,1.1.871,4.338,4.338,0,0,0,2.893.564,5.977,5.977,0,0,0,2.835-1.339,8.518,8.518,0,0,0,2.052-2.588,7.2,7.2,0,0,0,.937-3.395,3.81,3.81,0,0,0-.326-1.585,3.428,3.428,0,0,0-.935-1.219,3.113,3.113,0,0,0-.624-.4c-.116-.054-.216.117-.1.171Z" transform="translate(-1075.374 -1077.686)" fill="#841918"/>
          <path id="Path_226469" data-name="Path 226469" d="M1914.02,1071.862a2.67,2.67,0,0,0-.952.023.1.1,0,0,0-.069.122.1.1,0,0,0,.122.069,2.4,2.4,0,0,1,.847-.023.1.1,0,0,0,.122-.069.1.1,0,0,0-.069-.122Z" transform="translate(-1906.254 -1069.992)" fill="#841918"/>
          <g id="Group_2816" data-name="Group 2816" transform="translate(6.394)">
            <path id="Path_226470" data-name="Path 226470" d="M2013.162,1072.414a.663.663,0,0,0-.122.378.326.326,0,0,0,.24.308.572.572,0,0,0,.408-.091c.142-.081.273-.184.407-.277a.1.1,0,0,0,.036-.135.1.1,0,0,0-.135-.035c-.117.081-.233.166-.353.244a.545.545,0,0,1-.281.109.127.127,0,0,1-.124-.132.349.349,0,0,1,.026-.132.635.635,0,0,1,.07-.135.1.1,0,0,0-.171-.1Z" transform="translate(-2011.886 -1070.525)" fill="#841918"/>
            <path id="Path_226471" data-name="Path 226471" d="M1869.983,1011.471c.037-.293.4-.417.647-.472a1.861,1.861,0,0,1,.893-.01.1.1,0,0,0,.052-.191,2.081,2.081,0,0,0-1.05.023c-.334.086-.692.273-.74.649-.016.126.182.125.2,0Z" transform="translate(-1869.784 -1009.396)" fill="#841918"/>
            <path id="Path_226472" data-name="Path 226472" d="M2149.17,1049.587a1.66,1.66,0,0,1,.621.521,1.23,1.23,0,0,1,.192.333.5.5,0,0,1,.034.156.231.231,0,0,1-.025.117c-.061.112.11.212.17.1.141-.262-.03-.576-.187-.788a1.846,1.846,0,0,0-.706-.611.1.1,0,0,0-.136.035.1.1,0,0,0,.036.135Z" transform="translate(-2146.874 -1047.748)" fill="#841918"/>
            <path id="Path_226473" data-name="Path 226473" d="M2075.5,845.123a1.662,1.662,0,0,0,.364-.829,1.114,1.114,0,0,0,.006-.217.475.475,0,0,1,0-.2.211.211,0,0,1,.23-.128.33.33,0,0,1,.251.07.311.311,0,0,1,.063.212,1.514,1.514,0,0,1-.172.6,6.238,6.238,0,0,1-.32.588.1.1,0,0,0,.171.1,6.392,6.392,0,0,0,.315-.579,1.742,1.742,0,0,0,.2-.72.433.433,0,0,0-.411-.465.626.626,0,0,0-.306.027.4.4,0,0,0-.234.338c0,.089.02.178.017.268a1.155,1.155,0,0,1-.045.269,1.486,1.486,0,0,1-.27.523c-.078.1.062.239.14.139Z" transform="translate(-2073.687 -843.553)" fill="#841918"/>
          </g>
        </g>
      </g>
    </g>
  </g>
</svg>
