<svg xmlns="http://www.w3.org/2000/svg" xmlns:xlink="http://www.w3.org/1999/xlink" width="31.03" height="32" viewBox="0 0 31.03 32">
  <defs>
    <linearGradient id="linear-gradient" x1="-0.423" y1="0.75" x2="0.529" y2="0.25" gradientUnits="objectBoundingBox">
      <stop offset="0" stop-color="#00e2ff"/>
      <stop offset="1" stop-color="#00c5ff"/>
    </linearGradient>
  </defs>
  <g id="Group_3355" data-name="Group 3355" transform="translate(-315 -3933)">
    <ellipse id="Ellipse_82" data-name="Ellipse 82" cx="15.515" cy="16" rx="15.515" ry="16" transform="translate(315 3933)" fill="#f7f7f7" opacity="0.04"/>
    <g id="_x34_2.Google_PLay" transform="translate(310.37 3931)">
      <path id="Path_229550" data-name="Path 229550" d="M60,37.742l-2.71-1.565-2.774,2.774,2.774,2.774,2.719-1.57A1.408,1.408,0,0,0,60,37.742Z" transform="translate(-31.913 -20.942)" fill="#ffce00"/>
      <path id="Path_229551" data-name="Path 229551" d="M22.608,19.606,15.052,12a1.426,1.426,0,0,0-.422,1.014V26.18a1.427,1.427,0,0,0,.422,1.014Z" transform="translate(0 -1.597)" fill="url(#linear-gradient)"/>
      <path id="Path_229552" data-name="Path 229552" d="M24.3,18.009l2.774-2.774,0,0-3.717-2.14-4.9-2.88a1.39,1.39,0,0,0-1.427-.028,2.117,2.117,0,0,0-.291.216Z" transform="translate(-1.69)" fill="#00f076"/>
      <path id="Path_229553" data-name="Path 229553" d="M16.742,57.634a2.117,2.117,0,0,0,.291.216,1.457,1.457,0,0,0,.695.188,1.43,1.43,0,0,0,.723-.206l4.909-2.866,3.717-2.14,0,0L24.3,50.047Z" transform="translate(-1.69 -32.038)" fill="#f63448"/>
    </g>
  </g>
</svg>
