<svg xmlns="http://www.w3.org/2000/svg" width="16" height="12.625" viewBox="0 0 16 12.625">
  <path id="mail-inbox-app" d="M12.25,66.625H3.75A3.754,3.754,0,0,1,0,62.875V57.75A3.754,3.754,0,0,1,3.75,54h8.5A3.754,3.754,0,0,1,16,57.75v5.125A3.754,3.754,0,0,1,12.25,66.625ZM3.75,55.25a2.5,2.5,0,0,0-2.5,2.5v5.125a2.5,2.5,0,0,0,2.5,2.5h8.5a2.5,2.5,0,0,0,2.5-2.5V57.75a2.5,2.5,0,0,0-2.5-2.5Zm6.54,6.169,3.089-2.36a.625.625,0,1,0-.759-.993L9.532,60.425a2.506,2.506,0,0,1-3.03,0L3.509,58.1a.625.625,0,0,0-.767.987l3,2.328,0,0a3.759,3.759,0,0,0,4.549,0Z" transform="translate(0 -54)" fill="#7e7e7e"/>
</svg>
