<svg xmlns="http://www.w3.org/2000/svg" width="20" height="20" viewBox="0 0 20 20">
  <g id="paper-plane_1_" data-name="paper-plane (1)" transform="translate(0 0)">
    <path id="Path_230246" data-name="Path 230246" d="M262.524,129.5a.781.781,0,0,0,1.1,0l3.315-3.315a.781.781,0,1,0-1.1-1.1l-3.315,3.315A.781.781,0,0,0,262.524,129.5Z" transform="translate(-252.048 -119.975)" fill="#fff"/>
    <path id="Path_230247" data-name="Path 230247" d="M25.019,6.21a2.344,2.344,0,0,0,1.049,3.921l5.231,1.4a.782.782,0,0,1,.551.551l1.4,5.231a2.344,2.344,0,0,0,4.451.235L43.227,3.186A2.344,2.344,0,0,0,40.2.156L25.834,5.68a2.327,2.327,0,0,0-.815.53Zm1.1,1.1a.774.774,0,0,1,.271-.177L40.758,1.614a.782.782,0,0,1,1.011,1.011h0L36.244,16.988a.782.782,0,0,1-1.484-.078l-1.4-5.231A2.346,2.346,0,0,0,31.7,10.023l-5.231-1.4a.768.768,0,0,1-.349-.2.782.782,0,0,1,0-1.1Z" transform="translate(-23.382 0)" fill="#fff"/>
    <path id="Path_230248" data-name="Path 230248" d="M.229,391.794a.781.781,0,0,0,1.1,0l3.315-3.315a.781.781,0,1,0-1.1-1.1L.229,390.69a.781.781,0,0,0,0,1.1Z" transform="translate(0 -372.023)" fill="#fff"/>
    <path id="Path_230249" data-name="Path 230249" d="M114.47,418.974l2.21-2.21a.781.781,0,0,0-1.1-1.1l-2.21,2.21a.781.781,0,0,0,1.1,1.1Z" transform="translate(-108.717 -399.203)" fill="#fff"/>
    <path id="Path_230250" data-name="Path 230250" d="M.229,305.837a.781.781,0,0,0,1.1,0l2.21-2.21a.781.781,0,0,0-1.1-1.1l-2.21,2.21a.781.781,0,0,0,0,1.1Z" transform="translate(0 -290.486)" fill="#fff"/>
  </g>
</svg>
