<svg xmlns="http://www.w3.org/2000/svg" width="24" height="23.996" viewBox="0 0 24 23.996">
  <path id="shopping" d="M17.153,20.291H9.889a5.63,5.63,0,0,1-5.624-5.624V8.9A8.527,8.527,0,0,0,.421,1.765.937.937,0,1,1,1.453.2,10.418,10.418,0,0,1,4.739,3.676,5.35,5.35,0,0,0,8.577,5.341H19.37a4.637,4.637,0,0,1,4.48,5.743l-1.243,4.952A5.617,5.617,0,0,1,17.153,20.291ZM5.9,6.686A10.473,10.473,0,0,1,6.14,8.9v5.765a3.754,3.754,0,0,0,3.749,3.749h7.264a3.744,3.744,0,0,0,3.637-2.837l1.243-4.952A2.755,2.755,0,0,0,19.37,7.216H8.577A6.988,6.988,0,0,1,5.9,6.686ZM9.42,22.869a1.172,1.172,0,1,0-1.172,1.172A1.172,1.172,0,0,0,9.42,22.869Zm9.326,0a1.172,1.172,0,1,0-1.172,1.172,1.172,1.172,0,0,0,1.172-1.172Zm1.561-12.841a.937.937,0,0,0-.937-.937H8.952a.937.937,0,0,0,0,1.875H19.37A.937.937,0,0,0,20.308,10.028Z" transform="translate(0 -0.045)" fill="#fff"/>
</svg>
